<svg width="214" height="40" viewBox="0 0 214 40" fill="none" xmlns="http://www.w3.org/2000/svg">
<g clip-path="url(#clip0_295_30060)">
<path d="M19.9024 0C15.966 0 12.1181 1.17298 8.8452 3.37061C5.57228 5.56824 3.02135 8.69181 1.51499 12.3463C0.00862345 16.0009 -0.38551 20.0222 0.382427 23.9018C1.15036 27.7814 3.04588 31.3451 5.82927 34.1422C8.61267 36.9392 12.1589 38.844 16.0196 39.6157C19.8803 40.3874 23.882 39.9913 27.5187 38.4776C31.1553 36.9638 34.2637 34.4004 36.4506 31.1114C38.6375 27.8224 39.8047 23.9556 39.8047 20C39.8047 14.6957 37.7079 9.6086 33.9754 5.85788C30.243 2.10715 25.1808 0 19.9024 0ZM6.9206 26.6864C6.72324 26.7578 6.51518 26.7946 6.30544 26.7955C5.93414 26.7956 5.57178 26.681 5.26752 26.4672C4.96327 26.2533 4.73186 25.9506 4.60469 25.6C4.53109 25.3992 4.49431 25.1867 4.49613 24.9727C4.49571 24.6001 4.60974 24.2365 4.82265 23.9314C5.03556 23.6263 5.33697 23.3947 5.68575 23.2682C5.88398 23.1942 6.09399 23.1573 6.30544 23.1591C6.73076 23.1596 7.14232 23.3107 7.46784 23.5858C7.79336 23.8609 8.01203 24.2424 8.08545 24.6634C8.15888 25.0844 8.08236 25.5179 7.86934 25.8879C7.65632 26.2578 7.32041 26.5406 6.9206 26.6864ZM16.1978 31.0318C15.9745 31.1137 15.7373 31.1506 15.4997 31.1403C15.2622 31.13 15.0291 31.0728 14.8136 30.9719C14.5981 30.871 14.4045 30.7284 14.2438 30.5523C14.0832 30.3762 13.9587 30.17 13.8774 29.9455L10.1638 19.7C10.0928 19.5017 10.0561 19.2926 10.0552 19.0818C10.0536 18.6536 10.2024 18.2386 10.4754 17.9098C10.7485 17.5811 11.1282 17.3597 11.5477 17.2847C11.9673 17.2098 12.3997 17.286 12.7687 17.5C13.1378 17.714 13.4199 18.052 13.5653 18.4546L17.2743 28.7046C17.4378 29.1567 17.4162 29.6554 17.2144 30.0916C17.0127 30.5278 16.6471 30.8659 16.1978 31.0318ZM24.8553 33.6682C24.6317 33.75 24.3942 33.7866 24.1565 33.776C23.9188 33.7654 23.6854 33.7078 23.4699 33.6065C23.2544 33.5051 23.0608 33.3621 22.9004 33.1855C22.7399 33.0089 22.6157 32.8022 22.5349 32.5773L13.8729 8.65911C13.7996 8.4598 13.7629 8.24884 13.7643 8.03639C13.7637 7.60858 13.9133 7.19425 14.1867 6.86632C14.4601 6.53838 14.8398 6.31786 15.259 6.24348C15.6783 6.1691 16.1102 6.24565 16.4788 6.45968C16.8474 6.67372 17.1291 7.0115 17.2743 7.41363L25.9364 31.3364C26.0187 31.5607 26.0561 31.7993 26.0463 32.0382C26.0364 32.2772 25.9796 32.5118 25.8791 32.7285C25.7786 32.9453 25.6364 33.1399 25.4607 33.3012C25.285 33.4625 25.0792 33.5872 24.8553 33.6682ZM29.7993 26.0545C29.5756 26.1363 29.3382 26.173 29.1004 26.1624C28.8627 26.1518 28.6294 26.0942 28.4138 25.9928C28.1983 25.8915 28.0047 25.7485 27.8443 25.5718C27.6839 25.3952 27.5597 25.1886 27.4788 24.9637L22.5304 11.2955C22.4568 11.0963 22.42 10.8852 22.4218 10.6727C22.4223 10.2453 22.5726 9.83173 22.8464 9.50462C23.1202 9.1775 23.4998 8.95776 23.9188 8.88397C24.3377 8.81019 24.7691 8.88711 25.1373 9.10117C25.5054 9.31524 25.7868 9.6528 25.9319 10.0546L30.8803 23.7227C30.9627 23.9471 31 24.1856 30.9902 24.4246C30.9804 24.6635 30.9236 24.8981 30.8231 25.1149C30.7226 25.3317 30.5804 25.5263 30.4046 25.6876C30.2289 25.8489 30.0232 25.9736 29.7993 26.0545ZM34.1235 16.7364C33.9261 16.8077 33.7181 16.8446 33.5083 16.8455C33.137 16.8456 32.7747 16.731 32.4704 16.5172C32.1662 16.3033 31.9347 16.0006 31.8076 15.65C31.7344 15.4507 31.6976 15.2397 31.699 15.0273C31.6979 14.6539 31.8116 14.2894 32.0246 13.9835C32.2375 13.6775 32.5393 13.4452 32.8886 13.3182C33.0869 13.2443 33.2969 13.2073 33.5083 13.2091C33.9337 13.2096 34.3452 13.3607 34.6707 13.6358C34.9963 13.9109 35.2149 14.2924 35.2884 14.7134C35.3618 15.1344 35.2853 15.5679 35.0722 15.9379C34.8592 16.3078 34.5233 16.5905 34.1235 16.7364Z" fill="#A7A6AB"/>
<path d="M54.905 17.8409C53.1862 17.4727 51.888 17.1727 51.888 16.2045C51.888 15.3409 52.951 14.9727 54.2401 14.9727C55.7957 15.011 57.3008 15.5353 58.5463 16.4727L60.7989 13.3408C58.8619 11.8781 56.5002 11.0955 54.0773 11.1136C50.2325 11.1136 47.0527 12.909 47.0527 16.5727C47.0527 20.5636 50.5989 21.3636 53.2812 21.9636C55 22.3636 56.2937 22.6954 56.2937 23.659C56.2937 24.559 55.2036 25.0272 53.6114 25.0272C51.8317 25.0269 50.113 24.3758 48.776 23.1954L46.5234 26.3227C48.565 28.0109 51.135 28.919 53.7788 28.8863C57.8859 28.8863 61.1291 26.9227 61.1291 23.1954C61.1291 19.2363 57.5511 18.4045 54.905 17.8409Z" fill="#A7A6AB"/>
<path d="M71.8613 24.1961C71.1286 24.1969 70.4086 24.0038 69.7738 23.6362C69.1389 23.2686 68.6115 22.7396 68.2447 22.1022C67.8778 21.4648 67.6844 20.7417 67.6839 20.0054C67.6834 19.2691 67.8758 18.5456 68.2418 17.9078C68.6078 17.2699 69.1345 16.7401 69.7688 16.3717C70.4032 16.0032 71.1229 15.8091 71.8556 15.8089C72.5883 15.8086 73.3082 16.0022 73.9428 16.3702C74.5774 16.7382 75.1044 17.2676 75.4709 17.9052L79.6775 15.3461C78.8566 14.0159 77.7027 12.9255 76.3311 12.1837C74.9596 11.4419 73.4183 11.0747 71.8613 11.1189C70.6788 11.0849 69.5014 11.2896 68.399 11.7208C67.2965 12.1521 66.2913 12.8013 65.4429 13.6298C64.5945 14.4583 63.9201 15.4495 63.4595 16.5445C62.999 17.6396 62.7617 18.8164 62.7617 20.0052C62.7617 21.1941 62.999 22.3708 63.4595 23.4659C63.9201 24.561 64.5945 25.5521 65.4429 26.3807C66.2913 27.2092 67.2965 27.8583 68.399 28.2896C69.5014 28.7209 70.6788 28.9256 71.8613 28.8916C73.4181 28.9347 74.959 28.5671 76.3304 27.8254C77.7018 27.0837 78.8558 25.9938 79.6775 24.6643L75.4709 22.1007C75.1139 22.7452 74.5897 23.2805 73.9541 23.6495C73.3185 24.0185 72.5953 24.2074 71.8613 24.1961Z" fill="#A7A6AB"/>
<path d="M94.0533 11.5133V13.2133C93.3891 12.5344 92.594 11.9988 91.7167 11.6393C90.8394 11.2798 89.8983 11.1039 88.9511 11.1224C84.3147 11.1224 80.8047 14.9497 80.8047 20.0088C80.8047 25.0679 84.3147 28.8951 88.9511 28.8951C89.8982 28.9125 90.8389 28.7361 91.716 28.3766C92.5932 28.0172 93.3884 27.4822 94.0533 26.8042V28.4906H98.8887V11.5133H94.0533ZM89.91 24.1951C89.0833 24.2011 88.2734 23.9601 87.5832 23.5028C86.8929 23.0455 86.3534 22.3925 86.033 21.6266C85.7127 20.8607 85.6259 20.0164 85.7838 19.2009C85.9416 18.3854 86.337 17.6353 86.9197 17.046C87.5024 16.4566 88.2461 16.0544 89.0566 15.8904C89.8671 15.7265 90.7078 15.8082 91.4721 16.1251C92.2363 16.442 92.8897 16.9799 93.3492 17.6705C93.8088 18.3611 94.0538 19.1734 94.0533 20.0042C94.0715 20.5572 93.977 21.1081 93.7756 21.623C93.5741 22.1379 93.2701 22.606 92.882 22.9986C92.494 23.3911 92.0301 23.6997 91.519 23.9054C91.008 24.1112 90.4604 24.2098 89.91 24.1951Z" fill="#A7A6AB"/>
<path d="M123.163 11.1187C122.084 11.0801 121.012 11.298 120.034 11.7545C119.055 12.2111 118.198 12.8934 117.531 13.7459C116.969 12.8969 116.198 12.2087 115.293 11.7482C114.388 11.2878 113.379 11.0709 112.366 11.1187C111.467 11.0925 110.574 11.2598 109.745 11.6095C108.917 11.9592 108.172 12.4831 107.562 13.1459V11.5141H102.727V28.4914H107.562V18.9369C107.544 18.5182 107.613 18.1003 107.765 17.7101C107.917 17.3199 108.149 16.9661 108.446 16.6714C108.742 16.3768 109.097 16.1479 109.487 15.9994C109.877 15.851 110.294 15.7863 110.71 15.8096C111.111 15.7913 111.51 15.8588 111.883 16.0077C112.255 16.1567 112.592 16.3836 112.871 16.6734C113.149 16.9631 113.363 17.3092 113.498 17.6885C113.634 18.0678 113.687 18.4716 113.655 18.8732V28.4914H118.495V18.9369C118.475 18.5183 118.544 18.1004 118.695 17.71C118.847 17.3197 119.078 16.9657 119.375 16.671C119.671 16.3762 120.026 16.1472 120.416 15.9988C120.805 15.8505 121.222 15.786 121.638 15.8096C122.039 15.7908 122.439 15.8579 122.812 16.0066C123.185 16.1553 123.523 16.3821 123.802 16.6719C124.081 16.9617 124.295 17.3079 124.431 17.6875C124.566 18.067 124.62 18.4713 124.587 18.8732V28.4914H129.423V17.4096C129.479 16.5689 129.355 15.7259 129.061 14.9371C128.766 14.1483 128.307 13.432 127.714 12.8362C127.121 12.2404 126.408 11.7789 125.623 11.4827C124.838 11.1865 123.999 11.0624 123.163 11.1187Z" fill="#A7A6AB"/>
<path d="M142.873 11.1184C141.58 11.0958 140.301 11.4003 139.155 12.0039C138.009 12.6076 137.032 13.4909 136.314 14.5729V11.5093H133.465V34.8093H136.314V25.4274C137.031 26.5115 138.007 27.3971 139.153 28.0024C140.299 28.6077 141.579 28.9133 142.873 28.8911C147.709 28.8911 151.35 25.0638 151.35 20.0047C151.35 14.9456 147.709 11.1184 142.873 11.1184ZM142.344 26.1274C141.137 26.1343 139.955 25.7808 138.948 25.1117C137.941 24.4427 137.154 23.4883 136.688 22.3695C136.221 21.2507 136.096 20.0179 136.327 18.8273C136.559 17.6367 137.137 16.542 137.988 15.682C138.84 14.822 139.926 14.2354 141.109 13.9966C142.293 13.7577 143.52 13.8773 144.636 14.3403C145.752 14.8034 146.706 15.5889 147.377 16.5973C148.048 17.6057 148.406 18.7916 148.405 20.0047C148.429 20.8125 148.289 21.6167 147.993 22.3682C147.697 23.1198 147.252 23.8028 146.685 24.3758C146.118 24.9487 145.44 25.3995 144.694 25.7007C143.948 26.0018 143.148 26.147 142.344 26.1274Z" fill="#A7A6AB"/>
<path d="M167.316 11.5137V21.3682C167.292 22.6323 166.775 23.8363 165.877 24.7215C164.979 25.6068 163.771 26.1027 162.513 26.1027C161.255 26.1027 160.047 25.6068 159.148 24.7215C158.25 23.8363 157.733 22.6323 157.709 21.3682V11.5137H154.859V21.7682C154.859 26.0591 157.908 28.8909 162.513 28.8909C167.117 28.8909 170.162 26.0591 170.162 21.7682V11.5137H167.316Z" fill="#A7A6AB"/>
<path d="M174 5.18555V28.4901H176.85V5.18555H174Z" fill="#A7A6AB"/>
<path d="M187.802 18.6045C185.549 18.0727 183.627 17.6045 183.627 15.9409C183.627 14.4772 185.251 13.7136 187.205 13.7136C188.908 13.6992 190.548 14.357 191.773 15.5454L193.365 13.4454C191.664 11.9157 189.452 11.0849 187.169 11.1181C183.695 11.1181 180.709 12.8136 180.709 16.109C180.709 19.6727 183.989 20.5363 186.771 21.2363C188.991 21.7682 190.878 22.2681 190.878 23.9C190.878 25.4272 189.19 26.2954 186.97 26.2954C185.999 26.3156 185.034 26.137 184.135 25.7705C183.235 25.404 182.419 24.8573 181.736 24.1636L180.148 26.2272C182.001 27.9801 184.462 28.9359 187.006 28.8909C190.814 28.8909 193.827 26.9954 193.827 23.6318C193.827 20.1045 190.584 19.2727 187.802 18.6045Z" fill="#A7A6AB"/>
<path d="M213.999 20.0041C213.986 17.661 213.053 15.4178 211.403 13.7623C209.753 12.1069 207.519 11.1731 205.187 11.1641C202.856 11.1551 200.615 12.0717 198.952 13.7143C197.289 15.357 196.339 17.593 196.309 19.9359C196.309 25.0268 200.253 28.8904 205.55 28.8904C207.039 28.9262 208.517 28.6106 209.863 27.9688C211.21 27.327 212.388 26.377 213.302 25.195L211.348 23.4995C210.681 24.3766 209.817 25.0833 208.826 25.5627C207.836 26.042 206.748 26.2804 205.649 26.2586C204.181 26.3289 202.738 25.8619 201.587 24.9441C200.436 24.0263 199.655 22.7201 199.389 21.2677H213.931C213.963 20.8677 213.999 20.4041 213.999 20.0041ZM199.357 18.6723C199.592 17.2936 200.304 16.0427 201.367 15.1408C202.431 14.2389 203.778 13.7442 205.17 13.7442C206.561 13.7442 207.908 14.2389 208.972 15.1408C210.036 16.0427 210.748 17.2936 210.982 18.6723H199.357Z" fill="#A7A6AB"/>
</g>
<defs>
<clipPath id="clip0_295_30060">
<rect width="214" height="40" fill="white"/>
</clipPath>
</defs>
</svg>
