<svg width="503" height="359" viewBox="0 0 503 359" fill="none" xmlns="http://www.w3.org/2000/svg">
<path d="M219.412 256.252H165.226C154.133 256.252 145.158 265.193 145.158 276.258V337.218C145.158 348.283 154.133 357.229 165.226 357.229H267.454C271.35 357.229 274.421 354.051 274.421 350.283C274.421 346.402 271.35 343.223 267.454 343.223C267.454 343.223 267.454 343.223 267.339 343.223H239.245V276.258C239.36 265.193 230.39 256.252 219.412 256.252Z" fill="#DF2020"/>
<path opacity="0.2" d="M219.412 255.191H165.226C154.133 255.191 145.158 264.133 145.158 275.198V327.687L239.245 304.853V275.198C239.36 264.133 230.39 255.191 219.412 255.191Z" fill="black"/>
<path d="M27.2276 54.2949H290.469C307.705 54.2949 324.232 68.182 327.184 85.4804L359.528 268.132C362.6 285.316 351.028 299.322 333.796 299.322H70.5501C53.314 299.322 36.7872 285.435 33.8354 268.132L1.49089 85.4804C-1.57585 68.182 9.99151 54.2949 27.2276 54.2949Z" fill="#DF2020"/>
<path d="M45.4042 82.0684H282.09C291.299 82.0684 299.915 89.4799 301.568 98.5448L327.185 243.416H57.331L31.7141 98.5448C30.1759 89.4799 36.1992 82.0684 45.4042 82.0684Z" fill="white"/>
<path d="M144.301 299.402H240.074" stroke="black" stroke-width="4" stroke-linecap="round" stroke-linejoin="round"/>
<path d="M159.668 71.4263C158.03 69.9342 157.747 67.6011 159.021 66.2136C160.296 64.8261 162.658 64.9068 164.297 66.4037C165.926 67.8862 166.223 70.2288 164.949 71.6164C163.66 73.0039 161.298 72.9231 159.668 71.4263Z" fill="black"/>
<path d="M158.627 187.711C143.049 185.298 129.454 172.546 126.354 157.381C122.885 140.42 133.973 126.633 151.08 126.633H197.594C214.695 126.633 231.424 140.42 234.888 157.381C238.357 174.337 227.269 188.125 210.167 188.125H181.45L161.856 203.499L158.627 187.711Z" fill="#1A1A1A"/>
<path d="M163.963 161.111C166.306 161.111 167.82 159.22 167.346 156.907C166.871 154.583 164.59 152.697 162.247 152.697C159.904 152.697 158.39 154.583 158.864 156.907C159.339 159.22 161.62 161.111 163.963 161.111Z" fill="white"/>
<path d="M181.354 161.111C183.697 161.111 185.212 159.22 184.737 156.907C184.263 154.583 181.977 152.697 179.634 152.697C177.291 152.697 175.777 154.583 176.251 156.907C176.725 159.22 179.011 161.111 181.354 161.111Z" fill="white"/>
<path d="M198.802 161.111C201.145 161.111 202.659 159.22 202.185 156.907C201.71 154.583 199.424 152.697 197.081 152.697C194.738 152.697 193.224 154.583 193.698 156.907C194.173 159.22 196.458 161.111 198.802 161.111Z" fill="white"/>
<path d="M371.753 339.097C373.493 331.044 374.427 322.887 374.672 314.658H339.05C339.083 317.789 339.121 320.682 338.982 323.262L350.023 347.221L371.753 339.097Z" fill="#CD8460"/>
<path d="M404.457 347.668C404.907 347.806 427.927 339.268 427.927 339.268C428.828 331.111 429.384 322.782 428.588 314.658H392.516C393.038 317.822 393.555 320.787 393.766 323.433C393.766 323.433 403.589 347.426 404.457 347.668Z" fill="#CD8460"/>
<path d="M427.684 305.709C427.373 303.404 427.061 301.233 426.716 299.171C422.931 276.21 417.894 268.565 416.922 249.599C415.882 228.947 421.436 200.721 409.284 168.5H389.182C389.182 168.467 389.149 168.4 389.149 168.367H356.516C356.516 168.367 334.992 221.374 336.726 266.812C337.143 278.001 337.905 289.118 338.428 299.171C338.739 304.986 338.983 310.46 339.05 315.348H374.673C374.778 311.733 374.74 307.913 374.534 303.989C374.462 302.269 374.395 300.649 374.289 299.171C373.144 281.787 371.793 278.205 371.443 262.684C371.304 255.557 374.462 246.435 378.353 236.244C379.809 248.188 381.371 259.41 382.9 267.501C384.946 278.276 387.414 289.223 389.498 299.171C390.711 304.953 391.822 310.426 392.623 315.348H428.623C428.417 312.213 428.139 308.977 427.684 305.709Z" fill="#F4F3EF"/>
<path opacity="0.2" d="M374.322 247.431L378.419 235.9C376.479 222.303 375.573 210.668 374.811 204.439C374.811 204.439 369.219 200.102 371.442 235.796C371.859 247.051 374.322 247.431 374.322 247.431Z" fill="#6E6E6E"/>
<path d="M363.217 339.098C360.438 339.098 357.697 339.891 355.335 341.335L351.449 343.744C350.682 344.191 349.714 343.986 349.259 343.226C349.019 342.851 348.948 342.366 349.086 341.92L352.767 329.871C353.6 327.149 352.038 324.26 349.259 323.434C348.775 323.296 348.286 323.225 347.802 323.225H338.985C338.775 328.185 338.219 332.109 337.107 334.589C333.115 343.502 323.915 343.193 320.791 351.802L321.28 352.728L367.976 352.21L368.287 351.802C369.677 347.635 370.822 343.364 371.756 339.064H363.217V339.098Z" fill="#DF2020"/>
<path d="M334.484 338.895L338.117 342.197" stroke="#B02525" stroke-width="4" stroke-linecap="round" stroke-linejoin="round"/>
<path d="M330.646 342.043L334.643 345.64" stroke="#B02525" stroke-width="4" stroke-linecap="round" stroke-linejoin="round"/>
<path d="M319.754 357.654L365.928 358.001C365.928 358.001 366.934 355.796 368.29 351.805H320.794C320.137 353.696 319.787 355.658 319.754 357.654Z" fill="#1A1A1A"/>
<path opacity="0.2" d="M416.26 197.79C415.182 188.497 413.136 178.686 409.279 168.467H393.83C393.83 168.5 405.46 184.021 416.26 197.79Z" fill="#6E6E6E"/>
<path d="M427.929 339.269H418.417C415.638 339.269 412.897 340.063 410.535 341.507L406.649 343.916C405.882 344.367 404.909 344.158 404.459 343.403C404.219 343.023 404.147 342.543 404.286 342.092L407.966 330.043C408.8 327.321 407.238 324.432 404.459 323.606C403.975 323.468 403.486 323.396 402.969 323.396H393.802C394.286 328.803 394.147 333.041 392.968 335.621C388.977 344.538 381.511 343.194 378.387 351.803V351.869L425.95 352.007C426.578 348.876 427.373 344.367 427.929 339.269Z" fill="#DF2020"/>
<path d="M378.385 351.805C377.724 353.696 377.379 355.658 377.346 357.654L424.559 358.001C424.559 358.001 425.187 355.73 425.982 351.805H378.385Z" fill="#1A1A1A"/>
<path d="M374.781 204.057C375.821 214.452 377.038 225.503 378.356 236.278" stroke="#5A5A5A" stroke-width="4" stroke-linecap="round" stroke-linejoin="round"/>
<path d="M391.271 338.861L395.057 342.197" stroke="#B02525" stroke-width="4" stroke-linecap="round" stroke-linejoin="round"/>
<path d="M387.873 342.189L391.577 345.639" stroke="#B02525" stroke-width="4" stroke-linecap="round" stroke-linejoin="round"/>
<path d="M376.753 115.214C386.193 116.35 398.206 109.432 402.096 99.6881C399.212 98.6239 396.227 97.8638 393.208 97.4552C394.458 91.5307 396.677 78.247 397.41 74.4604C398.45 68.9493 398.517 59.8274 392.441 54.8389C386.37 49.8456 378.732 47.4701 370.744 50.5677C363.211 53.4943 361.338 57.6942 358.247 66.8161C358.247 66.8161 354.773 67.1629 354.428 68.5407C354.044 70.0183 356.162 72.6693 356.162 72.6693C353.733 80.2424 353.733 84.0289 356.335 87.6444C359.081 91.4642 365.885 91.602 368.659 90.9131L367.342 97.4552L357.864 97.9683C361.093 107.746 368.487 114.25 376.753 115.214Z" fill="#CD8460"/>
<path d="M372.339 48.3707C365.813 41.6908 354.183 45.7862 357.202 54.4282C360.331 63.3743 373.173 63.0322 372.895 63.4693L372.1 68.8855C371.405 72.7385 367.691 75.323 363.801 74.6341C363.628 74.5961 363.417 74.5629 363.245 74.5296L356.162 72.672C353.733 80.2451 353.733 84.616 356.335 88.2315C359.081 92.0512 365.885 92.189 368.659 91.5001L369.982 91.1533C373.001 90.3266 375.258 87.8514 375.814 84.787L377.342 75.4228C377.342 75.4228 385.325 66.8188 390.184 71.9831C394.976 77.0762 384.98 85.7514 385.191 85.8417C388.799 89.88 394.458 91.5001 394.458 91.5001C395.81 84.958 397.477 76.6628 398 73.874C399.039 68.3676 400.951 57.5259 394.875 52.5326C389.216 47.8861 380.049 46.0617 372.339 48.3707Z" fill="#231F20"/>
<path d="M382.205 79.5568L384.984 76.8008" stroke="black" stroke-width="4" stroke-linecap="round" stroke-linejoin="round"/>
<path d="M363.975 68.1257C364.608 68.1257 365.121 67.6173 365.121 66.9853C365.121 66.3628 364.608 65.8496 363.975 65.8496C363.343 65.8496 362.83 66.3628 362.83 66.9853C362.83 67.6173 363.343 68.1257 363.975 68.1257Z" fill="#231F20"/>
<path d="M358.248 78.5214C359.393 78.7637 360.61 78.3836 361.372 77.4902" stroke="black" stroke-width="4" stroke-linecap="round" stroke-linejoin="round"/>
<path d="M356.517 168.367C356.517 168.367 355.055 171.945 352.938 178.002H368.664V168.367H356.517Z" fill="#DF2020"/>
<path d="M412.407 178.002C411.54 174.871 410.5 171.702 409.283 168.5H389.181C389.181 168.467 389.148 168.434 389.148 168.367H381.51V178.002H412.407Z" fill="#DF2020"/>
<path d="M368.562 168.363L381.582 168.33L381.615 177.998H368.562V168.363Z" fill="white"/>
<path d="M432.268 133.352C432.268 133.352 422.478 114.662 412.061 105.369C409.076 102.718 405.396 100.893 402.099 99.6867C395.812 108.709 386.684 114.011 377.206 112.871C368.94 111.873 362.102 106.196 357.866 97.9336L334.674 99.1403L329.781 99.4159L333.389 131.908C334.851 132.046 336.308 132.15 337.731 132.25C346.131 132.801 353.007 132.768 354.464 132.906L350.578 168.98L415.914 168.704L405.846 150.118L432.268 133.352Z" fill="#1A1A1A"/>
<path opacity="0.2" d="M345.711 132.632C350.119 132.77 353.454 132.841 354.427 132.907L355.05 125.229L345.711 132.632Z" fill="black"/>
<path opacity="0.2" d="M405.603 168.672L415.292 168.468L400.5 140.275L405.603 168.672Z" fill="black"/>
<path d="M354.432 132.911L355.126 124.307" stroke="black" stroke-width="4" stroke-linecap="round" stroke-linejoin="round"/>
<path d="M432.199 133.254C432.199 133.254 442.267 151.156 438.448 162.515C434.629 173.875 416.578 185.923 408.94 191.43C408.94 191.43 407.9 196.247 404.426 203.478C404.426 203.478 406.856 218.277 404.426 219.655C402.241 220.895 399.567 210.015 399.629 211.408C399.39 212.928 399.217 226.881 393.664 224.131C393.664 224.131 391.234 227.228 388.805 224.473C388.805 224.473 386.375 225.851 385.331 221.375C384.43 217.555 383.941 207.954 384.986 200.381C385.853 194.219 389.95 183.201 396.443 175.253C402.342 168.022 410.33 159.071 410.33 159.071L405.782 150.053L432.199 133.254Z" fill="#CD8460"/>
<path d="M410.328 159.071L413.797 154.941" stroke="black" stroke-width="2" stroke-linecap="round" stroke-linejoin="round"/>
<path d="M388.801 224.47C388.801 224.47 388.11 215.177 388.801 206.227" stroke="black" stroke-width="2" stroke-linecap="round" stroke-linejoin="round"/>
<path d="M393.662 224.128C393.662 224.128 393.662 215.524 394.357 206.227" stroke="black" stroke-width="2" stroke-linecap="round" stroke-linejoin="round"/>
<path d="M399.283 205.127L399.688 211.428" stroke="black" stroke-width="2" stroke-linecap="round" stroke-linejoin="round"/>
<path d="M321.796 99.8621C321.796 99.8621 318.499 82.7539 313.813 65.7834C307.943 44.4752 300.41 23.1338 295.757 24.4783C293.539 25.1292 295.062 31.3625 297.842 40.6554C295.062 38.9356 291.938 40.3086 291.938 43.4062C288.119 42.0332 287.079 45.4729 287.079 47.1928C283.955 47.8817 283.955 52.3571 283.955 55.1127C283.955 57.5214 285.345 59.2413 287.424 59.2413C287.635 63.4744 287.774 67.5032 291.243 70.2588C290.204 109.155 299.476 120.652 305.135 124.643C311.45 129.014 323.219 130.976 333.742 131.907L330.129 99.4156L321.796 99.8621Z" fill="#CD8460"/>
<path d="M321.799 99.8633L322.843 104.686" stroke="black" stroke-width="2" stroke-linecap="round" stroke-linejoin="round"/>
<path d="M287.082 47.1992C287.777 51.3326 288.75 55.1191 291.596 55.4612C294.375 55.8033 294.72 51.6746 294.72 51.6746" stroke="black" stroke-width="2" stroke-linecap="round" stroke-linejoin="round"/>
<path d="M287.422 59.2465C288.811 58.5575 289.856 57.1795 289.856 55.1172" stroke="black" stroke-width="2" stroke-linecap="round" stroke-linejoin="round"/>
<path d="M310.064 53.2546C307.011 50.8792 299.234 47.1924 295.415 46.8503C291.246 46.4702 295.066 53.7345 299.579 55.8012C297.639 59.621 297.045 63.9919 297.845 68.1917" stroke="black" stroke-width="2" stroke-linecap="round" stroke-linejoin="round"/>
<path d="M291.939 43.4102C291.939 44.7882 292.289 46.8552 293.329 47.8863" stroke="black" stroke-width="2" stroke-linecap="round" stroke-linejoin="round"/>
<path d="M297.838 40.6602C298.149 41.7246 298.705 42.4848 299.089 43.3069" stroke="black" stroke-width="2" stroke-linecap="round" stroke-linejoin="round"/>
<path d="M399.117 137.039L405.711 149.914" stroke="black" stroke-width="2" stroke-linecap="round" stroke-linejoin="round"/>
<path d="M464.558 74.2672C444.461 74.2672 428.111 58.0616 428.111 38.136C428.111 18.2103 444.461 2 464.558 2C484.654 2 500.999 18.2103 500.999 38.136C500.999 58.0616 484.654 74.2672 464.558 74.2672Z" fill="#DF2020" stroke="#DA1F1F" stroke-width="4"/>
<path d="M452.279 37.6005L462.519 47.7534L476.832 28.5879" stroke="white" stroke-width="4" stroke-linecap="round" stroke-linejoin="round"/>
</svg>
