<svg width="576" height="430" viewBox="0 0 576 430" fill="none" xmlns="http://www.w3.org/2000/svg">
<path d="M544.896 362.668L523.506 360.181L526.623 341.582C526.708 341.152 526.452 340.766 526.068 340.637C525.683 340.508 525.256 340.68 525.043 341.024L516.504 356.315L502.287 340.809C501.988 340.508 501.518 340.422 501.176 340.68C500.835 340.938 500.707 341.367 500.878 341.754L509.801 360.563L494.644 364C494.26 364.086 493.961 364.429 493.961 364.859C493.961 365.288 494.26 365.632 494.644 365.675L510.057 368.467L503.866 392.006C503.738 392.435 503.952 392.865 504.379 393.037C504.464 393.079 504.592 393.122 504.72 393.122C505.019 393.122 505.318 392.951 505.446 392.693L517.102 372.462L527.562 383.887C527.818 384.188 528.288 384.274 528.629 384.059C528.971 383.844 529.142 383.415 528.971 383.028L523.719 368.252L544.896 364.343C545.323 364.257 545.622 363.914 545.579 363.484C545.537 363.055 545.323 362.711 544.896 362.668Z" fill="#FF4F32"/>
<path d="M434.977 29.5973C438.35 29.5973 441.083 26.8483 441.083 23.4549C441.083 20.0615 438.35 17.3125 434.977 17.3125C431.604 17.3125 428.871 20.0615 428.871 23.4549C428.871 26.8483 431.604 29.5973 434.977 29.5973Z" fill="black"/>
<path d="M457.117 274.692C469.798 283.927 498.403 273.06 516.079 262.408C535.719 250.552 536.616 237.795 528.76 237.795C517.83 237.795 490.761 271.643 506.473 279.074C519.452 285.259 543.148 274.263 549.253 281.264C555.359 288.266 558.006 303.686 574.999 311.59" stroke="black" stroke-width="2" stroke-linecap="round" stroke-linejoin="round"/>
<path d="M85.6348 375.847C89.503 375.847 92.6368 372.694 92.6368 368.802C92.6368 364.911 89.503 361.758 85.6348 361.758C81.7666 361.758 78.6328 364.911 78.6328 368.802C78.6328 372.694 81.7666 375.847 85.6348 375.847Z" fill="#DF2020"/>
<path d="M447.439 410.981C451.658 410.981 455.082 407.54 455.082 403.292C455.082 399.044 451.658 395.604 447.439 395.604C443.217 395.604 439.797 399.044 439.797 403.292C439.797 407.54 443.217 410.981 447.439 410.981Z" fill="#F3F2EA"/>
<path d="M25.4249 151.283C29.8822 151.283 33.4943 147.65 33.4943 143.165C33.4943 138.681 29.8822 135.047 25.4249 135.047C20.9675 135.047 17.3555 138.681 17.3555 143.165C17.3555 147.65 20.9675 151.283 25.4249 151.283Z" fill="#F3F2EA"/>
<path d="M62.0732 206.877C66.7568 203.48 67.8199 196.903 64.4427 192.191C61.0613 187.475 54.5247 186.406 49.841 189.808C45.1531 193.205 44.0942 199.781 47.4714 204.498C50.8486 209.21 57.3852 210.279 62.0732 206.877Z" fill="white"/>
<path d="M1 297.716C17.8646 282.768 49.1175 262.58 75.2897 279.718C75.2897 279.718 49.5445 245.871 62.6519 230.064C79.7727 209.36 130.153 265.629 122.596 275.294C114.825 285.174 97.4485 240.974 106.543 216.404C113.715 197.075 147.957 226.069 153.465 243.208" stroke="black" stroke-width="2" stroke-linecap="round" stroke-linejoin="round"/>
<path d="M461.145 69.3711H425.324C425.324 69.3711 421.183 90.6763 433.65 101.973H469.471C457.004 90.6763 461.145 69.3711 461.145 69.3711Z" fill="white"/>
<path d="M410.93 50.9434H375.109C375.109 50.9434 370.968 72.2485 383.435 83.5454H419.256C406.746 72.2485 410.93 50.9434 410.93 50.9434Z" fill="white"/>
<path d="M322.581 0H359.513C368.009 0 374.883 6.91559 374.883 15.4634V16.1507C374.883 24.6985 368.009 31.6141 359.513 31.6141H322.581C314.085 31.6141 307.211 24.6985 307.211 16.1507V15.4634C307.211 6.91559 314.085 0 322.581 0Z" fill="#FF4F32"/>
<path d="M329.33 17.8679C331.854 17.8679 333.899 15.8104 333.899 13.2719C333.899 10.7333 331.854 8.67578 329.33 8.67578C326.807 8.67578 324.762 10.7333 324.762 13.2719C324.762 15.8104 326.807 17.8679 329.33 17.8679Z" stroke="black" stroke-width="2" stroke-linecap="round" stroke-linejoin="round"/>
<path d="M333.004 16.0645L327.496 22.98" stroke="black" stroke-width="2" stroke-linecap="round" stroke-linejoin="round"/>
<path d="M343.545 17.8679C346.069 17.8679 348.114 15.8104 348.114 13.2719C348.114 10.7333 346.069 8.67578 343.545 8.67578C341.022 8.67578 338.977 10.7333 338.977 13.2719C338.977 15.8104 341.022 17.8679 343.545 17.8679Z" stroke="black" stroke-width="2" stroke-linecap="round" stroke-linejoin="round"/>
<path d="M347.215 16.0645L341.707 22.98" stroke="black" stroke-width="2" stroke-linecap="round" stroke-linejoin="round"/>
<path d="M355.926 12.584V19.07" stroke="black" stroke-width="2" stroke-linecap="round" stroke-linejoin="round"/>
<path d="M359.127 15.8516H352.723" stroke="black" stroke-width="2" stroke-linecap="round" stroke-linejoin="round"/>
<path d="M410.335 157.083H351.415C348.171 157.083 345.523 154.42 345.523 151.155V109.447C345.523 106.183 348.171 103.52 351.415 103.52H367.341C369.433 103.52 371.354 104.636 372.421 106.44L374.257 109.576C375.325 111.38 377.246 112.497 379.338 112.497H410.377C413.622 112.497 416.269 115.16 416.269 118.425V151.155C416.269 154.42 413.622 157.083 410.335 157.083C410.377 157.083 410.377 157.083 410.335 157.083Z" fill="#F3F2EA"/>
<path d="M164.798 255.92H265.986C273.244 255.92 279.179 261.848 279.179 269.193V370.994C279.179 378.296 273.287 384.266 265.986 384.266H164.798C157.54 384.266 151.605 378.339 151.605 370.994V269.193C151.605 261.848 157.497 255.92 164.798 255.92Z" fill="#F3F2EA"/>
<path d="M168.215 359.613H262.529" stroke="black" stroke-width="4" stroke-linecap="round" stroke-linejoin="round"/>
<path d="M168.215 359.609V284.053" stroke="black" stroke-width="4" stroke-linecap="round" stroke-linejoin="round"/>
<path d="M163.863 317.858C180.472 317.858 179.148 340.71 190.932 340.71C208.394 340.71 211.468 291.957 231.108 291.957C250.748 291.957 248.144 319.619 261.678 319.619" stroke="#DF2020" stroke-width="2" stroke-linecap="round" stroke-linejoin="round"/>
<path d="M214.924 312.62C218.792 312.62 221.926 309.467 221.926 305.576C221.926 301.684 218.792 298.531 214.924 298.531C211.056 298.531 207.922 301.684 207.922 305.576C207.922 309.467 211.056 312.62 214.924 312.62Z" fill="black"/>
<path d="M185.676 359.182V355.23" stroke="black" stroke-width="4" stroke-linecap="round" stroke-linejoin="round"/>
<path d="M203.137 359.182V355.23" stroke="black" stroke-width="4" stroke-linecap="round" stroke-linejoin="round"/>
<path d="M220.598 359.182V355.23" stroke="black" stroke-width="4" stroke-linecap="round" stroke-linejoin="round"/>
<path d="M238.066 359.182V355.23" stroke="black" stroke-width="4" stroke-linecap="round" stroke-linejoin="round"/>
<path d="M255.57 359.182V355.23" stroke="black" stroke-width="4" stroke-linecap="round" stroke-linejoin="round"/>
<path d="M97.3494 189.481C93.5581 189.472 89.9247 187.956 87.2434 185.258C84.5622 182.561 83.0508 178.905 83.0508 175.091V38.7294C83.0508 34.9151 84.5622 31.2597 87.2434 28.5622C89.9247 25.8647 93.5581 24.3441 97.3494 24.3398H273.202C276.994 24.3441 280.627 25.8647 283.308 28.5622C285.99 31.2597 287.497 34.9151 287.501 38.7294V175.091C287.497 178.905 285.99 182.561 283.308 185.258C280.627 187.956 276.994 189.472 273.202 189.481H97.3494Z" fill="white"/>
<path d="M83.0586 55.25H288.132" stroke="white" stroke-width="4"/>
<path d="M98.0999 44.9502C101.102 44.9502 103.54 42.5018 103.54 39.4821C103.54 36.4581 101.102 34.0098 98.0999 34.0098C95.0939 34.0098 92.6602 36.4581 92.6602 39.4821C92.6602 42.5018 95.0939 44.9502 98.0999 44.9502Z" fill="white"/>
<path d="M114.576 44.9502C117.582 44.9502 120.016 42.5018 120.016 39.4821C120.016 36.4581 117.582 34.0098 114.576 34.0098C111.575 34.0098 109.137 36.4581 109.137 39.4821C109.137 42.5018 111.575 44.9502 114.576 44.9502Z" fill="white"/>
<path d="M131.061 44.9502C134.067 44.9502 136.501 42.5018 136.501 39.4821C136.501 36.4581 134.067 34.0098 131.061 34.0098C128.059 34.0098 125.621 36.4581 125.621 39.4821C125.621 42.5018 128.059 44.9502 131.061 44.9502Z" fill="white"/>
<path d="M139.792 96.9707H117.672V166.234H139.792V96.9707Z" fill="#F3F2EA"/>
<path d="M219.812 86.8438H197.691V166.236H219.812V86.8438Z" fill="white"/>
<path d="M179.773 72.2129H157.652V166.235H179.773V72.2129Z" fill="#DF2020"/>
<path d="M259.784 126.23H237.664V166.234H259.784V126.23Z" fill="#DF2020"/>
<path d="M106.609 166.236H270.854" stroke="black" stroke-width="4" stroke-linecap="round" stroke-linejoin="round"/>
<path d="M94.5741 94.6365L66.6514 88.4511L75.1051 69.4225C75.2759 69.0359 75.1478 68.6064 74.8062 68.3486C74.4647 68.1339 73.995 68.1768 73.6962 68.4345L58.8382 83.5543L44.4926 65.9862C44.2365 65.6425 43.7668 65.5566 43.4252 65.7714C43.0837 65.9862 42.9129 66.4157 43.041 66.8023L50.598 87.6779H28.8235C28.3965 87.6779 28.055 87.9786 27.9696 88.4081C27.8842 88.8377 28.1404 89.2243 28.5246 89.3531L50.47 96.956L42.0163 117.402C41.8455 117.789 42.0163 118.218 42.3579 118.476C42.6994 118.691 43.1691 118.648 43.4679 118.347L58.2832 101.939L76.7275 123.544C76.8983 123.759 77.1545 123.845 77.3679 123.845C77.5387 123.845 77.7095 123.802 77.8376 123.716C78.1791 123.502 78.3072 123.029 78.1365 122.642L66.5233 97.7291L94.446 96.3117C94.873 96.3117 95.2145 95.968 95.2572 95.5385C95.2999 95.1519 95.0011 94.7653 94.5741 94.6365Z" fill="white"/>
<path d="M380.326 195.699H476.006C480.916 195.699 484.929 199.737 484.929 204.677V315.025C484.929 319.965 480.916 324.003 476.006 324.003H380.326C375.416 324.003 371.402 319.965 371.402 315.025V204.677C371.402 199.694 375.416 195.699 380.326 195.699Z" fill="white"/>
<path d="M391.766 224.05L395.694 228.002L402.056 221.645" stroke="black" stroke-width="2" stroke-linecap="round" stroke-linejoin="round"/>
<path d="M399.418 262.586C401.395 261.207 401.886 258.48 400.52 256.491C399.149 254.498 396.438 254.004 394.461 255.383C392.48 256.757 391.989 259.489 393.355 261.478C394.726 263.467 397.441 263.965 399.418 262.586Z" stroke="black" stroke-width="2" stroke-linecap="round" stroke-linejoin="round"/>
<path d="M399.412 296.694C401.389 295.315 401.885 292.588 400.514 290.599C399.148 288.61 396.432 288.112 394.455 289.491C392.478 290.865 391.983 293.597 393.353 295.586C394.724 297.575 397.435 298.073 399.412 296.694Z" stroke="black" stroke-width="2" stroke-linecap="round" stroke-linejoin="round"/>
<path d="M414.395 225.641H454.101" stroke="#DF2020" stroke-width="2" stroke-linecap="round" stroke-linejoin="round"/>
<path d="M414.395 259.014H454.101" stroke="#DF2020" stroke-width="2" stroke-linecap="round" stroke-linejoin="round"/>
<path d="M414.395 292.818H454.101" stroke="#DF2020" stroke-width="2" stroke-linecap="round" stroke-linejoin="round"/>
<path d="M515.113 303.813C517.825 303.813 520.024 301.601 520.024 298.873C520.024 296.146 517.825 293.934 515.113 293.934C512.402 293.934 510.203 296.146 510.203 298.873C510.203 301.601 512.402 303.813 515.113 303.813Z" fill="#DF2020"/>
<path opacity="0.2" d="M473.89 232.398C500.911 232.398 522.818 210.358 522.818 183.173C522.818 155.987 500.911 133.947 473.89 133.947C446.868 133.947 424.961 155.987 424.961 183.173C424.961 210.358 446.868 232.398 473.89 232.398Z" fill="#DF2020"/>
<path d="M486.23 201.086H492.251" stroke="#23211F" stroke-width="4" stroke-linecap="round" stroke-linejoin="round"/>
<path d="M473.89 221.23C500.911 221.23 522.818 199.19 522.818 172.005C522.818 144.819 500.911 122.779 473.89 122.779C446.868 122.779 424.961 144.819 424.961 172.005C424.961 199.19 446.868 221.23 473.89 221.23Z" fill="black"/>
<path d="M492.723 201.557V196.875L465.184 196.832V201.987H456.005C449.046 201.987 443.453 206.11 440.934 208.344C460.872 226.685 491.784 225.268 510.014 205.208C510.271 204.907 510.57 204.607 510.826 204.306C508.179 202.545 505.062 201.6 501.86 201.514L492.723 201.557Z" fill="#F3F2EA"/>
<path d="M450.999 174.453C451.981 169.47 451.938 163.328 452.792 157.787C453.39 154.007 454.372 150.527 456.421 147.95C461.459 141.636 474.994 139.188 485.838 147.177C496.683 155.166 496.128 166.42 495.701 171.489L492.67 188.542L492.712 197.004H465.174L465.131 192.408C465.131 192.408 459.111 193.696 455.567 191.248C450.786 187.94 449.334 182.829 450.999 174.453Z" fill="#AC704E"/>
<path d="M456.426 147.952C461.464 141.638 475.81 137.686 486.654 145.676C497.499 153.665 496.133 166.422 495.706 171.491L492.674 188.544C492.674 188.544 484.519 185.967 481.061 179.438C481.061 179.438 492.888 174.111 487.508 166.465C482.342 159.12 473.333 168.184 473.333 168.184C468.167 166.465 463.001 159.077 463.001 159.077C455.273 159.507 452.797 157.746 452.797 157.746C453.395 154.009 454.377 150.53 456.426 147.952Z" fill="#221F1F"/>
<path d="M464.285 171.833C465.015 171.833 465.608 171.236 465.608 170.501C465.608 169.767 465.015 169.17 464.285 169.17C463.554 169.17 462.961 169.767 462.961 170.501C462.961 171.236 463.554 171.833 464.285 171.833Z" fill="black"/>
<path d="M454.843 170.933C455.573 170.933 456.167 170.336 456.167 169.601C456.167 168.867 455.573 168.27 454.843 168.27C454.109 168.27 453.52 168.867 453.52 169.601C453.52 170.336 454.109 170.933 454.843 170.933Z" fill="black"/>
<path d="M457.706 174.023C457.493 174.754 457.364 175.398 457.493 175.656C457.706 176.042 458.048 176.386 458.432 176.601" stroke="#23211F" stroke-width="2" stroke-linecap="round" stroke-linejoin="round"/>
<path d="M462.106 180.338C461.294 181.111 460.141 181.455 459.031 181.197" stroke="#23211F" stroke-width="2" stroke-linecap="round" stroke-linejoin="round"/>
<path d="M470.392 191.33C468.855 192.017 466.763 191.888 465.141 192.404" stroke="#23211F" stroke-width="2" stroke-linecap="round" stroke-linejoin="round"/>
<path d="M481.063 171.23L478.074 173.378" stroke="#23211F" stroke-width="2" stroke-linecap="round" stroke-linejoin="round"/>
<path d="M522.526 110.002H500.004C491.725 110.002 484.992 116.776 484.992 125.109C484.992 132.523 490.346 138.824 497.617 140.01V147.763L508.624 140.211H522.526C530.804 140.211 537.537 133.438 537.537 125.109C537.537 116.741 530.804 110.002 522.526 110.002Z" fill="#DF2020"/>
<path d="M502.839 126.937C503.97 126.937 504.893 126.013 504.893 124.871C504.893 123.732 503.97 122.805 502.839 122.805C501.703 122.805 500.785 123.732 500.785 124.871C500.785 126.013 501.703 126.937 502.839 126.937Z" fill="black"/>
<path d="M511.249 126.937C512.381 126.937 513.303 126.013 513.303 124.871C513.303 123.732 512.381 122.805 511.249 122.805C510.113 122.805 509.195 123.732 509.195 124.871C509.195 126.013 510.113 126.937 511.249 126.937Z" fill="black"/>
<path d="M519.698 126.937C520.83 126.937 521.752 126.013 521.752 124.871C521.752 123.732 520.83 122.805 519.698 122.805C518.563 122.805 517.645 123.732 517.645 124.871C517.645 126.013 518.563 126.937 519.698 126.937Z" fill="black"/>
<path d="M130.371 349.508H169.565C175.145 349.508 179.662 354.052 179.662 359.666V380.826C179.662 386.44 175.145 390.984 169.565 390.984H130.371C124.791 390.984 120.273 386.44 120.273 380.826V359.666C120.273 354.052 124.791 349.508 130.371 349.508Z" fill="#DF2020"/>
<path opacity="0.2" d="M149.95 379.557L176.502 352.299H123.402L149.95 379.557Z" fill="#454545"/>
<path d="M149.955 373.652L176.49 352.321C174.731 350.577 172.28 349.508 169.569 349.508H130.375C127.664 349.508 125.213 350.577 123.441 352.3L149.955 373.652Z" fill="#DF2020"/>
<path d="M176.374 352.395L149.955 373.622L123.492 352.352" stroke="#454545" stroke-width="2" stroke-linecap="round" stroke-linejoin="round"/>
<path d="M155.5 369.762L177.048 387.124" stroke="#454545" stroke-width="2" stroke-linecap="round" stroke-linejoin="round"/>
<path d="M122.719 387.022L144.335 369.66" stroke="#454545" stroke-width="2" stroke-linecap="round" stroke-linejoin="round"/>
<path d="M160.359 273.057C175.921 273.057 188.537 260.364 188.537 244.707C188.537 229.05 175.921 216.357 160.359 216.357C144.796 216.357 132.18 229.05 132.18 244.707C132.18 260.364 144.796 273.057 160.359 273.057Z" fill="#FF4F32"/>
<path d="M168.039 252.439C175.254 245.18 177.645 235.816 173.376 231.52C172.735 230.876 171.967 230.36 171.156 230.017C170.43 229.716 169.661 229.544 168.893 229.458C168.252 229.373 167.612 229.716 167.356 230.275L163.94 236.932C163.556 237.706 163.855 238.608 164.581 238.994C164.623 239.037 164.666 239.037 164.709 239.037L166.587 239.81C167.356 240.111 167.697 240.97 167.398 241.7C167.356 241.786 167.313 241.872 167.27 241.915C164.837 245.824 161.549 249.131 157.664 251.623C156.981 252.052 156.084 251.837 155.657 251.15C155.615 251.064 155.572 250.978 155.529 250.935L154.761 249.002C154.462 248.229 153.565 247.843 152.797 248.143L152.669 248.186L146.051 251.623C145.496 251.88 145.154 252.482 145.24 253.126C145.325 253.942 145.496 254.715 145.795 255.489C146.136 256.348 146.649 257.078 147.289 257.722C151.516 262.103 160.823 259.698 168.039 252.439Z" fill="black"/>
<path d="M285.708 65.6116C278.535 61.6168 271.618 59.8987 267.007 61.7457C256.333 65.5686 251.509 83.6522 251.338 84.3825C251.338 84.3825 247.41 84.3395 246.855 85.9288C246.215 87.9047 249.075 90.8256 249.075 90.8256C247.538 95.2928 245.83 101.349 248.35 106.59C250.74 111.529 257.017 114.107 264.873 112.818L264.616 115.739L295.186 120.378C295.57 119.089 297.833 95.8082 298.26 91.384C299.114 82.02 297.193 71.9688 285.708 65.6116Z" fill="#AC704E"/>
<path opacity="0.2" d="M264.918 112.859C264.918 112.859 269.615 111.742 272.475 110.324L264.277 119.731L264.918 112.859Z" fill="#DF2020"/>
<path d="M369.261 406.236L400.215 392.147L398.588 383.457C398.294 381.666 397.824 379.948 397.354 378.316C397.013 377.156 396.671 375.953 396.287 374.75C394.835 369.94 393.085 364.57 390.95 358.643C388.773 352.543 386.51 347.045 384.204 341.977L342.32 356.839C348.084 365.644 353.635 374.622 357.093 381.709C358.032 383.513 358.801 385.489 359.484 387.422L369.261 406.236Z" fill="#AC704E"/>
<path d="M385.875 388.924C380.239 391.329 378.532 400.693 374.945 401.252C371.401 401.81 374.689 392.79 372.469 387.506C370.505 382.867 365.979 384.543 359.361 387.378C359.788 388.58 360.13 389.783 360.429 390.986C361.069 393.778 361.155 396.183 360.514 398.073C357.141 407.952 348.303 413.15 348.09 422.557L348.133 422.815L402.355 399.619V399.576C401.331 394.207 400.093 388.709 398.641 383.34L385.875 388.924Z" fill="white"/>
<path d="M367.254 398.636L360.734 398.021" stroke="#FF4F32" stroke-width="4" stroke-linecap="round" stroke-linejoin="round"/>
<path d="M365.551 405.59L358.297 403.283" stroke="#FF4F32" stroke-width="4" stroke-linecap="round" stroke-linejoin="round"/>
<path d="M245.88 106.417C242.336 104.828 238.963 111.013 235.846 114.321C234.395 115.867 232.644 116.64 231.918 115.18C228.844 109.037 243.275 107.276 244.599 104.656C245.922 102.036 243.745 100.275 238.494 101.134C230.638 98.943 223.337 102.508 220.135 107.706C216.634 113.419 216.932 115.223 210.101 127.464C208.863 129.698 207.582 132.104 206.387 134.509L226.582 147.352L237.64 128.366C237.597 128.366 249.808 108.178 245.88 106.417Z" fill="#AC704E"/>
<path d="M315.724 138.933C310.045 128.624 300.439 122.654 295.187 120.463C295.315 120.076 295.571 117.972 295.87 115.051L264.617 115.18L264.148 119.948C264.148 119.948 255.908 120.119 250.186 121.709C245.405 123.04 241.904 124.415 237.506 128.367L224.398 144.131L206.552 133.951C197.927 151.218 191.31 172.523 203.862 182.789C220.471 196.406 246.216 171.406 246.216 171.406L255.054 200.443L303.128 201.216L311.753 208.218C311.753 208.218 318.584 207.574 322.597 205.211C341.426 194.387 322.299 150.788 315.724 138.933Z" fill="white"/>
<path d="M335.364 138.459C331.863 111.226 304.368 112.085 300.44 91.8971C298.091 79.8271 298.39 70.2054 286.905 63.8052C279.733 59.8105 271.62 59.8964 267.009 61.7434C261.245 63.8052 257.318 69.4751 255.055 74.3719L261.288 79.913C261.288 79.913 271.377 74.2903 271.194 74.7155C266.839 80.4284 264.789 83.3063 264.789 83.3063L271.535 89.8353C271.535 89.8353 284.6 82.7909 287.29 91.2099C289.979 99.6288 276.829 105.514 276.829 105.514C274.225 130.083 285.155 138.502 285.155 138.502H294.932C294.932 138.502 291.875 125.5 292.584 126.217C296.512 131.501 303.3 138.502 303.3 138.502L335.364 138.459Z" fill="#221F1F"/>
<path d="M303.082 200.401L309.145 163.504" stroke="#9F9F9F" stroke-width="2" stroke-linecap="round" stroke-linejoin="round"/>
<path d="M306.117 185.451L312.223 188.071" stroke="#9F9F9F" stroke-width="2" stroke-linecap="round" stroke-linejoin="round"/>
<path d="M246.559 171.107L255.909 163.289" stroke="#9F9F9F" stroke-width="2" stroke-linecap="round" stroke-linejoin="round"/>
<path d="M227.082 105.945C230.105 103.63 234.482 101.843 238.414 101.16" stroke="#23211F" stroke-width="2" stroke-linecap="round" stroke-linejoin="round"/>
<path d="M253.219 94.7324L256.805 94.5605" stroke="#23211F" stroke-width="2" stroke-linecap="round" stroke-linejoin="round"/>
<path d="M265.172 112.775C266.922 112.13 268.63 111.486 270.338 110.842" stroke="#23211F" stroke-width="2" stroke-linecap="round" stroke-linejoin="round"/>
<path d="M264.621 119.988H268.507" stroke="#9F9F9F" stroke-width="2" stroke-linecap="round" stroke-linejoin="round"/>
<path d="M275.5 96.6224L279.343 94.7324" stroke="#23211F" stroke-width="2" stroke-linecap="round" stroke-linejoin="round"/>
<path d="M257.874 87.2158C258.63 87.2158 259.241 86.6016 259.241 85.8413C259.241 85.081 258.63 84.4668 257.874 84.4668C257.118 84.4668 256.508 85.081 256.508 85.8413C256.508 86.6016 257.118 87.2158 257.874 87.2158Z" fill="#221F1F"/>
<path d="M299.372 70.3784C305.999 70.3784 311.37 64.9748 311.37 58.3083C311.37 51.6419 305.999 46.2383 299.372 46.2383C292.746 46.2383 287.375 51.6419 287.375 58.3083C287.375 64.9748 292.746 70.3784 299.372 70.3784Z" fill="#221F1F"/>
<path d="M276.828 53.2402L305.69 80.0435" stroke="#FF4F32" stroke-width="4" stroke-linecap="round" stroke-linejoin="round"/>
<path opacity="0.2" d="M388.437 352.114C387.028 348.549 385.577 345.155 384.125 341.977L342.668 357.44L388.437 352.114Z" fill="#23211F"/>
<path d="M303.302 399.148C303.9 393.736 304.412 387.507 304.796 380.506C305.138 374.578 305.223 368.994 305.052 363.84L261.418 363.797C263.254 374.106 264.62 383.77 264.706 391.287C264.706 392.791 264.705 394.165 264.62 395.54L267.822 413.666L274.739 419.079L299.587 416.244L302.235 407.352C302.491 405.505 302.747 403.658 302.96 401.811C303.131 400.909 303.259 400.05 303.302 399.148Z" fill="#AC704E"/>
<path d="M274.184 414.355C270.683 413.496 277.258 406.451 277.258 400.738C277.258 395.541 272.22 395.455 264.663 395.455H264.62C264.449 397.903 264.065 400.051 263.467 401.769C263.083 402.929 262.443 404.046 261.631 404.948C254.629 412.723 244.553 414.312 240.668 422.516L240.711 424.32L298.947 423.504L299.587 422.516C300.697 417.448 301.594 412.336 302.277 407.267H289.042C282.979 407.31 277.727 415.257 274.184 414.355Z" fill="white"/>
<path opacity="0.2" d="M305.095 363.883H261.461L305.053 375.18C305.181 371.228 305.181 367.448 305.095 363.883Z" fill="#23211F"/>
<path d="M355.897 294.854C343.643 277.501 340.74 255.637 330.194 234.031C319.649 212.426 303.04 200.398 303.04 200.398H288.353C288.353 200.355 288.31 200.355 288.31 200.355H255.051C255.051 200.355 246.981 253.447 253.855 318.608C255.307 332.611 258.765 349.835 261.412 364.74L312.518 364.998C316.446 350.866 300.863 332.396 297.02 315.945C294.544 305.206 296.209 292.234 298.258 278.875C304.919 292.792 312.305 307.397 320.076 321.572C326.352 332.954 334.976 345.626 342.704 357.481L392.188 339.226C388.217 316.374 362.13 303.66 355.897 294.854Z" fill="#DF2020"/>
<path opacity="0.2" d="M218.039 140.479L211.336 161.955L224.443 144.13L218.039 140.479Z" fill="#9F9F9F"/>
<path d="M267.053 408.384L261.387 405.244" stroke="#FF4F32" stroke-width="4" stroke-linecap="round" stroke-linejoin="round"/>
<path d="M262.567 413.663L257.328 409.148" stroke="#FF4F32" stroke-width="4" stroke-linecap="round" stroke-linejoin="round"/>
<path opacity="0.2" d="M303.348 250.656C312.015 293.911 326.148 299.839 328.111 335.061C325.208 330.465 321.024 323.463 318.633 319.125C306.166 294.899 308.813 301.9 298.566 279.264L303.348 250.656Z" fill="#454545"/>
<path d="M318.794 216.549H310.98L313.329 225.311C314.524 229.736 319.306 233.301 322.807 233.301C325.71 233.301 327.375 232.399 328.4 230.938" stroke="#454545" stroke-width="2" stroke-linecap="round" stroke-linejoin="round"/>
<path d="M298.223 278.876C299.674 266.634 303.218 254.65 303.944 242.752" stroke="#3B3B3B" stroke-width="2" stroke-linecap="round" stroke-linejoin="round"/>
<path d="M287.761 233.348C292.116 233.348 294.72 229.783 293.567 225.401L291.219 216.682H275.422L277.77 225.401C278.966 229.783 283.449 233.348 287.761 233.348Z" stroke="#454545" stroke-width="2" stroke-linecap="round" stroke-linejoin="round"/>
<path d="M263.892 200.873C261.458 219.773 260.604 269.685 265.514 298.808C270.296 327.373 277.298 341.848 278.792 363.583" stroke="#454545" stroke-width="2" stroke-linecap="round" stroke-linejoin="round"/>
<path d="M211.461 161.957L224.099 144.346" stroke="#9F9F9F" stroke-width="2" stroke-linecap="round" stroke-linejoin="round"/>
<path d="M403.298 406.021L349.16 429.002C348.392 426.94 348.007 424.62 348.05 422.43L402.316 399.406C403.127 403.659 403.298 406.021 403.298 406.021Z" fill="#DF2020"/>
<path d="M297.917 429H239.168C239.296 426.766 239.808 424.575 240.705 422.557H299.624C298.642 426.895 297.917 429 297.917 429Z" fill="#DF2020"/>
<path d="M76.4449 314.662L69.0586 325.792L82.5118 320.268L76.4449 314.662Z" fill="black"/>
<path opacity="0.2" d="M76.4449 314.662L69.0586 325.792L82.5118 320.268L76.4449 314.662Z" fill="black"/>
<path d="M76.4453 314.664L84.2415 331.983L109.718 301.516C109.773 301.46 109.718 301.379 109.637 301.409L76.4453 314.664Z" fill="black"/>
<path d="M61.3984 303.835L76.4442 314.664L109.661 301.408C109.691 301.378 109.691 301.322 109.635 301.322L61.3984 303.835Z" fill="black"/>
<path d="M76.4453 314.662L79.7117 321.926" stroke="black" stroke-width="2" stroke-linecap="round" stroke-linejoin="round"/>
<path d="M109.637 301.408L76.4453 314.664" stroke="black" stroke-width="4" stroke-linecap="round" stroke-linejoin="round"/>
</svg>
