<svg width="509" height="624" viewBox="0 0 509 624" fill="none" xmlns="http://www.w3.org/2000/svg">
<path d="M246.61 58.8064C294.755 47.1644 362.675 43.8198 409.277 96.0335C455.886 148.247 422.892 185.89 358.99 145.048C295.08 104.208 240.512 30.8002 255.75 16.4393C270.982 2.08588 353.88 50.5175 352.182 105.738C350.476 160.958 261.96 180.149 247.462 112.97C238.42 71.0104 298.082 32.5454 387.415 48.398C476.749 64.2575 413.509 174.435 346.688 158.25C279.866 142.066 260.459 43.4108 309.422 14.1999C353.336 -12.1209 405.122 53.7145 378.179 109.177" stroke="#DF2020" stroke-width="1.5" stroke-linecap="round" stroke-linejoin="round"/>
<path d="M83.0487 151.535C108.754 151.535 129.595 130.701 129.595 104.995C129.595 79.2903 108.754 58.4492 83.0487 58.4492C57.3438 58.4492 36.5098 79.2903 36.5098 104.995C36.5098 130.701 57.3438 151.535 83.0487 151.535Z" fill="white"/>
<path d="M83.096 133.892C99.0522 133.892 111.991 120.953 111.991 104.997C111.991 89.0402 99.0522 76.1016 83.096 76.1016C67.1398 76.1016 54.2012 89.0402 54.2012 104.997C54.2012 120.953 67.1398 133.892 83.096 133.892Z" fill="#DF2020"/>
<path d="M91.1432 121.041C90.909 121.041 90.6265 120.945 90.4405 120.71C85.2597 114.971 77.0751 113.228 70.0135 116.432C69.545 116.666 68.9801 116.432 68.7941 115.957C68.553 115.488 68.7941 114.923 69.2626 114.737C77.0751 111.21 86.1553 113.139 91.8529 119.491C92.1767 119.863 92.1767 120.476 91.7564 120.807C91.6117 120.945 91.3775 121.041 91.1432 121.041Z" fill="white"/>
<path d="M103.051 101.557C102.961 101.04 102.437 100.71 101.921 100.854L89.1685 103.679C88.6518 103.769 88.3211 104.285 88.4658 104.809C88.5553 105.229 88.9343 105.56 89.4027 105.56C89.451 105.56 89.5474 105.56 89.5956 105.56L91.0079 105.229L90.3466 108.337C90.1124 109.418 90.7668 110.5 91.8967 110.782C92.0414 110.831 92.2274 110.831 92.3721 110.831C93.309 110.831 94.1082 110.169 94.3493 109.232L95.3827 104.285L102.3 102.735C102.816 102.549 103.147 102.033 103.051 101.557Z" fill="white"/>
<path d="M78.0604 101.323L67.4714 93.6067C67.0511 93.276 66.4862 93.3724 66.1555 93.7927C65.8248 94.2199 65.9213 94.7848 66.3415 95.1086L72.0873 99.2975L71.0952 104.196C70.9574 104.761 71.047 105.278 71.3777 105.746C71.6601 106.222 72.1355 106.497 72.6522 106.642C72.79 106.69 72.976 106.69 73.1207 106.69C74.0645 106.69 74.8637 106.029 75.0979 105.092L75.7524 101.936L76.9305 102.832C77.1234 102.97 77.3094 103.018 77.4954 103.018C77.7779 103.018 78.0604 102.88 78.2464 102.639C78.5771 102.219 78.4875 101.606 78.0604 101.323Z" fill="white"/>
<path d="M334.114 608.529V602.17C334.114 594.343 327.748 587.984 319.928 587.984H238.941C231.122 587.984 224.756 594.343 224.756 602.17V608.529" stroke="#231F20" stroke-width="6" stroke-linecap="round" stroke-linejoin="round"/>
<path d="M337.097 452.846H221.78C216.874 452.846 212.83 456.89 212.83 461.795C212.83 466.701 216.805 470.745 221.78 470.745H259.355V484.662H270.489V572.739H259.224V587.985H299.322V572.739H288.381V484.662H299.452V470.745H337.097C342.002 470.745 346.04 466.701 346.04 461.795C346.04 456.89 342.064 452.846 337.097 452.846Z" fill="#231F20"/>
<path d="M279.438 612.504V588.246" stroke="#231F20" stroke-width="6" stroke-linecap="round" stroke-linejoin="round"/>
<path d="M333.915 623.776C340.136 623.776 345.179 618.733 345.179 612.505C345.179 606.283 340.136 601.24 333.915 601.24C327.693 601.24 322.65 606.283 322.65 612.505C322.65 618.733 327.693 623.776 333.915 623.776Z" fill="#231F20"/>
<path d="M333.913 615.819C335.746 615.819 337.227 614.338 337.227 612.505C337.227 610.68 335.746 609.191 333.913 609.191C332.088 609.191 330.6 610.68 330.6 612.505C330.6 614.338 332.088 615.819 333.913 615.819Z" fill="#F3F2EA"/>
<path d="M279.301 623.776C285.529 623.776 290.572 618.733 290.572 612.505C290.572 606.283 285.529 601.24 279.301 601.24C273.08 601.24 268.037 606.283 268.037 612.505C268.037 618.733 273.08 623.776 279.301 623.776Z" fill="#231F20"/>
<path d="M279.503 615.819C281.336 615.819 282.817 614.338 282.817 612.505C282.817 610.68 281.336 609.191 279.503 609.191C277.678 609.191 276.189 610.68 276.189 612.505C276.189 614.338 277.678 615.819 279.503 615.819Z" fill="#F3F2EA"/>
<path d="M224.495 623.776C230.716 623.776 235.759 618.733 235.759 612.505C235.759 606.283 230.716 601.24 224.495 601.24C218.273 601.24 213.23 606.283 213.23 612.505C213.23 618.733 218.273 623.776 224.495 623.776Z" fill="#F4F3EF"/>
<path d="M224.493 615.819C226.319 615.819 227.807 614.338 227.807 612.505C227.807 610.68 226.319 609.191 224.493 609.191C222.661 609.191 221.18 610.68 221.18 612.505C221.18 614.338 222.661 615.819 224.493 615.819Z" fill="#231F20"/>
<path d="M161.434 149.834V149.765C166.463 144.343 177.114 133.829 177.314 133.368C178.037 132.706 181.944 96.1293 189.612 97.1214C192.657 97.1214 194.042 99.6292 194.51 100.821C194.641 101.09 194.972 101.152 195.172 101.021C196.687 100.029 201.586 97.2523 208.792 97.2523C217.79 97.3832 222.289 99.2985 222.751 102.606C222.751 102.606 222.751 102.674 222.813 102.674C223.805 102.805 228.765 104.659 227.511 107.897C227.511 107.966 227.511 107.966 227.58 107.966C228.373 108.227 233.395 110.349 231.611 113.188V113.257C232.141 113.519 236.178 116.033 234.856 118.679C231.879 123.908 213.291 122.785 210.845 128.738C209.853 130.915 209.984 133.629 210.115 137.005C211.569 152.81 204.824 162.201 194.703 177.282C194.703 177.282 194.641 177.351 194.641 177.282C193.518 176.882 171.885 168.946 171.093 168.684C171.093 168.684 171.093 168.684 171.031 168.684L161.434 149.834Z" fill="#E18E77"/>
<path d="M137.625 584.842L135.049 566.322C135.779 558.647 134.387 553.956 131.48 543.104C131.48 543.042 131.011 539.136 130.949 538.544C130.949 538.475 130.949 538.475 131.011 538.475L196.359 538.344C196.359 538.344 196.428 538.344 196.428 538.413L198.811 543.173C200.265 557.263 200.858 571.483 200.527 585.434L197.02 592.379L196.958 592.448L137.625 584.842C137.625 584.911 137.625 584.911 137.625 584.842Z" fill="#E18E77"/>
<path d="M135.049 566.395C135.049 566.326 135.049 566.326 135.049 566.395L159.982 566.326C164.612 566.326 168.057 570.556 167.258 574.993L165.342 585.307C165.342 585.376 165.342 585.376 165.404 585.376H200.465C200.527 585.376 200.527 585.376 200.527 585.438C200.327 593.375 199.666 601.312 198.874 609.118C198.874 609.118 198.874 609.186 198.812 609.186L116.661 616.593C116.661 616.593 116.661 616.593 116.599 616.593L103.04 609.248C102.971 609.248 102.971 609.186 103.04 609.186C112.1 596.289 132.865 592.913 135.049 566.395Z" fill="#F4F3EF"/>
<path d="M198.872 609.315C198.341 614.207 197.68 619.105 196.887 623.935C196.887 623.935 196.888 623.997 196.826 623.997H129.025H98.6011C98.5391 623.997 98.5391 623.997 98.5391 623.935C98.5391 617.713 100.255 613.084 102.969 609.246H103.038L198.872 609.315Z" fill="white"/>
<path d="M117.32 404.873C139.146 378.947 192.775 367.79 221.415 360.584C231.798 358 231.464 358.041 231.595 358.041L285.549 359.058H289.621C290.214 359.651 298.743 366.911 303.373 392.898C308.933 424.914 284.261 453.424 251.653 453.424H177.507C177.445 453.424 177.445 453.486 177.445 453.486C188.159 481.202 195.503 512.35 198.741 543.044C198.741 543.106 198.741 543.106 198.672 543.106H131.54C131.54 543.106 131.478 543.106 131.478 543.044C121.027 505.674 93.6408 433.051 117.32 404.873Z" fill="#DF2020"/>
<path opacity="0.3" d="M179.032 411.357C150.523 413.472 137.364 424.454 145.7 466.184C157.275 524.057 178.501 549.128 177.647 567.517C176.255 596.487 144.77 600.849 144.77 623.998L225.529 620.36C225.529 620.429 225.598 620.36 225.529 620.36C225.598 616.329 230.69 407.45 179.032 411.357Z" fill="#100C0C"/>
<path d="M193.517 587.689L189.81 566.324C189.879 558.587 188.687 552.834 185.773 543.106C185.773 542.975 185.711 538.676 185.711 538.146C185.711 538.084 185.711 538.084 185.773 538.084L252.381 537.223C252.381 537.223 252.381 537.223 252.443 537.223L261.31 543.044C261.31 543.044 261.31 543.044 261.31 543.106C263.818 556.472 265.671 570.555 266.732 585.305L265.94 593.111C265.94 593.18 265.871 593.18 265.871 593.18L193.517 587.689C193.517 587.751 193.517 587.751 193.517 587.689Z" fill="#E18E77"/>
<path d="M164.345 609.118C172.213 596.089 189.678 592.782 189.809 566.395C189.809 566.326 189.809 566.326 189.878 566.326H214.15C218.711 566.326 222.086 570.425 221.356 574.793L219.641 585.307C219.641 585.376 219.641 585.376 219.703 585.376H266.662C266.731 585.376 266.731 585.376 266.731 585.438C267.261 593.044 267.592 601.05 267.654 609.118C267.654 609.118 267.654 609.186 267.592 609.186C266.462 609.517 243.782 615.201 219.971 615.201C193.777 615.201 166.198 609.517 164.345 609.118C164.345 609.186 164.276 609.118 164.345 609.118Z" fill="#F4F3EF"/>
<path d="M163.948 404.874C193.711 369.558 272.231 357.156 272.823 357.025C292.715 360.71 351.41 367.85 351.654 368.958C353.046 375.373 354.437 383.048 355.099 390.854C358.268 427.493 330.889 453.487 298.35 453.487H231.018C230.949 453.487 230.949 453.556 230.949 453.556C243.977 479.22 254.759 509.114 261.311 543.045C261.311 543.107 261.311 543.107 261.242 543.107H185.843C185.843 543.107 185.774 543.107 185.774 543.045C173.738 503.754 139.676 433.714 163.948 404.874Z" fill="#DF2020"/>
<path opacity="0.3" d="M217.991 430.936C214.546 418.3 267.458 453.424 280.555 453.424C263.627 453.424 232.142 453.424 230.95 453.424H230.888C230.557 452.693 225.066 441.849 217.991 430.936Z" fill="#100C0C"/>
<path d="M267.656 609.246C267.725 614.075 267.656 618.974 267.525 623.934C267.525 623.996 267.525 623.996 267.456 623.996H226.319H160.579C160.51 623.996 160.51 623.996 160.51 623.934C160.51 617.651 161.963 613.021 164.278 609.246H164.347H267.656C267.656 609.184 267.656 609.184 267.656 609.246Z" fill="white"/>
<path d="M398.144 312.997C390.732 291.408 344.839 236.428 319.51 222.294V222.232C303.108 214.297 283.73 213.568 283.268 213.568L248.549 214.103L235.123 216.498C226.657 215.102 198.95 212.437 183.478 211.104C177.788 210.569 173.751 210.236 173.028 210.236C172.959 210.236 172.959 210.167 172.959 210.104C173.951 208.702 185.462 192.305 194.783 177.845V177.783L161.648 150.057H161.586C147.099 164.85 131.496 181.045 124.883 189.244C118.201 197.505 115.025 208.903 116.348 219.497C117.87 231.763 125.213 243.155 137.579 252.422C143.131 256.553 149.152 260.086 155.303 263.085C180.034 275.143 206.294 278.475 207.547 278.614C207.547 278.614 207.616 278.614 207.616 278.676L224.941 356.384L225.003 356.454L348.208 356.516C348.277 356.516 348.277 356.454 348.277 356.454L347.616 353.455C353.106 353.85 358.458 354.052 363.356 354.052C379.82 354.052 391.001 351.65 394.838 347.256C398.868 342.722 404.689 332.129 398.144 312.997Z" fill="white"/>
<path d="M130.419 582.329L140.209 586.297M124.395 590.334L132.4 596.948M187.169 582.129L197.021 586.297M181.678 591.127L189.222 596.948" stroke="#201515" stroke-width="3" stroke-linecap="round" stroke-linejoin="round"/>
<path d="M234.987 210.021L235.049 205.191C235.049 205.129 234.987 205.129 234.987 205.129C233.864 205.391 221.428 207.906 213.36 200.431C203.371 190.31 209.985 170.537 209.254 156.647C209.061 153.209 209.123 149.833 209.454 146.857C211.638 126.285 226.451 122.916 251.06 123.308C279.762 124.3 281.815 139.32 282.676 149.634C282.938 158.5 282.869 175.628 282.738 189.449C282.607 200.761 282.869 207.775 282.869 208.299V208.367L277.847 212.667C277.847 212.667 277.847 212.667 277.778 212.667L235.118 210.09C235.049 210.09 234.987 210.09 234.987 210.021Z" fill="#E18E77"/>
<path opacity="0.3" d="M235.118 205.129C235.049 205.129 235.049 205.129 235.118 205.129L235.049 210.09V213.259C235.049 213.328 235.049 213.328 235.118 213.328L238.356 213.397H238.425L249.737 199.7C249.799 199.638 249.737 199.569 249.668 199.638C243.385 202.745 235.71 204.929 235.118 205.129Z" fill="black"/>
<path d="M275.731 190.179C271.693 190.179 266.271 189.118 262.964 184.557V184.488C263.888 183.634 278.638 168.883 271.693 160.016C269.84 157.639 267.263 156.448 264.149 156.448C257.535 156.448 250.26 161.808 249.798 162.2H249.736C249.137 162.001 242.654 155.786 245.038 145.934C245.038 145.865 244.969 145.796 244.907 145.865C237.032 151.687 229.564 152.741 228.103 143.95C228.103 143.881 228.041 143.881 227.972 143.881C223.542 146.926 219.374 148.58 215.406 148.58C211.568 148.511 209.453 147.257 209.322 146.926C209.322 146.926 209.322 146.926 209.322 146.857C210.314 126.285 227.642 117.886 250.398 118.348C298.611 118.348 283.006 187.602 282.606 189.387C282.606 189.387 282.606 189.449 282.538 189.449C282.345 189.518 279.368 190.179 275.731 190.179Z" fill="black"/>
<path d="M248.674 215.312L238.822 228.01C238.822 228.079 238.685 228.01 238.685 228.01L234.916 215.774L234.985 210.152C234.985 210.09 234.985 210.09 235.047 210.09L282.805 208.299C282.867 208.299 282.867 208.299 282.867 208.368L283.067 212.798V212.867L260.049 229.601H259.987L248.805 215.312C248.743 215.312 248.743 215.312 248.674 215.312Z" fill="white"/>
<path d="M232.673 162.07C235.38 162.139 235.38 166.108 232.673 166.17C229.958 166.108 229.958 162.139 232.673 162.07Z" fill="black"/>
<path d="M214.616 162.07C217.33 162.139 217.33 166.108 214.616 166.17C211.901 166.108 211.901 162.139 214.616 162.07Z" fill="black"/>
<path d="M248.346 238.73C254.098 238.861 254.098 247.329 248.346 247.46C242.593 247.329 242.593 238.861 248.346 238.73Z" fill="#252525"/>
<path d="M248.346 269.217C254.098 269.348 254.098 277.815 248.346 277.946C242.593 277.815 242.593 269.348 248.346 269.217Z" fill="#252525"/>
<path d="M248.346 299.771C254.098 299.909 254.098 308.37 248.346 308.507C242.593 308.37 242.593 299.909 248.346 299.771Z" fill="#252525"/>
<path d="M221.295 182.704C222.087 180.189 224.664 178.674 227.31 179.397M222.349 167.162L222.149 169.015C222.019 170.269 222.549 171.461 223.541 172.253M235.047 205.13C243.053 203.807 249.798 198.778 249.798 198.778M256.873 172.06L262.895 167.361M194.704 101.283C192.258 102.544 185.052 107.105 181.676 111.935M222.621 102.675C217.922 102.014 212.631 101.352 207.932 102.014C201.918 102.875 195.896 106.712 195.896 106.712M231.549 113.257C226.189 113.257 216.006 113.388 205.355 119.41M227.51 107.966C224.203 107.966 211.967 106.05 200.655 112.726" stroke="black" stroke-width="3" stroke-linecap="round" stroke-linejoin="round"/>
<path opacity="0.3" d="M163.355 222.059L172.683 209.492C172.683 209.492 172.684 209.492 172.746 209.492C173.207 209.492 177.775 209.892 183.128 210.353C183.197 210.353 183.197 210.422 183.128 210.484L163.486 222.128C163.355 222.197 163.286 222.128 163.355 222.059Z" fill="#252525"/>
<path opacity="0.2" d="M207.338 277.421C205.684 277.283 179.759 273.914 155.349 262.14C155.287 262.14 155.287 262.009 155.349 262.009C189.742 260.748 203.5 260.417 204.492 260.355C204.561 260.355 204.561 260.355 204.561 260.417L207.407 277.352L207.338 277.421Z" fill="#252525"/>
<path opacity="0.3" d="M354.963 390.651C355.032 390.72 355.101 390.651 355.101 390.582C354.632 384.63 353.248 375.969 351.656 368.894C350.333 362.541 348.549 356.258 348.087 354.736C347.887 354.012 347.495 352.028 347.426 351.697C347.426 351.697 347.426 351.628 347.357 351.628C335.851 350.767 323.684 349.313 313.033 347.26C306.089 345.938 299.736 344.553 295.045 343.43C294.976 343.43 295.045 343.492 295.045 343.561L292.105 357.331C292.105 357.4 292.105 357.531 292.167 357.531H305.003C329.867 368.313 353.117 388.667 354.963 390.651Z" fill="#252525"/>
<path opacity="0.3" d="M317.398 304.072C319.052 304.072 320.106 304.141 320.506 304.141C320.568 304.141 320.568 304.072 320.568 304.01C316.138 298.319 310.454 291.244 305.824 283.107C305.824 283.045 305.686 283.045 305.686 283.107L301.918 304.672C301.918 304.734 301.918 304.802 301.987 304.802C303.372 304.734 304.763 304.672 306.017 304.603C310.916 304.272 314.884 304.072 317.398 304.072Z" fill="#252525"/>
<path d="M301.854 304.803C290.28 305.664 275.729 307.648 264.747 312.54C249.335 319.092 219.042 342.503 230.747 343.102C232.869 343.102 238.822 340.319 241.729 338.865C242.06 338.734 242.39 339.134 242.129 339.395C238.353 343.564 228.039 355.8 237.561 356.261C239.283 356.261 240.937 355.862 241.267 355.8C241.329 355.8 241.329 355.8 241.329 355.862C243.052 363.075 252.242 359.038 254.227 356.923C254.295 356.854 254.364 356.923 254.364 356.991C254.364 359.237 257.203 360.822 260.179 360.691C266.462 360.23 285.912 342.303 286.835 341.311H286.904C287.234 341.449 290.342 342.303 295.171 343.433C299.87 344.556 306.153 346.009 313.098 347.263C313.16 347.263 313.16 347.263 313.16 347.201C313.229 346.271 314.021 335.358 312.237 324.845C310.583 314.924 306.346 305.333 306.084 304.672C306.084 304.672 306.084 304.672 306.015 304.672C304.693 304.603 303.308 304.734 301.854 304.803Z" fill="#E18E77"/>
<path d="M164.41 609.186C172.285 596.089 189.681 592.782 189.812 566.326C189.812 564.872 189.812 563.281 189.681 561.627C189.35 556.866 188.028 550.583 185.713 543.177C173.677 503.823 139.608 433.715 163.887 404.875C175.33 391.247 196.357 380.141 217.921 371.543" stroke="#201515" stroke-width="3" stroke-linecap="round" stroke-linejoin="round"/>
<path d="M261.309 543.176H185.771" stroke="#201515" stroke-width="3" stroke-linecap="round" stroke-linejoin="round"/>
<path d="M444.911 357.574L444.891 256.868L481.907 256.848L481.928 357.574H444.911Z" fill="#DF2020"/>
<path opacity="0.3" d="M444.911 357.574L444.891 256.869L481.997 357.574H444.911Z" fill="#A60000"/>
<path d="M463.445 345.592C467.317 345.592 470.452 342.45 470.452 338.578C470.452 334.706 467.317 331.564 463.445 331.564C459.566 331.564 456.432 334.706 456.432 338.578C456.432 342.45 459.566 345.592 463.445 345.592Z" fill="#231F20"/>
<path d="M408.239 357.574L408.219 256.868L445.235 256.848L445.256 357.574H408.239Z" fill="white"/>
<path opacity="0.3" d="M408.239 357.574L408.219 256.869L445.263 357.574H408.239Z" fill="#AEAEAE"/>
<path d="M426.771 345.592C430.643 345.592 433.785 342.45 433.785 338.578C433.785 334.706 430.643 331.564 426.771 331.564C422.893 331.564 419.758 334.706 419.758 338.578C419.758 342.45 422.893 345.592 426.771 345.592Z" fill="#231F20"/>
<path d="M444.912 258.373V357.56" stroke="#252525" stroke-width="3" stroke-linecap="round" stroke-linejoin="round"/>
<path d="M256.02 326.167C251.322 329.674 245.569 335.627 241.27 339.657M265.341 331.527C265.341 331.527 246.691 349.847 241.331 355.862M274.669 337.48L254.296 356.853M207.407 277.355L204.562 260.42M172.815 209.492L163.418 222.128M305.824 283.176C310.916 291.313 314.684 296.735 320.706 304.141M306.017 304.603C320.045 303.28 352.054 305.464 352.054 305.464M313.1 347.133C326.328 350.178 347.424 351.7 347.424 351.7" stroke="#252525" stroke-width="3" stroke-linecap="round" stroke-linejoin="round"/>
<path d="M478.437 365.998H461.062V623.993H478.437V365.998Z" fill="#231F20"/>
<path d="M55.0898 365.998H37.7148V623.993H55.0898V365.998Z" fill="#231F20"/>
<path d="M16.4926 356.352H500.312C501.455 356.345 502.585 356.565 503.646 356.999C504.7 357.433 505.658 358.074 506.464 358.88C507.27 359.693 507.911 360.651 508.345 361.705C508.779 362.759 509 363.896 509 365.033C509 366.176 508.779 367.306 508.345 368.367C507.911 369.421 507.27 370.379 506.464 371.185C505.658 371.998 504.7 372.632 503.646 373.066C502.585 373.5 501.455 373.727 500.312 373.72H16.4926C15.3489 373.727 14.219 373.5 13.1649 373.066C12.1039 372.632 11.1463 371.998 10.3402 371.185C9.53411 370.379 8.8934 369.421 8.45936 368.367C8.02531 367.306 7.79795 366.176 7.80484 365.033C7.79795 363.896 8.02531 362.759 8.45936 361.705C8.8934 360.651 9.53411 359.693 10.3402 358.88C11.1463 358.074 12.1039 357.433 13.1649 356.999C14.219 356.565 15.3489 356.345 16.4926 356.352Z" fill="#231F20"/>
<path d="M48.761 330.927C37.2968 330.927 25.4605 321.598 22.3671 310.134L0.747663 229.456C-0.781819 223.738 0.0518204 218.406 3.09701 214.437C5.99062 210.662 10.5791 208.588 16.0149 208.588H145.525C156.996 208.588 168.839 217.944 171.926 229.443L193.538 310.058C195.047 315.79 194.186 321.136 191.127 325.105C188.226 328.86 183.665 330.927 178.278 330.927H48.761Z" fill="#231F20"/>
<path d="M64.1406 356.667L79.9522 297.451L130.218 297.438L114.338 356.667H64.1406ZM100.49 314.2C94.6889 314.2 88.1508 320.979 85.9048 329.309C84.5544 334.318 85.0436 338.989 87.2 341.807C87.8063 342.626 88.5986 343.288 89.5149 343.743C90.4243 344.19 91.4302 344.418 92.4498 344.404C98.2853 344.404 104.858 337.625 107.104 329.295C108.413 324.273 107.903 319.594 105.733 316.783C105.127 315.971 104.334 315.309 103.425 314.861C102.515 314.413 101.51 314.186 100.49 314.2Z" fill="#DF2020"/>
<path d="M74.9492 239.418L78.1046 251.261M89.7483 239.418L92.8967 251.261M104.547 239.418L107.696 251.261" stroke="white" stroke-width="3" stroke-linecap="round" stroke-linejoin="round"/>
</svg>
