<svg width="561" height="476" viewBox="0 0 561 476" fill="none" xmlns="http://www.w3.org/2000/svg">
<path d="M135.21 0H190.49L207.15 1.59502L228.99 0H428.686C443.288 0 455.118 11.8478 455.118 26.471V157.473L451.525 172.154L455.118 188.659V319.132C455.118 333.755 443.288 345.603 428.686 345.603H135.21C120.608 345.603 108.777 333.755 108.777 319.132V26.471C108.835 11.8478 120.608 0 135.21 0Z" fill="white"/>
<path d="M282 71C262.024 71 242.497 76.9529 225.887 88.1058C209.278 99.2588 196.333 115.111 188.688 133.658C181.044 152.204 179.044 172.613 182.941 192.302C186.838 211.991 196.457 230.076 210.582 244.271C224.707 258.466 242.704 268.133 262.296 272.05C281.888 275.966 302.196 273.956 320.651 266.274C339.106 258.591 354.88 245.582 365.978 228.89C377.076 212.199 383 192.575 383 172.5C383 145.58 372.359 119.764 353.418 100.729C334.477 81.6938 308.787 71 282 71ZM216.12 206.433C215.119 206.796 214.063 206.983 212.999 206.987C211.114 206.988 209.276 206.406 207.732 205.321C206.187 204.235 205.013 202.699 204.368 200.92C203.994 199.901 203.808 198.822 203.817 197.737C203.815 195.845 204.393 194 205.474 192.452C206.554 190.903 208.084 189.728 209.854 189.086C210.86 188.711 211.926 188.523 212.999 188.532C215.157 188.535 217.246 189.302 218.898 190.698C220.55 192.094 221.659 194.03 222.032 196.167C222.404 198.303 222.016 200.504 220.935 202.381C219.854 204.258 218.149 205.693 216.12 206.433ZM263.2 228.486C262.067 228.902 260.863 229.089 259.658 229.037C258.452 228.985 257.269 228.694 256.175 228.182C255.082 227.67 254.099 226.947 253.284 226.053C252.469 225.159 251.837 224.112 251.425 222.973L232.579 170.978C232.219 169.971 232.032 168.91 232.028 167.84C232.02 165.667 232.775 163.561 234.16 161.892C235.546 160.224 237.473 159.1 239.602 158.72C241.731 158.34 243.925 158.726 245.798 159.812C247.672 160.899 249.103 162.614 249.841 164.657L268.663 216.676C269.493 218.97 269.383 221.501 268.359 223.715C267.335 225.929 265.48 227.644 263.2 228.486ZM307.135 241.866C306 242.281 304.795 242.467 303.589 242.413C302.382 242.359 301.198 242.067 300.105 241.553C299.011 241.039 298.028 240.312 297.214 239.416C296.4 238.52 295.77 237.471 295.36 236.33L251.402 114.945C251.03 113.933 250.843 112.863 250.851 111.785C250.848 109.614 251.607 107.511 252.994 105.847C254.382 104.182 256.309 103.063 258.436 102.686C260.564 102.308 262.756 102.697 264.626 103.783C266.497 104.869 267.926 106.583 268.663 108.624L312.621 230.032C313.039 231.171 313.229 232.381 313.179 233.594C313.129 234.806 312.841 235.997 312.331 237.097C311.821 238.197 311.099 239.185 310.207 240.004C309.316 240.822 308.272 241.455 307.135 241.866ZM332.225 203.227C331.09 203.642 329.885 203.828 328.678 203.774C327.472 203.72 326.288 203.428 325.194 202.914C324.1 202.399 323.118 201.673 322.304 200.777C321.489 199.881 320.859 198.832 320.449 197.69L295.337 128.324C294.963 127.313 294.776 126.243 294.786 125.164C294.788 122.995 295.551 120.896 296.94 119.236C298.33 117.576 300.256 116.461 302.382 116.086C304.509 115.712 306.698 116.102 308.566 117.188C310.434 118.275 311.862 119.988 312.598 122.027L337.711 191.393C338.129 192.531 338.318 193.742 338.268 194.955C338.218 196.167 337.93 197.358 337.42 198.458C336.91 199.558 336.188 200.546 335.297 201.364C334.405 202.183 333.361 202.816 332.225 203.227ZM354.169 155.937C353.168 156.299 352.112 156.487 351.047 156.491C349.163 156.492 347.324 155.91 345.78 154.825C344.236 153.739 343.062 152.203 342.416 150.424C342.045 149.412 341.858 148.342 341.865 147.263C341.86 145.369 342.437 143.519 343.518 141.966C344.598 140.413 346.13 139.234 347.902 138.59C348.909 138.215 349.974 138.027 351.047 138.036C353.206 138.039 355.294 138.805 356.946 140.202C358.598 141.598 359.708 143.534 360.08 145.671C360.453 147.807 360.065 150.007 358.984 151.885C357.903 153.762 356.198 155.197 354.169 155.937Z" fill="#E42024"/>
<path d="M142.804 43.805C148.168 43.805 152.519 39.4474 152.519 34.0753C152.519 28.7033 148.168 24.3457 142.804 24.3457C137.439 24.3457 133.088 28.7033 133.088 34.0753C133.088 39.4474 137.439 43.805 142.804 43.805Z" fill="#464646"/>
<path d="M174.417 43.805C179.781 43.805 184.132 39.4474 184.132 34.0753C184.132 28.7033 179.781 24.3457 174.417 24.3457C169.052 24.3457 164.701 28.7033 164.701 34.0753C164.701 39.4474 169.052 43.805 174.417 43.805Z" fill="#464646"/>
<path d="M206.032 43.805C211.396 43.805 215.747 39.4474 215.747 34.0753C215.747 28.7033 211.396 24.3457 206.032 24.3457C200.674 24.3457 196.322 28.7033 196.322 34.0753C196.322 39.4474 200.674 43.805 206.032 43.805Z" fill="#464646"/>
<path d="M93.208 449.668C90.8126 438.446 89.5193 427.076 89.1816 415.611H138.327C138.282 419.975 138.231 424.008 138.422 427.6L123.189 460.987L93.208 449.668Z" fill="#E5BB98"/>
<path d="M48.0878 461.612C47.4634 461.803 15.7045 449.904 15.7045 449.904C14.4622 438.541 13.6913 426.93 14.7934 415.611H64.5629C63.843 420.026 63.1231 424.148 62.8364 427.842C62.8364 427.842 49.2855 461.274 48.0878 461.612Z" fill="#E5BB98"/>
<path d="M16.0433 403.14C16.4765 399.924 16.9033 396.907 17.3812 394.029C22.6053 362.033 29.5496 351.385 30.8939 324.952C32.3273 296.171 24.6631 256.838 41.4313 211.941H69.1638C69.1638 211.897 69.2084 211.801 69.2084 211.75H114.232C114.232 211.75 143.933 285.619 141.537 348.935C140.964 364.528 139.906 380.019 139.186 394.029C138.76 402.132 138.422 409.763 138.326 416.57H89.1812C89.0411 411.536 89.0856 406.209 89.3723 400.741C89.4679 398.342 89.5634 396.09 89.71 394.029C91.2899 369.804 93.1567 364.815 93.6408 343.18C93.832 333.253 89.4679 320.543 84.1036 306.341C82.0968 322.987 79.937 338.625 77.8282 349.898C75.0059 364.911 71.6039 380.165 68.7306 394.029C67.0551 402.087 65.5197 409.712 64.4175 416.57H14.75C15.0367 412.206 15.4189 407.695 16.0433 403.14Z" fill="#DF2020"/>
<path opacity="0.2" d="M89.6588 321.933L84.0078 305.862C86.69 286.913 87.9386 270.701 88.9898 262.018C88.9898 262.018 96.705 255.976 93.6406 305.715C93.0609 321.404 89.6588 321.933 89.6588 321.933Z" fill="black"/>
<path d="M104.987 449.669C108.822 449.669 112.606 450.772 115.862 452.788L121.226 456.144C122.277 456.77 123.622 456.476 124.246 455.423C124.577 454.894 124.673 454.224 124.482 453.599L119.404 436.806C118.257 433.017 120.411 428.991 124.246 427.836C124.915 427.644 125.584 427.549 126.253 427.549H138.421C138.708 434.458 139.479 439.933 141.008 443.384C146.519 455.806 159.21 455.379 163.523 467.367L162.847 468.662L98.4248 467.941L97.998 467.367C96.0803 461.561 94.5003 455.615 93.207 449.618H104.987V449.669Z" fill="white"/>
<path d="M144.629 449.383L139.621 453.989" stroke="#EAEAEA" stroke-width="4" stroke-linecap="round" stroke-linejoin="round"/>
<path d="M149.919 453.771L144.408 458.78" stroke="#EAEAEA" stroke-width="4" stroke-linecap="round" stroke-linejoin="round"/>
<path d="M164.954 475.521L101.252 475.999C101.252 475.999 99.8628 472.931 97.9961 467.367H163.521C164.432 470.009 164.91 472.739 164.954 475.521Z" fill="#1A1A1A"/>
<path opacity="0.2" d="M31.7969 252.753C33.2813 239.808 36.11 226.135 41.4297 211.889H62.7403C62.7403 211.933 46.6984 233.568 31.7969 252.753Z" fill="black"/>
<path d="M15.7051 449.906H28.8291C32.6644 449.906 36.4487 451.01 39.7042 453.026L45.0685 456.382C46.1197 457.007 47.464 456.72 48.0883 455.668C48.4196 455.138 48.5152 454.468 48.3241 453.843L43.2465 437.05C42.0997 433.261 44.2531 429.228 48.0883 428.08C48.7573 427.889 49.4262 427.793 50.1461 427.793H62.7924C62.1171 435.321 62.3146 441.229 63.9391 444.828C69.45 457.25 79.7453 455.38 84.0584 467.369V467.464L18.4382 467.656C17.5717 463.292 16.476 457.007 15.7051 449.906Z" fill="white"/>
<path d="M84.0599 467.367C84.9709 470.009 85.4487 472.739 85.4933 475.521L20.3573 475.999C20.3573 475.999 19.4908 472.835 18.3887 467.367H84.0599Z" fill="#1A1A1A"/>
<path d="M89.039 261.488C87.5992 275.971 85.9236 291.373 84.1016 306.385" stroke="black" stroke-width="4" stroke-linecap="round" stroke-linejoin="round"/>
<path d="M66.2925 449.338L61.0684 453.989" stroke="#EAEAEA" stroke-width="4" stroke-linecap="round" stroke-linejoin="round"/>
<path d="M70.9713 453.977L65.8555 458.781" stroke="#EAEAEA" stroke-width="4" stroke-linecap="round" stroke-linejoin="round"/>
<path d="M86.3092 137.683C73.2807 139.265 56.71 129.624 51.3457 116.048C55.3211 114.561 59.4367 113.508 63.6097 112.934C61.8832 104.685 58.8188 86.1633 57.8122 80.8869C56.3723 73.2117 56.2768 60.5025 64.6609 53.5482C73.045 46.5939 83.5825 43.2826 94.5977 47.602C104.989 51.6789 107.575 57.5294 111.837 70.2386C111.837 70.2386 116.628 70.7234 117.106 72.6375C117.635 74.7046 114.717 78.3923 114.717 78.3923C118.068 88.9514 118.068 94.2277 114.475 99.2616C110.691 104.583 101.3 104.78 97.471 103.817L99.2931 112.934L112.366 113.649C107.913 127.277 97.7131 136.343 86.3092 137.683Z" fill="#E5BB98"/>
<path d="M92.3936 44.5335C101.396 35.2313 117.444 40.9351 113.277 52.9807C108.964 65.4474 91.2468 64.9689 91.6291 65.5814L92.7312 73.1227C93.6868 78.4947 98.8091 82.0931 104.18 81.1361C104.415 81.0851 104.702 81.0404 104.944 80.9894L114.717 78.399C118.068 88.9517 118.068 95.0447 114.475 100.079C110.691 105.406 101.3 105.597 97.4712 104.64L95.6491 104.162C91.4825 103.007 88.3672 99.5554 87.6026 95.2871L85.4939 82.2399C85.4939 82.2399 74.4786 70.2453 67.7764 77.442C61.1634 84.5431 74.9564 96.627 74.6697 96.7546C69.6877 102.382 61.8833 104.64 61.8833 104.64C60.0167 95.5232 57.7168 83.9625 56.9969 80.077C55.557 72.4017 52.9259 57.2937 61.31 50.3394C69.1143 43.8636 81.7605 41.3243 92.3936 44.5335Z" fill="#231F20"/>
<path d="M78.7904 87.9942L74.9551 84.1543" stroke="black" stroke-width="4" stroke-linecap="round" stroke-linejoin="round"/>
<path d="M103.937 72.0622C103.065 72.0622 102.357 71.3606 102.357 70.4803C102.357 69.6064 103.065 68.8984 103.937 68.8984C104.81 68.8984 105.517 69.6064 105.517 70.4803C105.517 71.3606 104.81 72.0622 103.937 72.0622Z" fill="#231F20"/>
<path d="M111.836 86.5524C110.256 86.8904 108.58 86.361 107.529 85.1172" stroke="black" stroke-width="4" stroke-linecap="round" stroke-linejoin="round"/>
<path d="M114.233 211.75C114.233 211.75 116.246 216.739 119.17 225.18H97.4707V211.75H114.233Z" fill="white"/>
<path d="M37.1191 225.18C38.3169 220.816 39.7503 216.401 41.4322 211.941H69.1647C69.1647 211.897 69.2093 211.846 69.2093 211.75H79.7468V225.18H37.1191Z" fill="white"/>
<path d="M97.616 211.742L79.6501 211.697L79.6055 225.172H97.616V211.742Z" fill="white"/>
<path d="M9.7168 162.96C9.7168 162.96 23.2295 136.916 37.5959 123.965C41.7178 120.271 46.7954 117.725 51.3443 116.047C60.0151 128.616 72.6103 136.004 85.6834 134.422C97.0873 133.031 106.523 125.113 112.365 113.604L144.359 115.281L151.113 115.664L146.137 160.944C144.124 161.142 142.11 161.282 140.148 161.429C128.553 162.194 119.073 162.143 117.06 162.335L122.424 212.61L32.2825 212.227L46.1711 186.324L9.7168 162.96Z" fill="#1A1A1A"/>
<path opacity="0.2" d="M129.132 161.953C123.048 162.144 118.448 162.24 117.104 162.336L116.244 151.643L129.132 161.953Z" fill="black"/>
<path opacity="0.2" d="M46.5126 212.177L33.1465 211.89L53.5525 172.602L46.5126 212.177Z" fill="black"/>
<path d="M117.106 162.342L116.15 150.354" stroke="black" stroke-width="4" stroke-linecap="round" stroke-linejoin="round"/>
<path d="M9.81291 162.82C9.81291 162.82 -4.07565 187.766 1.19308 203.596C6.46181 219.425 31.372 236.211 41.9095 243.886C41.9095 243.886 43.3429 250.604 48.1339 260.678C48.1339 260.678 44.7828 281.305 48.1339 283.219C51.1537 284.948 54.8424 269.789 54.7468 271.729C55.0781 273.847 55.3202 293.293 62.9844 289.459C62.9844 289.459 66.3355 293.772 69.6866 289.937C69.6866 289.937 73.0441 291.858 74.4775 285.618C75.7262 280.297 76.3952 266.912 74.9553 256.359C73.7576 247.771 68.1066 232.421 59.1491 221.345C51.0071 211.271 39.9918 198.798 39.9918 198.798L46.2672 186.229L9.81291 162.82Z" fill="#E5BB98"/>
<path d="M39.9921 198.798L35.2012 193.043" stroke="black" stroke-width="4" stroke-linecap="round" stroke-linejoin="round"/>
<path d="M69.6855 289.936C69.6855 289.936 70.6487 276.985 69.6855 264.512" stroke="black" stroke-width="4" stroke-linecap="round" stroke-linejoin="round"/>
<path d="M62.9854 289.458C62.9854 289.458 62.9854 277.463 62.0234 264.512" stroke="black" stroke-width="4" stroke-linecap="round" stroke-linejoin="round"/>
<path d="M55.2234 262.975L54.6621 271.754" stroke="black" stroke-width="4" stroke-linecap="round" stroke-linejoin="round"/>
<path d="M162.136 116.29C162.136 116.29 166.685 92.4478 173.151 68.8032C181.242 39.1102 191.639 9.37259 198.055 11.242C201.126 12.1543 199.017 20.8376 195.182 33.7828C199.017 31.3903 203.324 33.3043 203.324 37.6236C208.592 35.7032 210.032 40.5011 210.032 42.9C214.345 43.857 214.345 50.0967 214.345 53.9312C214.345 57.2871 212.428 59.686 209.554 59.686C209.268 65.5876 209.077 71.2021 204.286 75.0365C205.719 129.242 192.933 145.262 185.122 150.826C176.407 156.919 160.167 159.649 145.654 160.945L150.636 115.665L162.136 116.29Z" fill="#E5BB98"/>
<path d="M162.135 116.297L160.695 123.009" stroke="black" stroke-width="4" stroke-linecap="round" stroke-linejoin="round"/>
<path d="M210.032 42.9062C209.076 48.6611 207.732 53.9374 203.807 54.4159C199.972 54.8944 199.494 49.1396 199.494 49.1396" stroke="black" stroke-width="4" stroke-linecap="round" stroke-linejoin="round"/>
<path d="M209.554 59.6924C207.637 58.7353 206.203 56.8149 206.203 53.9375" stroke="black" stroke-width="4" stroke-linecap="round" stroke-linejoin="round"/>
<path d="M178.322 51.3417C182.533 48.0305 193.268 42.9009 198.537 42.4224C204.284 41.8928 199.015 52.0117 192.784 54.8955C195.466 60.2165 196.282 66.3094 195.18 72.16" stroke="black" stroke-width="4" stroke-linecap="round" stroke-linejoin="round"/>
<path d="M203.323 37.6309C203.323 39.5449 202.846 42.4287 201.412 43.8642" stroke="black" stroke-width="4" stroke-linecap="round" stroke-linejoin="round"/>
<path d="M195.181 33.7891C194.754 35.2753 193.983 36.3341 193.461 37.4823" stroke="black" stroke-width="4" stroke-linecap="round" stroke-linejoin="round"/>
<path d="M55.4609 168.098L46.3633 186.038" stroke="black" stroke-width="4" stroke-linecap="round" stroke-linejoin="round"/>
<path d="M364.198 330.482H530.409C546.744 330.482 560.001 343.759 560.001 360.118V378.34C560.001 394.692 546.744 407.975 530.409 407.975H364.198C347.87 407.975 334.605 394.692 334.605 378.34V360.118C334.605 343.759 347.87 330.482 364.198 330.482Z" fill="#DF2020"/>
<path d="M376.017 384.304C384.369 384.304 391.141 377.522 391.141 369.158C391.141 360.794 384.369 354.012 376.017 354.012C367.664 354.012 360.898 360.794 360.898 369.158C360.898 377.522 367.664 384.304 376.017 384.304Z" stroke="white" stroke-width="4" stroke-linecap="round" stroke-linejoin="round"/>
<path d="M386.721 379.877L391.327 384.49" stroke="white" stroke-width="4" stroke-linecap="round" stroke-linejoin="round"/>
<path d="M410.221 382.301H529.337" stroke="white" stroke-width="4" stroke-linecap="round" stroke-linejoin="round"/>
</svg>
