<svg width="574" height="501" viewBox="0 0 574 501" fill="none" xmlns="http://www.w3.org/2000/svg">
<path d="M530.401 246.254L549.611 250.869L533.288 261.99L539.007 280.95L521.13 272.276L507.583 286.677L506.139 266.939L486.93 262.379L503.308 251.259L497.645 232.354L515.411 240.917L529.013 226.516L530.401 246.254Z" fill="white"/>
<path d="M132.264 391.649L138.538 355.508L102.45 361.791L110.778 370.187L95.6211 385.366L108.724 398.488L123.881 383.309L132.264 391.649Z" fill="#DF2020"/>
<path d="M429.879 36.642L466.022 42.9251L459.748 6.7835L451.365 15.1795L436.208 0L423.105 13.1222L438.262 28.3017L429.879 36.642Z" fill="#DF2020"/>
<path d="M101.314 33.4434H294.188C309.068 33.4434 321.115 45.5091 321.115 60.4662V286.156C321.115 301.058 309.068 313.124 294.188 313.124H101.314C86.4344 313.124 74.3867 301.058 74.3867 286.156V60.4662C74.3867 45.5647 86.4344 33.4434 101.314 33.4434Z" fill="white"/>
<path d="M441.764 92.1172H561.403C568.315 92.1172 573.956 97.7608 573.956 104.683V175.076C573.956 182.004 568.315 187.648 561.403 187.648H441.764C434.846 187.648 429.211 182.004 429.211 175.076V104.683C429.211 97.7608 434.846 92.1172 441.764 92.1172Z" fill="white"/>
<path d="M574 110.377H429.211V130.538H574V110.377Z" fill="#696969"/>
<path d="M454.927 157.342H473.588C477.757 157.342 481.122 160.711 481.122 164.932C481.122 169.107 477.757 172.521 473.588 172.521H454.927C450.758 172.521 447.399 169.152 447.399 164.932C447.349 160.711 450.758 157.342 454.927 157.342Z" fill="#F3F2EA"/>
<path d="M544.393 172.423C550.728 172.423 555.858 167.285 555.858 160.941C555.858 154.608 550.728 149.465 544.393 149.465C538.064 149.465 532.934 154.608 532.934 160.941C532.934 167.285 538.064 172.423 544.393 172.423Z" fill="white"/>
<path d="M529.573 172.423C535.902 172.423 541.037 167.285 541.037 160.941C541.037 154.608 535.902 149.465 529.573 149.465C523.238 149.465 518.113 154.608 518.113 160.941C518.113 167.285 523.238 172.423 529.573 172.423Z" fill="white"/>
<path d="M184.109 493.801V489.481C184.109 486.039 186.869 483.281 190.3 483.281C193.736 483.281 196.49 486.039 196.49 489.481V493.801C196.49 497.243 193.736 500.001 190.3 500.001C186.869 500.056 184.109 497.243 184.109 493.801Z" fill="black"/>
<path d="M256.676 493.801V489.481C256.676 486.039 259.435 483.281 262.866 483.281C266.303 483.281 269.057 486.039 269.057 489.481V493.801C269.057 497.243 266.303 500.001 262.866 500.001C259.485 500.056 256.676 497.243 256.676 493.801Z" fill="black"/>
<path d="M183.537 362.512H269.22C280.924 362.512 290.39 371.992 290.39 383.719V469.524C290.39 481.245 280.924 490.731 269.22 490.731H183.537C171.833 490.731 162.367 481.245 162.367 469.524V383.719C162.367 371.992 171.833 362.512 183.537 362.512Z" fill="#CECDCE"/>
<path opacity="0.2" d="M226.352 457.805C240.082 457.805 251.213 446.656 251.213 432.9C251.213 419.144 240.082 407.996 226.352 407.996C212.616 407.996 201.484 419.144 201.484 432.9C201.484 446.656 212.616 457.805 226.352 457.805Z" fill="black"/>
<path d="M187.225 384.027H265.413C267.29 384.027 268.8 385.54 268.8 387.414V465.718C268.8 467.592 267.29 469.105 265.413 469.105H187.225C185.354 469.105 183.844 467.592 183.844 465.718V387.414C183.844 385.54 185.354 384.027 187.225 384.027Z" stroke="black" stroke-width="2"/>
<path d="M226.352 451.498C240.082 451.498 251.213 440.35 251.213 426.594C251.213 412.838 240.082 401.689 226.352 401.689C212.616 401.689 201.484 412.838 201.484 426.594C201.484 440.35 212.616 451.498 226.352 451.498Z" fill="#FCFBFC"/>
<path d="M226.351 435.084C231.031 435.084 234.828 431.281 234.828 426.594C234.828 421.907 231.031 418.104 226.351 418.104C221.665 418.104 217.867 421.907 217.867 426.594C217.867 431.281 221.665 435.084 226.351 435.084Z" fill="black"/>
<path d="M181.718 400.021H186.038C189.469 400.021 192.228 402.785 192.228 406.221C192.228 409.663 189.469 412.426 186.038 412.426H181.718C178.287 412.426 175.528 409.663 175.528 406.221C175.478 402.835 178.287 400.021 181.718 400.021Z" fill="black"/>
<path d="M181.718 440.713H186.038C189.469 440.713 192.228 443.476 192.228 446.913C192.228 450.354 189.469 453.112 186.038 453.112H181.718C178.287 453.112 175.528 450.354 175.528 446.913C175.478 443.476 178.287 440.713 181.718 440.713Z" fill="black"/>
<path d="M112.202 96.1484H287.089C288.921 96.1484 290.42 97.6497 290.42 99.4846C290.42 101.319 288.921 102.821 287.089 102.821H112.202C110.37 102.821 108.871 101.319 108.871 99.4846C108.871 97.6497 110.37 96.1484 112.202 96.1484Z" fill="#F3F2EA"/>
<path d="M245.057 114.665C253.49 114.665 260.325 107.821 260.325 99.3747C260.325 90.9286 253.49 84.084 245.057 84.084C236.624 84.084 229.789 90.9286 229.789 99.3747C229.789 107.821 236.624 114.665 245.057 114.665Z" fill="black"/>
<path d="M111.98 165.375H286.866C288.698 165.375 290.197 166.876 290.197 168.711C290.197 170.546 288.698 172.047 286.866 172.047H111.98C110.147 172.047 108.648 170.546 108.648 168.711C108.648 166.876 110.147 165.375 111.98 165.375Z" fill="#F3F2EA"/>
<path d="M195.592 184.169C204.025 184.169 210.86 177.325 210.86 168.879C210.86 160.433 204.025 153.588 195.592 153.588C187.159 153.588 180.324 160.433 180.324 168.879C180.324 177.325 187.159 184.169 195.592 184.169Z" fill="white"/>
<path d="M143.65 271.501C152.283 262.849 152.283 248.832 143.65 240.186C135.017 231.54 121.02 231.54 112.381 240.186C103.748 248.832 103.748 262.849 112.381 271.501C121.02 280.147 135.017 280.147 143.65 271.501Z" fill="#F3F2EA"/>
<path d="M128.105 242.482V246.558" stroke="black" stroke-width="2" stroke-linecap="round" stroke-linejoin="round"/>
<path d="M128.105 265.139V269.209" stroke="black" stroke-width="2" stroke-linecap="round" stroke-linejoin="round"/>
<path d="M132.31 246.643H126.353C124.032 246.643 122.145 248.533 122.145 250.857C122.145 252.725 123.377 254.36 125.148 254.905L130.761 256.568C132.627 257.113 133.887 258.831 133.887 260.754C133.887 263.162 131.938 265.114 129.534 265.114H123.144" stroke="black" stroke-width="2" stroke-linecap="round" stroke-linejoin="round"/>
<path d="M199.98 279.514C212.61 279.514 222.854 269.261 222.854 256.605C222.854 243.956 212.61 233.697 199.98 233.697C187.349 233.697 177.105 243.956 177.105 256.605C177.105 269.261 187.349 279.514 199.98 279.514Z" fill="#F3F2EA"/>
<path d="M192.043 247.932L199.816 255.716L207.588 247.932" stroke="black" stroke-width="2" stroke-linecap="round" stroke-linejoin="round"/>
<path d="M199.812 255.715V266.335" stroke="black" stroke-width="2" stroke-linecap="round" stroke-linejoin="round"/>
<path d="M195.371 257.439H204.254" stroke="black" stroke-width="2" stroke-linecap="round" stroke-linejoin="round"/>
<path d="M268.933 279.514C281.563 279.514 291.807 269.261 291.807 256.605C291.807 243.956 281.563 233.697 268.933 233.697C256.302 233.697 246.059 243.956 246.059 256.605C246.059 269.261 256.302 279.514 268.933 279.514Z" fill="white"/>
<path d="M266.933 266.335V247.986H272.762C275.372 247.986 277.481 250.099 277.481 252.713C277.481 255.326 275.372 257.439 272.762 257.439H263.602" stroke="#7F7F7F" stroke-width="2" stroke-linecap="round" stroke-linejoin="round"/>
<path d="M263.602 262.109H270.819" stroke="#7F7F7F" stroke-width="2" stroke-linecap="round" stroke-linejoin="round"/>
<path d="M43.8604 125.607C24.9838 143.956 0 141.732 0 141.732V188.994C0 223.468 36.6429 237.368 43.8604 237.368C51.0779 237.368 87.7208 223.468 87.7208 188.994V141.732C87.7208 141.732 62.737 143.956 43.8604 125.607Z" fill="#DF2020"/>
<path d="M43.8584 204.396C56.4946 204.396 66.7324 194.143 66.7324 181.488C66.7324 168.839 56.4946 158.58 43.8584 158.58C31.2277 158.58 20.9844 168.839 20.9844 181.488C20.9844 194.143 31.2277 204.396 43.8584 204.396Z" fill="white"/>
<path d="M36.3633 180.655L42.4704 186.771L51.3535 176.207" stroke="#696969" stroke-width="2" stroke-linecap="round" stroke-linejoin="round"/>
<path d="M535.237 471.488L468.342 499.739C468.286 499.739 468.286 499.739 468.286 499.684C467.342 497.131 466.898 494.412 466.954 491.749L467.176 491.026L533.905 462.941C533.96 462.941 534.071 463.442 534.071 463.442C535.071 468.435 535.293 471.098 535.237 471.488C535.293 471.488 535.293 471.488 535.237 471.488Z" fill="#CECDCE"/>
<path d="M534.071 463.386C532.466 454.667 530.245 445.954 527.808 437.408C527.364 435.962 526.87 434.3 526.37 432.743L526.315 432.688L499.654 433.077L477.985 441.345C477.929 441.345 477.929 441.4 477.929 441.4C479.756 445.009 481.31 449.007 482.304 452.893C483.137 456.335 483.248 459.221 482.415 461.606C478.096 473.761 467.453 480.478 466.953 491.693L534.071 463.386Z" fill="black"/>
<path d="M404.719 499.794H332.056C332 499.794 332 499.794 332 499.738C332.111 497.075 332.833 494.356 333.999 491.915C333.999 491.915 333.999 491.859 334.054 491.859L372.074 488.695L406.768 491.859C406.824 491.859 406.824 491.915 406.824 491.915C405.713 496.852 404.886 499.46 404.719 499.794C404.775 499.794 404.775 499.794 404.719 499.794Z" fill="#CECDCE"/>
<path d="M363.873 453.172C363.818 453.172 363.818 453.172 363.873 453.172C363.873 458.499 363.374 462.941 362.158 466.272C361.658 467.712 360.881 469.046 359.887 470.208C351.237 479.761 338.767 481.702 334.004 491.86H406.829C408.655 483.364 410.21 474.985 411.154 466.439C411.265 465.382 411.431 464.103 411.537 462.886C411.537 462.886 411.537 462.83 411.487 462.83L388.818 453.839L363.873 453.172Z" fill="black"/>
<path d="M347.082 81.9429C346.082 84.167 349.574 87.1084 349.907 87.3864V87.442C347.909 93.7695 346.804 101.426 349.574 105.813C352.9 111.307 359.829 112.863 367.862 111.807C367.918 111.807 367.918 111.807 367.918 111.863L367.307 115.471L397.682 120.909C397.737 120.909 397.737 120.909 397.737 120.853C398.126 119.247 402.945 116.472 403.223 114.693C403.5 113.253 403.667 111.696 403.945 110.144C405.494 101.426 405.327 91.6011 406.437 85.0511C408.486 72.674 410.429 63.5162 396.127 54.2473C387.65 48.7538 377.34 47.9198 367.918 50.3607C367.918 50.3607 355.171 52.8573 354.616 68.1813C354.616 68.2369 352.012 78.8903 351.79 79.5576C351.79 79.5576 351.79 79.6132 351.734 79.6132C351.456 79.7244 347.798 80.1692 347.082 81.9429Z" fill="#D08058"/>
<path opacity="0.15" d="M367.414 115.472C368.192 115.305 374.51 113.804 379.168 108.199C379.223 108.143 379.168 108.088 379.112 108.088C374.343 110.584 368.469 111.696 368.025 111.808C368.025 111.808 367.97 111.808 367.97 111.863L367.359 115.416C367.303 115.416 367.359 115.472 367.414 115.472Z" fill="black"/>
<path d="M432.095 145.608C425.999 130.679 415.245 121.41 402.72 118.858C402.664 118.858 402.664 118.802 402.664 118.802L403.275 114.749C403.275 114.693 403.275 114.693 403.219 114.693L367.526 114.805C367.47 114.805 367.415 114.86 367.415 114.916L366.749 118.413C366.749 118.469 366.749 118.469 366.693 118.469C366.032 118.524 358.548 118.969 348.738 121.188C333.831 124.518 313.433 151.608 297.36 170.924H297.305L272.921 159.876H272.865L260.673 175.417L255.793 197.786V197.841C268.263 206.337 284.224 214.995 297.86 214.717C320.806 214.161 341.199 191.347 342.587 189.796C342.642 189.74 342.698 189.796 342.698 189.851L347.905 218.047C347.905 218.047 347.905 218.214 347.961 218.214L411.203 219.104L425.222 231.203C425.222 231.203 425.222 231.203 425.277 231.203C425.777 231.203 434.532 230.925 439.357 219.104C442.516 210.552 438.358 161.099 432.095 145.608Z" fill="#CECDCE"/>
<path opacity="0.2" d="M359.213 171.918L357.326 218.046C357.326 218.101 357.326 218.101 357.27 218.101H347.904C347.904 218.101 347.848 218.101 347.848 218.046L342.641 189.738V189.683L359.102 171.807C359.158 171.807 359.213 171.862 359.213 171.918Z" fill="black"/>
<path d="M354.67 68.2356C361.432 76.5036 372.797 84.6049 373.458 85.1053H373.514C374.18 84.5493 386.483 74.6743 392.912 80.7239C401.451 88.3803 389.42 99.8177 385.711 101.758C385.656 101.758 385.656 101.814 385.711 101.869C393.356 109.81 403.222 110.143 403.944 110.143C403.944 110.143 403.999 110.143 403.999 110.088C405.548 101.869 407.547 91.2105 408.485 85.6058C410.539 73.2287 411.261 59.9619 397.015 50.693C388.537 45.1995 376.673 44.977 367.306 47.418H367.251C366.862 46.9176 360.822 39.4835 352.288 44.0874C344.86 48.9749 347.686 59.6839 354.67 68.2356Z" fill="#231F20"/>
<path d="M358.113 83.3853C359.029 83.3853 359.779 82.6402 359.779 81.7172C359.779 80.7998 359.029 80.0547 358.113 80.0547C357.192 80.0547 356.453 80.7998 356.453 81.7172C356.453 82.6402 357.192 83.3853 358.113 83.3853Z" fill="#231F20"/>
<path d="M211.846 139.67C211.901 139.67 211.957 139.614 211.901 139.558C208.853 137.785 208.02 131.346 211.846 132.514C224.926 136.45 240.055 144.39 251.636 150.162L251.692 150.217L247.095 169.089L237.007 182.356C237.007 182.356 237.007 182.356 236.951 182.356C230.356 182.578 220.046 179.97 212.617 174.254C212.617 174.254 212.617 174.254 212.567 174.254C201.536 173.365 190.282 171.863 189.788 169.145C189.177 165.87 202.368 165.536 206.355 165.48C206.41 165.48 206.41 165.369 206.355 165.369C202.202 163.873 178.978 161.761 185.907 152.492V152.436C182.859 147.776 187.123 145.391 188.511 145.28C188.566 145.28 188.566 145.224 188.566 145.224C188.289 144.668 186.518 141.227 188.955 139.008C190.615 137.562 208.131 139.119 211.846 139.67Z" fill="#D08058"/>
<path d="M251.637 150.214L237.008 182.352V182.408C243.27 188.012 248.756 193.067 255.74 197.726C255.796 197.726 255.796 197.726 255.796 197.726L272.868 159.872C272.868 159.816 272.868 159.816 272.868 159.816L251.748 150.158C251.637 150.158 251.637 150.158 251.637 150.214Z" fill="#FCFBFC"/>
<path opacity="0.2" d="M411.148 218.045L418.294 185.796C418.294 185.74 418.405 185.74 418.405 185.796L419.571 227.092C419.571 227.147 419.515 227.147 419.46 227.147L411.148 218.045Z" fill="black"/>
<path d="M519.835 413.091C517.175 405.601 514.399 398.829 511.518 392.612C499.659 366.802 487.134 351.478 479.483 340.602C464.299 319.173 457.814 286.15 444.734 259.561C431.931 233.306 411.755 218.488 411.15 218.043C411.15 218.043 411.15 218.043 411.094 218.043H392.856L347.963 218.099C347.908 218.099 347.908 218.099 347.908 218.154C347.741 220.095 341.923 284.705 350.295 363.694C352.122 380.953 356.447 401.159 359.717 419.53C361.987 432.185 363.647 443.845 363.814 453.113C363.814 453.113 363.814 453.169 363.869 453.169L392.912 459.107L411.483 462.772C411.533 462.772 411.533 462.772 411.533 462.716C412.255 455.999 412.921 448.56 413.421 439.902C413.698 432.685 413.754 425.913 413.643 419.53C412.921 390.277 407.158 370.738 404.166 357.422C401.34 344.711 403 330.11 405.159 315.014C405.27 315.014 405.159 315.014 405.27 315.014C413.476 332.05 422.565 349.871 432.153 367.247C439.859 381.286 450.497 396.827 460.196 411.428C467.347 422.304 473.72 432.463 477.934 441.287L477.99 441.342L526.319 432.685C526.375 432.685 526.375 432.63 526.375 432.63C524.543 426.802 522.439 420.419 519.835 413.091Z" fill="#DF2020"/>
<path opacity="0.2" d="M419.74 343.99C419.795 344.046 419.851 344.046 419.851 343.935L416.192 304.69C415.47 296.862 413.921 289.038 411.534 281.543L409.541 275.216C409.541 275.16 409.43 275.16 409.43 275.216C409.374 288.204 407.103 301.693 405.16 314.849C405.16 314.849 405.16 314.849 405.16 314.905C409.818 324.451 414.698 334.221 419.74 343.99Z" fill="black"/>
<path d="M358.274 91.5996C357.718 93.1565 355.17 94.3742 353.621 93.8237" stroke="black" stroke-width="2" stroke-linecap="round" stroke-linejoin="round"/>
<path d="M379.108 108.088C375.727 109.812 369.631 111.53 367.91 111.863" stroke="black" stroke-width="2" stroke-linecap="round" stroke-linejoin="round"/>
<path d="M385.769 89.0469L380.723 93.1003" stroke="black" stroke-width="2" stroke-linecap="round" stroke-linejoin="round"/>
<path d="M342.59 189.795L359.107 171.863" stroke="black" stroke-width="2" stroke-linecap="round" stroke-linejoin="round"/>
<path d="M188.566 145.334C188.566 145.334 206.521 146.83 218.164 149.382" stroke="black" stroke-width="2" stroke-linecap="round" stroke-linejoin="round"/>
<path d="M211.844 139.555L220.71 141.056" stroke="black" stroke-width="2" stroke-linecap="round" stroke-linejoin="round"/>
<path d="M185.965 152.6C185.965 152.6 205.086 156.431 215.007 158.321" stroke="black" stroke-width="2" stroke-linecap="round" stroke-linejoin="round"/>
<path d="M405.273 315.072C407.494 300.026 409.21 290.151 409.543 275.271" stroke="#161616" stroke-width="2" stroke-linecap="round" stroke-linejoin="round"/>
<path d="M494.673 455.167L482.809 455.111" stroke="#CECDCE" stroke-width="2" stroke-linecap="round" stroke-linejoin="round"/>
<path d="M493.558 464.436L482.082 462.385" stroke="#CECDCE" stroke-width="2" stroke-linecap="round" stroke-linejoin="round"/>
<path d="M372.625 470.82L362.148 466.271" stroke="#CECDCE" stroke-width="2" stroke-linecap="round" stroke-linejoin="round"/>
<path d="M367.918 478.926L357.941 472.209" stroke="#CECDCE" stroke-width="2" stroke-linecap="round" stroke-linejoin="round"/>
<path d="M362.824 218.156C362.824 218.156 363.102 300.971 370.303 352.981C377.509 404.992 384.993 443.457 383.55 457.002" stroke="black" stroke-width="2" stroke-linecap="round" stroke-linejoin="round"/>
<path d="M411.148 218.046L418.294 185.797" stroke="black" stroke-width="2" stroke-linecap="round" stroke-linejoin="round"/>
</svg>
