<svg width="486" height="508" viewBox="0 0 486 508" fill="none" xmlns="http://www.w3.org/2000/svg">
<path d="M420.217 365.934L163.606 81.6152L0 295.49L420.217 365.934Z" fill="white"/>
<path d="M375.895 133.664L90.5579 107.316L64.2891 387.099L349.626 413.451L375.895 133.664Z" fill="#DF2020"/>
<path d="M390.342 391.627C366.242 414.379 318.571 460.767 256.677 470.238C194.782 479.71 180.301 449.83 206.539 427.447C234.332 403.754 307.59 393.565 353.139 400.85C398.682 408.139 415.516 424.34 410.806 439.734C404.66 459.935 348.345 496.762 279.383 479.497C210.426 462.237 281.919 388.936 314.343 374.196C344.322 360.583 364.272 365.95 362.664 387.367C360.882 411.646 325.518 482.588 246.293 506" stroke="#1A1A1A" stroke-width="4" stroke-linecap="round" stroke-linejoin="round"/>
<path d="M452.632 204.871C400.649 194.262 333.301 166.719 311.973 95.4034C290.644 24.0926 339.808 2.83186 383.093 71.046C426.379 139.26 445.748 234.565 424.43 241.47C403.112 248.375 344.879 164.257 371.74 111.931C398.606 59.6051 493.151 81.2348 476.533 152.405C466.133 196.849 390.753 206.815 311.412 151.112C232.076 95.4034 343.669 18.0968 401.037 63.9227C458.405 109.749 432.173 213.403 371.389 219.321C316.808 224.745 296.685 137.982 348.112 96.853" stroke="#1A1A1A" stroke-width="4" stroke-linecap="round" stroke-linejoin="round"/>
<path d="M179.604 272.794H120.801L166.208 218.488V313.606" stroke="white" stroke-width="4" stroke-linecap="round" stroke-linejoin="round"/>
<path d="M320.065 272.794H261.156L306.668 218.488V313.606" stroke="white" stroke-width="4" stroke-linecap="round" stroke-linejoin="round"/>
<path d="M215.863 218.488H226.284C237.449 218.488 246.486 227.451 246.486 238.523V292.62C246.486 303.692 237.449 312.655 226.284 312.655H215.863C204.699 312.655 195.656 303.692 195.656 292.62V238.523C195.656 227.451 204.699 218.488 215.863 218.488Z" stroke="white" stroke-width="4" stroke-linecap="round" stroke-linejoin="round"/>
<path d="M106.69 30.0571L140.561 41.2018L107.502 47.8419L110.31 74.2048L92.2094 52.3466L70.7658 71.3628L82.7004 42.3812L50.5586 39.269L82.648 31.6106L69.6289 6.58814L94.2107 24.4301L110.2 0L106.69 30.0571Z" fill="#DF2020"/>
<path d="M456.944 431.222C472.991 431.222 486 418.321 486 402.406C486 386.487 472.991 373.586 456.944 373.586C440.892 373.586 427.883 386.487 427.883 402.406C427.883 418.321 440.892 431.222 456.944 431.222Z" fill="#DF2020"/>
</svg>
