<svg xmlns="http://www.w3.org/2000/svg">
    <symbol id="loupe" viewBox="0 0 25 24" fill="none"><!-- stroke -->
        <path d="M16.5 16L21.5 21" stroke-width="1.5" stroke-linecap="round" stroke-linejoin="round"/>
        <circle cx="11" cy="10.5" r="7.75" stroke-width="1.5" stroke-linecap="round" stroke-linejoin="round"/>
    </symbol>
    <symbol id="edit" viewBox="0 0 24 24" fill="none"><!-- stroke -->
        <path d="M13 2L3 14H12L11 22L21 10H12L13 2Z" stroke-width="1.5" stroke-linecap="round" stroke-linejoin="round"/>
    </symbol>
    <symbol id="categories" viewBox="0 0 24 24" fill="none"><!-- stroke -->
        <path d="M8 6H21" stroke-width="1.5" stroke-linecap="round" stroke-linejoin="round"/>
        <path d="M8 12H21" stroke-width="1.5" stroke-linecap="round" stroke-linejoin="round"/>
        <path d="M8 18H21" stroke-width="1.5" stroke-linecap="round" stroke-linejoin="round"/>
        <path d="M3 6H3.01" stroke-width="1.5" stroke-linecap="round" stroke-linejoin="round"/>
        <path d="M3 12H3.01" stroke-width="1.5" stroke-linecap="round" stroke-linejoin="round"/>
        <path d="M3 18H3.01" stroke-width="1.5" stroke-linecap="round" stroke-linejoin="round"/>
    </symbol>
    <symbol id="user" viewBox="0 0 25 24" fill="none"><!-- stroke -->
        <path d="M12.5 12C14.7091 12 16.5 10.2091 16.5 8C16.5 5.79086 14.7091 4 12.5 4C10.2909 4 8.5 5.79086 8.5 8C8.5 10.2091 10.2909 12 12.5 12Z" stroke-width="1.5" stroke-linecap="round" stroke-linejoin="round"/>
        <path d="M20.5 20L20.1584 19.3167C19.142 17.284 17.0644 16 14.7918 16H10.2082C7.93557 16 5.85799 17.284 4.84164 19.3167L4.5 20" stroke-width="1.5" stroke-linecap="round" stroke-linejoin="round"/>
    </symbol>
    <symbol id="bill-list" viewBox="0 0 28 28"><!-- fill -->
        <path fill-rule="evenodd" clip-rule="evenodd" d="M8.45252 2.33398H19.5475C20.8995 2.33398 21.5755 2.33398 22.1207 2.52369C23.1546 2.88343 23.9663 3.71904 24.3157 4.78336C24.5 5.34462 24.5 6.04054 24.5 7.43239V23.7705C24.5 24.7718 23.3508 25.3031 22.6239 24.6379C22.1968 24.247 21.5532 24.247 21.1261 24.6379L20.5625 25.1536C19.814 25.8386 18.686 25.8386 17.9375 25.1536C17.189 24.4687 16.061 24.4687 15.3125 25.1536C14.564 25.8386 13.436 25.8386 12.6875 25.1536C11.939 24.4687 10.811 24.4687 10.0625 25.1536C9.31398 25.8386 8.18602 25.8386 7.4375 25.1536L6.87389 24.6379C6.4468 24.247 5.8032 24.247 5.37611 24.6379C4.64916 25.3031 3.5 24.7718 3.5 23.7705V7.43239C3.5 6.04054 3.5 5.34462 3.68428 4.78336C4.03373 3.71904 4.84542 2.88343 5.87929 2.52369C6.42449 2.33398 7.1005 2.33398 8.45252 2.33398ZM8.16667 7.87565C7.68342 7.87565 7.29167 8.2674 7.29167 8.75065C7.29167 9.2339 7.68342 9.62565 8.16667 9.62565H8.75C9.23325 9.62565 9.625 9.2339 9.625 8.75065C9.625 8.2674 9.23325 7.87565 8.75 7.87565H8.16667ZM12.25 7.87565C11.7668 7.87565 11.375 8.2674 11.375 8.75065C11.375 9.2339 11.7668 9.62565 12.25 9.62565H19.8333C20.3166 9.62565 20.7083 9.2339 20.7083 8.75065C20.7083 8.2674 20.3166 7.87565 19.8333 7.87565H12.25ZM8.16667 11.959C7.68342 11.959 7.29167 12.3507 7.29167 12.834C7.29167 13.3172 7.68342 13.709 8.16667 13.709H8.75C9.23325 13.709 9.625 13.3172 9.625 12.834C9.625 12.3507 9.23325 11.959 8.75 11.959H8.16667ZM12.25 11.959C11.7668 11.959 11.375 12.3507 11.375 12.834C11.375 13.3172 11.7668 13.709 12.25 13.709H19.8333C20.3166 13.709 20.7083 13.3172 20.7083 12.834C20.7083 12.3507 20.3166 11.959 19.8333 11.959H12.25ZM8.16667 16.0423C7.68342 16.0423 7.29167 16.4341 7.29167 16.9173C7.29167 17.4006 7.68342 17.7923 8.16667 17.7923H8.75C9.23325 17.7923 9.625 17.4006 9.625 16.9173C9.625 16.4341 9.23325 16.0423 8.75 16.0423H8.16667ZM12.25 16.0423C11.7668 16.0423 11.375 16.4341 11.375 16.9173C11.375 17.4006 11.7668 17.7923 12.25 17.7923H19.8333C20.3166 17.7923 20.7083 17.4006 20.7083 16.9173C20.7083 16.4341 20.3166 16.0423 19.8333 16.0423H12.25Z" />
    </symbol>
    <symbol id="card" viewBox="0 0 29 28"><!-- fill -->
        <path d="M16.668 4.66602H12.0013C7.60153 4.66602 5.40164 4.66602 4.0348 6.03285C3.05067 7.01698 2.77512 8.43298 2.69797 10.791H25.9713C25.8941 8.43298 25.6186 7.01698 24.6345 6.03285C23.2676 4.66602 21.0677 4.66602 16.668 4.66602Z" fill="#1A1A1A"/>
        <path d="M12.0013 23.3327H16.668C21.0677 23.3327 23.2676 23.3327 24.6345 21.9658C26.0013 20.599 26.0013 18.3991 26.0013 13.9993C26.0013 13.4838 26.0013 12.9984 25.9991 12.541H2.67017C2.66797 12.9984 2.66797 13.4838 2.66797 13.9993C2.66797 18.3991 2.66797 20.599 4.0348 21.9658C5.40164 23.3327 7.60153 23.3327 12.0013 23.3327Z" fill="#1A1A1A"/>
        <path fill-rule="evenodd" clip-rule="evenodd" d="M6.45964 18.666C6.45964 18.1828 6.85139 17.791 7.33464 17.791H12.0013C12.4846 17.791 12.8763 18.1828 12.8763 18.666C12.8763 19.1493 12.4846 19.541 12.0013 19.541H7.33464C6.85139 19.541 6.45964 19.1493 6.45964 18.666Z" fill="white"/>
        <path fill-rule="evenodd" clip-rule="evenodd" d="M14.043 18.666C14.043 18.1828 14.4347 17.791 14.918 17.791H16.668C17.1512 17.791 17.543 18.1828 17.543 18.666C17.543 19.1493 17.1512 19.541 16.668 19.541H14.918C14.4347 19.541 14.043 19.1493 14.043 18.666Z" fill="white"/>
    </symbol>
    <symbol id="point-on-map" viewBox="0 0 29 28"><!-- fill -->
        <path d="M25.166 19.6339V13.0227C25.166 11.8052 25.166 11.1965 24.8357 10.7382C24.5689 10.3679 24.1407 10.1712 23.3771 9.90625C23.221 11.7802 22.6004 13.6938 21.6258 15.3687C20.491 17.319 18.8058 19.0626 16.6458 20.0049C15.387 20.554 13.945 20.554 12.6862 20.0049C10.5263 19.0626 8.84106 17.319 7.70625 15.3687C6.96702 14.0983 6.43145 12.6905 6.14774 11.2669C5.70144 11.2012 5.35893 11.2349 5.06338 11.3998C4.94545 11.4656 4.83554 11.5448 4.73583 11.6359C4.16602 12.1563 4.16602 13.124 4.16602 15.0594V20.8107C4.16602 22.0283 4.16602 22.637 4.49634 23.0953C4.82667 23.5536 5.40418 23.7461 6.55922 24.1311L7.00671 24.2803L7.00672 24.2803C8.84652 24.8936 9.76643 25.2002 10.7074 25.202C10.9908 25.2025 11.2738 25.1824 11.5543 25.1418C12.4856 25.007 13.3604 24.5695 15.1101 23.6947C16.4509 23.0243 17.1214 22.6891 17.8335 22.5335C18.0835 22.479 18.3367 22.4409 18.5917 22.4195C19.3181 22.3587 20.051 22.4809 21.5168 22.7252C23.0024 22.9728 23.7452 23.0966 24.2875 22.7852C24.4717 22.6794 24.6351 22.541 24.7697 22.3767C25.166 21.893 25.166 21.1399 25.166 19.6339Z" />
        <path fill-rule="evenodd" clip-rule="evenodd" d="M14.666 2.33398C10.8 2.33398 7.66602 5.31145 7.66602 8.98434C7.66602 12.6284 9.90017 16.8808 13.3859 18.4014C14.1985 18.7559 15.1335 18.7559 15.9461 18.4014C19.4319 16.8808 21.666 12.6284 21.666 8.98434C21.666 5.31145 18.532 2.33398 14.666 2.33398ZM14.666 11.6673C15.9547 11.6673 16.9993 10.6226 16.9993 9.33398C16.9993 8.04532 15.9547 7.00065 14.666 7.00065C13.3774 7.00065 12.3327 8.04532 12.3327 9.33398C12.3327 10.6226 13.3774 11.6673 14.666 11.6673Z" />
    </symbol>
    <symbol id="bag" viewBox="0 0 28 28"><!-- fill -->
        <path fill-rule="evenodd" clip-rule="evenodd" d="M9.62595 8.18237C9.62586 8.17714 9.62581 8.17191 9.62581 8.16667V7C9.62581 4.58375 11.5846 2.625 14.0008 2.625C16.4171 2.625 18.3758 4.58375 18.3758 7V8.16667C18.3758 8.17191 18.3758 8.17714 18.3757 8.18237C19.8893 8.22471 20.8112 8.38125 21.5171 8.95997C22.4848 9.75327 22.7542 11.1001 23.2929 13.7939L23.9929 17.2939C24.7677 21.1677 25.155 23.1046 24.1048 24.3856C23.0546 25.6667 21.0794 25.6667 17.1288 25.6667H10.8728C6.92221 25.6667 4.94694 25.6667 3.89674 24.3856C2.84654 23.1046 3.23392 21.1677 4.00869 17.2939L4.70869 13.7939C5.24743 11.1001 5.5168 9.75327 6.48448 8.95997C7.19041 8.38124 8.11233 8.22471 9.62595 8.18237ZM11.3758 7C11.3758 5.55025 12.5511 4.375 14.0008 4.375C15.4506 4.375 16.6258 5.55025 16.6258 7V8.16667C16.6258 8.16666 16.6258 8.16667 16.6258 8.16667C16.5609 8.16666 16.4953 8.16667 16.4288 8.16667H11.5728C11.5063 8.16667 11.4407 8.16667 11.3758 8.16668C11.3758 8.16667 11.3758 8.16668 11.3758 8.16668V7ZM17.5008 12.8333C18.1451 12.8333 18.6675 12.311 18.6675 11.6667C18.6675 11.0223 18.1451 10.5 17.5008 10.5C16.8565 10.5 16.3341 11.0223 16.3341 11.6667C16.3341 12.311 16.8565 12.8333 17.5008 12.8333ZM11.6675 11.6667C11.6675 12.311 11.1451 12.8333 10.5008 12.8333C9.85646 12.8333 9.33412 12.311 9.33412 11.6667C9.33412 11.0223 9.85646 10.5 10.5008 10.5C11.1451 10.5 11.6675 11.0223 11.6675 11.6667Z" />
    </symbol>
    <symbol id="pie-chat" viewBox="0 0 29 28"><!-- fill -->
        <path d="M7.59374 5.36829C8.11239 5.02174 8.65698 4.72116 9.22125 4.46846C10.8218 3.75169 11.622 3.3933 12.6867 4.08304C13.7513 4.77278 13.7513 5.90422 13.7513 8.16708V9.91708C13.7513 12.117 13.7513 13.2169 14.4347 13.9003C15.1181 14.5837 16.2181 14.5837 18.418 14.5837H20.168C22.4308 14.5837 23.5623 14.5837 24.252 15.6484C24.9417 16.713 24.5834 17.5133 23.8666 19.1138C23.6139 19.6781 23.3133 20.2227 22.9668 20.7413C21.7489 22.564 20.0179 23.9845 17.9927 24.8234C15.9675 25.6623 13.739 25.8818 11.5891 25.4541C9.4391 25.0265 7.46424 23.9709 5.91421 22.4208C4.36418 20.8708 3.30859 18.896 2.88094 16.746C2.45328 14.596 2.67277 12.3676 3.51164 10.3423C4.35051 8.31712 5.77109 6.58614 7.59374 5.36829Z" />
        <path d="M25.355 8.24701C24.4079 5.84287 22.4916 3.92659 20.0875 2.97948C18.289 2.27098 16.668 3.90019 16.668 5.83319V10.4999C16.668 11.1442 17.1903 11.6665 17.8346 11.6665H22.5013C24.4343 11.6665 26.0635 10.0455 25.355 8.24701Z" />
    </symbol>
    <symbol id="user-id" viewBox="0 0 29 28"><!-- fill -->
        <path fill-rule="evenodd" clip-rule="evenodd" d="M12.3333 4.66602H17C21.3998 4.66602 23.5997 4.66602 24.9665 6.03285C26.3333 7.39969 26.3333 9.59957 26.3333 13.9993C26.3333 18.3991 26.3333 20.599 24.9665 21.9658C23.5997 23.3327 21.3998 23.3327 17 23.3327H12.3333C7.93356 23.3327 5.73367 23.3327 4.36684 21.9658C3 20.599 3 18.3991 3 13.9993C3 9.59957 3 7.39969 4.36684 6.03285C5.73367 4.66602 7.93356 4.66602 12.3333 4.66602ZM16.125 10.4993C16.125 10.0161 16.5168 9.62435 17 9.62435H22.8333C23.3166 9.62435 23.7083 10.0161 23.7083 10.4993C23.7083 10.9826 23.3166 11.3743 22.8333 11.3743H17C16.5168 11.3743 16.125 10.9826 16.125 10.4993ZM17.2917 13.9993C17.2917 13.5161 17.6834 13.1243 18.1667 13.1243H22.8333C23.3166 13.1243 23.7083 13.5161 23.7083 13.9993C23.7083 14.4826 23.3166 14.8743 22.8333 14.8743H18.1667C17.6834 14.8743 17.2917 14.4826 17.2917 13.9993ZM18.4583 17.4993C18.4583 17.0161 18.8501 16.6243 19.3333 16.6243H22.8333C23.3166 16.6243 23.7083 17.0161 23.7083 17.4993C23.7083 17.9826 23.3166 18.3743 22.8333 18.3743H19.3333C18.8501 18.3743 18.4583 17.9826 18.4583 17.4993ZM13.5 10.4993C13.5 11.788 12.4553 12.8327 11.1667 12.8327C9.878 12.8327 8.83333 11.788 8.83333 10.4993C8.83333 9.21068 9.878 8.16602 11.1667 8.16602C12.4553 8.16602 13.5 9.21068 13.5 10.4993ZM11.1667 19.8327C15.8333 19.8327 15.8333 18.788 15.8333 17.4993C15.8333 16.2107 13.744 15.166 11.1667 15.166C8.58934 15.166 6.5 16.2107 6.5 17.4993C6.5 18.788 6.5 19.8327 11.1667 19.8327Z" />
    </symbol>
    <symbol id="covid" viewBox="0 0 27 27"><!-- fill -->
        <path d="M12.3996 3.20078C12.3996 3.42167 12.2205 3.60078 11.9996 3.60078C11.7787 3.60078 11.5996 3.42167 11.5996 3.20078C11.5996 2.97989 11.7787 2.80078 11.9996 2.80078C12.2205 2.80078 12.3996 2.97989 12.3996 3.20078Z" />
        <path d="M12 6.4C12 6.17909 12.1791 6 12.4 6C12.6209 6 12.8 6.17909 12.8 6.4C12.8 6.62091 12.6209 6.8 12.4 6.8C12.1791 6.8 12 6.62091 12 6.4Z" />
        <path d="M10.8008 8.4C10.8008 8.17909 10.9799 8 11.2008 8C11.4217 8 11.6008 8.17909 11.6008 8.4C11.6008 8.62091 11.4217 8.8 11.2008 8.8C10.9799 8.8 10.8008 8.62091 10.8008 8.4Z" />
        <path d="M2.80078 10.8004C2.80078 10.5795 2.97987 10.4004 3.20078 10.4004C3.4217 10.4004 3.60078 10.5795 3.60078 10.8004C3.60078 11.0213 3.4217 11.2004 3.20078 11.2004C2.97987 11.2004 2.80078 11.0213 2.80078 10.8004Z" />
        <path d="M19.1992 16.4C19.1992 16.1791 19.3783 16 19.5992 16C19.8201 16 19.9992 16.1791 19.9992 16.4C19.9992 16.6209 19.8201 16.8 19.5992 16.8C19.3783 16.8 19.1992 16.6209 19.1992 16.4Z" />
        <path d="M22.4004 16.4C22.4004 16.1791 22.5795 16 22.8004 16C23.0213 16 23.2004 16.1791 23.2004 16.4C23.2004 16.6209 23.0213 16.8 22.8004 16.8C22.5795 16.8 22.4004 16.6209 22.4004 16.4Z" />
        <path d="M24.4004 14.8004C24.4004 14.5795 24.5795 14.4004 24.8004 14.4004C25.0213 14.4004 25.2004 14.5795 25.2004 14.8004C25.2004 15.0213 25.0213 15.2004 24.8004 15.2004C24.5795 15.2004 24.4004 15.0213 24.4004 14.8004Z" />
        <path d="M25.1992 17.5992C25.1992 17.3783 25.3783 17.1992 25.5992 17.1992C25.8201 17.1992 25.9992 17.3783 25.9992 17.5992C25.9992 17.8201 25.8201 17.9992 25.5992 17.9992C25.3783 17.9992 25.1992 17.8201 25.1992 17.5992Z" />
        <path d="M16.4004 25.5992C16.4004 25.3783 16.5795 25.1992 16.8004 25.1992C17.0213 25.1992 17.2004 25.3783 17.2004 25.5992C17.2004 25.8201 17.0213 25.9992 16.8004 25.9992C16.5795 25.9992 16.4004 25.8201 16.4004 25.5992Z" />
        <path d="M14.9643 18.8H15.4443C15.6093 18.8 15.7693 18.84 15.9143 18.91L16.4393 19.175C16.5593 19.235 16.7093 19.185 16.7693 19.065C16.7843 19.03 16.7943 18.995 16.7943 18.955V17.85C16.7943 17.715 16.6843 17.605 16.5493 17.605C16.5093 17.605 16.4743 17.615 16.4393 17.63L15.9143 17.895C15.7693 17.97 15.6093 18.005 15.4443 18.005H14.9643C14.569 18.005 14.3483 17.6109 14.2517 17.2275C14.1453 16.8056 13.9813 16.4005 13.7655 16.0238C13.5325 15.6171 13.5479 15.0915 13.8793 14.76C14.1043 14.535 14.4093 14.41 14.7293 14.41H15.2643C15.4843 14.41 15.6643 14.23 15.6643 14.01C15.6643 13.905 15.6243 13.8 15.5493 13.725L14.2843 12.45C14.1293 12.295 13.8743 12.295 13.7193 12.45C13.6443 12.525 13.6043 12.625 13.6043 12.735V13.27C13.6043 13.59 13.4793 13.895 13.2543 14.12C12.9229 14.4515 12.3972 14.4669 11.9905 14.2338C11.6139 14.018 11.2087 13.854 10.7868 13.7476C10.4035 13.651 10.0093 13.4304 10.0093 13.035V12.555C10.0093 12.39 10.0493 12.23 10.1193 12.0851L10.3843 11.5601C10.4443 11.4401 10.3943 11.2901 10.2743 11.2301C10.2393 11.2151 10.2043 11.2051 10.1643 11.2051H9.05928C8.92429 11.2051 8.81428 11.3151 8.81428 11.4501C8.81428 11.4901 8.82428 11.5251 8.83928 11.5601L9.10428 12.0851C9.17928 12.2301 9.21428 12.3901 9.21428 12.555V13.035C9.21428 13.4304 8.82011 13.651 8.43676 13.7476C8.02059 13.8525 7.62076 14.0135 7.24843 14.225C6.83078 14.4623 6.29315 14.4504 5.94927 14.115C5.72426 13.89 5.59927 13.585 5.59927 13.265V12.73C5.59927 12.51 5.41927 12.33 5.19926 12.33C5.09426 12.33 4.98926 12.37 4.91426 12.445L3.64925 13.715C3.49425 13.87 3.49425 14.125 3.64925 14.28C3.72425 14.355 3.82425 14.395 3.93425 14.395H4.46925C4.78925 14.395 5.09426 14.52 5.31927 14.745C5.65071 15.0764 5.6661 15.6021 5.43306 16.0088C5.21723 16.3854 5.05323 16.7906 4.94688 17.2125C4.85026 17.5958 4.62962 17.99 4.23428 17.99H3.75428C3.58927 17.99 3.42927 17.95 3.28429 17.88L2.7593 17.615C2.6393 17.555 2.4893 17.605 2.4293 17.725C2.4143 17.76 2.4043 17.795 2.4043 17.835V18.94C2.4043 19.075 2.5143 19.185 2.6493 19.185C2.6893 19.185 2.7243 19.175 2.7593 19.16L3.28428 18.895C3.42928 18.82 3.58928 18.785 3.75427 18.785H4.23427C4.62962 18.785 4.85025 19.1792 4.94688 19.5625C5.05178 19.9787 5.21279 20.3785 5.42429 20.7508C5.66155 21.1685 5.64964 21.7061 5.31428 22.05C5.08928 22.275 4.78427 22.4 4.46426 22.4H3.92927C3.70927 22.4 3.52927 22.58 3.52927 22.8C3.52927 22.905 3.56927 23.01 3.64427 23.085L4.91426 24.35C5.06926 24.505 5.32426 24.505 5.47924 24.35C5.55424 24.275 5.59424 24.175 5.59424 24.065V23.53C5.59424 23.21 5.71924 22.905 5.94424 22.68C6.27569 22.3485 6.80134 22.3332 7.20804 22.5662C7.58472 22.782 7.98984 22.946 8.41176 23.0524C8.79511 23.149 9.18928 23.3696 9.18928 23.765V24.245C9.18928 24.41 9.14928 24.57 9.07928 24.715L8.81428 25.2399C8.75428 25.3599 8.80428 25.5099 8.92428 25.5699C8.95928 25.5849 8.99428 25.5949 9.03428 25.5949H10.1393C10.2743 25.5949 10.3843 25.4849 10.3843 25.3499C10.3843 25.3099 10.3743 25.2749 10.3593 25.2399L10.0943 24.715C10.0193 24.57 9.98429 24.41 9.98429 24.245V23.765C9.98429 23.3696 10.3785 23.149 10.7618 23.0524C11.1837 22.946 11.5888 22.782 11.9655 22.5662C12.3722 22.3331 12.8979 22.3485 13.2293 22.68C13.4543 22.905 13.5793 23.21 13.5793 23.53V24.065C13.5793 24.285 13.7593 24.465 13.9793 24.465C14.0843 24.465 14.1893 24.425 14.2643 24.35L15.5343 23.08C15.6893 22.925 15.6893 22.67 15.5343 22.515C15.4593 22.44 15.3593 22.4 15.2493 22.4H14.7143C14.3943 22.4 14.0893 22.275 13.8643 22.05C13.5329 21.7186 13.5175 21.1929 13.7505 20.7863C13.9638 20.414 14.1264 20.0141 14.2329 19.5976C14.3328 19.2064 14.5606 18.8 14.9643 18.8ZM8.79924 19.2C8.79924 19.4209 8.62015 19.6 8.39924 19.6C8.17833 19.6 7.99924 19.4209 7.99924 19.2C7.99924 18.9791 8.17833 18.8 8.39924 18.8C8.62015 18.8 8.79924 18.9791 8.79924 19.2ZM9.19924 17.6C9.19924 17.821 9.02016 18 8.79924 18C8.57833 18 8.39924 17.821 8.39924 17.6C8.39924 17.3791 8.57833 17.2 8.79924 17.2C9.02016 17.2 9.19924 17.3791 9.19924 17.6ZM10.7993 18.8C10.7993 19.021 10.6202 19.2 10.3992 19.2C10.1783 19.2 9.99925 19.021 9.99925 18.8C9.99925 18.5791 10.1783 18.4 10.3992 18.4C10.6202 18.4 10.7993 18.5791 10.7993 18.8Z" />
        <path d="M24.95 20.76C24.95 20.76 24.95 20.76 24.9501 20.76L25.3176 20.5492C25.5094 20.4392 25.5755 20.1945 25.4653 20.0028C25.3548 19.8109 25.1094 19.7453 24.9179 19.8564L24.8846 19.8758C24.6935 19.9867 24.4517 19.9356 24.2978 19.777C24.2749 19.7534 24.2516 19.7301 24.228 19.7072C24.0694 19.5533 24.0183 19.3116 24.1292 19.1204L24.1486 19.0871C24.2597 18.8956 24.1941 18.6502 24.0022 18.5398C23.8105 18.4295 23.5658 18.4956 23.4558 18.6874L23.4378 18.7189C23.3278 18.9106 23.0926 18.9862 22.8801 18.9256C22.8496 18.9169 22.819 18.9087 22.7883 18.901C22.5724 18.8466 22.405 18.6625 22.405 18.4399V18.4C22.405 18.1791 22.2259 18 22.005 18C21.7841 18 21.605 18.1791 21.605 18.4V18.4373C21.605 18.6586 21.4386 18.8415 21.224 18.895C21.1929 18.9028 21.1619 18.911 21.1311 18.9197C20.9181 18.9801 20.6817 18.9047 20.5716 18.7127L20.5543 18.6824C20.4443 18.4906 20.1995 18.4245 20.0079 18.5348C19.816 18.6452 19.7503 18.8906 19.8615 19.0821L19.8808 19.1154C19.9918 19.3066 19.9407 19.5483 19.782 19.7023C19.7584 19.7252 19.7352 19.7484 19.7123 19.772C19.5584 19.9306 19.3166 19.9817 19.1255 19.8708L19.0921 19.8515C18.9006 19.7403 18.6553 19.8059 18.5448 19.9978C18.4345 20.1895 18.5007 20.4342 18.6925 20.5442L18.7239 20.5623C18.9156 20.6722 18.9913 20.9074 18.9307 21.1199C18.9222 21.1497 18.9142 21.1795 18.9066 21.2094C18.8517 21.4265 18.6666 21.595 18.4426 21.595H18.4C18.1791 21.595 18 21.7741 18 21.995C18 22.2159 18.1791 22.395 18.4 22.395H18.4373C18.6586 22.395 18.8416 22.5614 18.8951 22.776C18.9028 22.8071 18.911 22.8381 18.9198 22.8689C18.9801 23.0819 18.9048 23.3183 18.7127 23.4284L18.6825 23.4457C18.4906 23.5557 18.4245 23.8005 18.5348 23.9921C18.6452 24.184 18.8906 24.2496 19.0821 24.1385L19.1154 24.1192C19.3066 24.0082 19.5484 24.0593 19.7023 24.2179C19.7252 24.2415 19.7484 24.2648 19.772 24.2877C19.9306 24.4416 19.9818 24.6834 19.8708 24.8745L19.8515 24.9078C19.7403 25.0994 19.806 25.3447 19.9979 25.4552C20.1895 25.5655 20.4343 25.4993 20.5442 25.3075L20.5623 25.2761C20.6722 25.0844 20.9074 25.0087 21.12 25.0693C21.1497 25.0778 21.1795 25.0858 21.2095 25.0934C21.4266 25.1482 21.595 25.3334 21.595 25.5574V25.6C21.595 25.8209 21.7741 26 21.995 26C22.2159 26 22.395 25.8209 22.395 25.6V25.5627C22.395 25.3414 22.5614 25.1584 22.7761 25.1049C22.8072 25.0972 22.8381 25.0889 22.8689 25.0802C23.082 25.0199 23.3183 25.0952 23.4284 25.2873L23.4458 25.3175C23.5558 25.5093 23.8005 25.5755 23.9922 25.4652C24.1841 25.3547 24.2497 25.1094 24.1385 24.9179L24.1192 24.8845C24.0083 24.6934 24.0594 24.4516 24.218 24.2977C24.2416 24.2748 24.2649 24.2516 24.2878 24.228C24.4417 24.0693 24.6834 24.0182 24.8746 24.1292L24.9079 24.1485C25.0994 24.2597 25.3448 24.194 25.4552 24.0021C25.5655 23.8105 25.4994 23.5657 25.3076 23.4557L25.2761 23.4377C25.0844 23.3278 25.0088 23.0925 25.0694 22.88C25.0778 22.8503 25.0859 22.8205 25.0934 22.7905C25.1483 22.5734 25.3335 22.405 25.5574 22.405H25.6C25.821 22.405 26 22.2259 26 22.005C26 21.7841 25.821 21.605 25.6 21.605H25.5632C25.3418 21.605 25.1589 21.4383 25.1059 21.2233C25.0665 21.0638 25.0146 20.9087 24.95 20.76C24.95 20.76 24.95 20.76 24.95 20.76ZM21.2 22.4C21.2 22.6209 21.0209 22.8 20.8 22.8C20.5791 22.8 20.4 22.6209 20.4 22.4C20.4 22.179 20.5791 22 20.8 22C21.0209 22 21.2 22.179 21.2 22.4ZM21.6 20.8C21.6 21.0209 21.4209 21.2 21.2 21.2C20.9791 21.2 20.8 21.0209 20.8 20.8C20.8 20.5791 20.9791 20.4 21.2 20.4C21.4209 20.4 21.6 20.5791 21.6 20.8ZM22.8 23.2C22.8 23.4209 22.6209 23.6 22.4 23.6C22.1791 23.6 22 23.4209 22 23.2C22 22.979 22.1791 22.8 22.4 22.8C22.6209 22.8 22.8 22.979 22.8 23.2ZM23.2 21.6C23.2 21.8209 23.0209 22 22.8 22C22.5791 22 22.4 21.8209 22.4 21.6C22.4 21.3791 22.5791 21.2 22.8 21.2C23.0209 21.2 23.2 21.3791 23.2 21.6Z" />
        <path d="M2.53489 7.99979C2.64539 8.1904 2.88952 8.25529 3.08007 8.14469L3.11489 8.12448C3.30635 8.01336 3.54852 8.06457 3.70271 8.22341C3.72547 8.24686 3.74858 8.26996 3.77203 8.29272C3.93064 8.44662 3.98176 8.68839 3.87082 8.87954L3.85201 8.91195C3.74057 9.10396 3.80636 9.34997 3.99878 9.46071C4.1902 9.57088 4.43467 9.5055 4.54554 9.31448L4.56493 9.28106C4.67634 9.08911 4.91262 9.01384 5.12608 9.07464C5.15618 9.08321 5.18641 9.09132 5.21675 9.09896C5.4326 9.15333 5.60001 9.33742 5.60001 9.56V9.59995C5.60001 9.82086 5.7791 9.99995 6.00001 9.99995C6.22093 9.99995 6.40001 9.82086 6.40001 9.59995V9.56265C6.40001 9.3414 6.56641 9.1584 6.781 9.10452C6.8121 9.09671 6.84308 9.08841 6.87394 9.07962C7.0874 9.01883 7.32368 9.0941 7.43509 9.28605L7.45448 9.31946C7.56535 9.51048 7.80982 9.57586 8.00125 9.46569C8.19366 9.35495 8.25945 9.10894 8.14801 8.91693L8.1292 8.88452C8.01826 8.69338 8.06938 8.45161 8.22799 8.2977C8.25159 8.2748 8.27485 8.25154 8.29776 8.22794C8.45166 8.06933 8.69343 8.0182 8.88458 8.12914L8.917 8.14796C9.10901 8.2594 9.35502 8.19361 9.46576 8.0012C9.57593 7.80978 9.51054 7.5653 9.31952 7.45443L9.28611 7.43504C9.09416 7.32363 9.01889 7.08736 9.07968 6.8739C9.08847 6.84304 9.09677 6.81206 9.10458 6.78096C9.15846 6.56637 9.34146 6.39997 9.56271 6.39997H9.60002C9.82093 6.39997 10 6.22089 10 5.99998C10 5.77906 9.82093 5.59998 9.60002 5.59998H9.56271C9.34146 5.59998 9.15846 5.43358 9.10458 5.21899C9.09677 5.18789 9.08847 5.15691 9.07969 5.12606C9.01889 4.9126 9.09416 4.67632 9.28612 4.56491L9.31952 4.54552C9.51054 4.43465 9.57593 4.19017 9.46576 3.99875C9.35502 3.80634 9.10901 3.74055 8.917 3.85199L8.88458 3.87081C8.69343 3.98175 8.45166 3.93062 8.29776 3.77201C8.27485 3.74841 8.25159 3.72515 8.22799 3.70225C8.06938 3.54834 8.01826 3.30657 8.1292 3.11543L8.14801 3.08302C8.25945 2.89101 8.19366 2.645 8.00125 2.53426C7.80982 2.42409 7.56535 2.48947 7.45448 2.68049L7.43509 2.7139C7.32368 2.90586 7.0874 2.98113 6.87395 2.92033C6.84309 2.91154 6.8121 2.90324 6.781 2.89543C6.56641 2.84156 6.40001 2.65855 6.40001 2.4373V2.4C6.40001 2.17909 6.22093 2 6.00001 2C5.7791 2 5.60001 2.17909 5.60001 2.4V2.4373C5.60001 2.65855 5.43361 2.84155 5.21902 2.89543C5.18792 2.90324 5.15694 2.91154 5.12608 2.92033C4.91262 2.98112 4.67634 2.90585 4.56493 2.7139L4.54554 2.68049C4.43467 2.48947 4.1902 2.42409 3.99878 2.53426C3.80636 2.645 3.74057 2.89101 3.85201 3.08302L3.87082 3.11543C3.98176 3.30657 3.93064 3.54834 3.77203 3.70225C3.74843 3.72515 3.72517 3.74841 3.70227 3.77201C3.54836 3.93062 3.30659 3.98175 3.11544 3.87081L3.08302 3.85199C2.89101 3.74055 2.64501 3.80634 2.53426 3.99875C2.42409 4.19017 2.48948 4.43465 2.6805 4.54552L2.71391 4.56491C2.90586 4.67632 2.98113 4.91259 2.92034 5.12605C2.91155 5.15691 2.90325 5.18789 2.89544 5.21899C2.84156 5.43358 2.65856 5.59998 2.43731 5.59998H2.4C2.17909 5.59998 2 5.77906 2 5.99998C2 6.22089 2.17909 6.39997 2.4 6.39997H2.43731C2.65856 6.39997 2.84156 6.56637 2.89544 6.78096C2.9033 6.81227 2.91166 6.84345 2.92051 6.87451C2.98125 7.0876 2.9061 7.32349 2.71446 7.43472L2.67971 7.45489C2.4893 7.5654 2.42447 7.80932 2.53489 7.99979ZM7.19992 5.99998C7.42084 5.99998 7.59993 6.17907 7.59993 6.39998C7.59993 6.62089 7.42084 6.79998 7.19992 6.79998C6.97901 6.79998 6.79992 6.62089 6.79992 6.39998C6.79992 6.17907 6.97901 5.99998 7.19992 5.99998ZM5.99992 4.79999C5.99992 4.57907 6.17901 4.39999 6.39992 4.39999C6.62083 4.39999 6.79992 4.57907 6.79992 4.79999C6.79992 5.0209 6.62083 5.19998 6.39992 5.19998C6.17901 5.19998 5.99992 5.0209 5.99992 4.79999ZM5.59992 6.79998C5.82083 6.79998 5.99992 6.97906 5.99992 7.19997C5.99992 7.42089 5.82083 7.59997 5.59992 7.59997C5.379 7.59997 5.19992 7.42089 5.19992 7.19997C5.19992 6.97906 5.379 6.79998 5.59992 6.79998ZM4.39991 5.59998C4.39991 5.37907 4.579 5.19998 4.79991 5.19998C5.02083 5.19998 5.19992 5.37907 5.19992 5.59998C5.19992 5.82089 5.02083 5.99998 4.79991 5.99998C4.579 5.99998 4.39991 5.82089 4.39991 5.59998Z" />
        <path d="M19.5999 12.2442C19.5999 12.4092 19.5599 12.5692 19.4899 12.7142L19.2249 13.2392C19.1649 13.3592 19.2149 13.5092 19.3349 13.5692C19.3699 13.5842 19.4049 13.5942 19.4449 13.5942H20.5499C20.6849 13.5942 20.7949 13.4842 20.7949 13.3492C20.7949 13.3092 20.7849 13.2742 20.7699 13.2392L20.5049 12.7142C20.4349 12.5692 20.3949 12.4092 20.3949 12.2442C20.3949 12.0838 20.5307 11.9642 20.6887 11.9364C21.1797 11.85 21.6491 11.672 22.074 11.4122C22.318 11.263 22.6377 11.277 22.8399 11.4792C23.0649 11.7042 23.1899 12.0092 23.1899 12.3292V12.4642C23.1899 12.6842 23.3699 12.8642 23.5899 12.8642C23.6949 12.8642 23.7999 12.8242 23.8749 12.7492L24.7449 11.8792C24.8999 11.7242 24.8999 11.4692 24.7449 11.3142C24.6699 11.2392 24.5699 11.1992 24.4599 11.1992H24.3249C24.0049 11.1992 23.6999 11.0742 23.4749 10.8492C23.2727 10.6471 23.2587 10.3273 23.4079 10.0834C23.6676 9.65854 23.8457 9.18919 23.932 8.69826C23.9602 8.53837 24.0776 8.40425 24.2399 8.40425C24.4049 8.40425 24.5649 8.44425 24.7099 8.51425L25.2349 8.77924C25.3549 8.83924 25.5049 8.78924 25.5649 8.66925C25.5799 8.63425 25.5899 8.59925 25.5899 8.55925V7.45425C25.5899 7.31925 25.4799 7.20925 25.3449 7.20925C25.3049 7.20925 25.2699 7.21925 25.2349 7.23425L24.7099 7.49925C24.5649 7.57425 24.4049 7.60925 24.2399 7.60925C24.0795 7.60925 23.9599 7.47348 23.9321 7.31547C23.8457 6.82445 23.6676 6.35502 23.4079 5.93011C23.2587 5.6862 23.2727 5.36641 23.4749 5.16425C23.6999 4.93925 24.0049 4.81426 24.3249 4.81426H24.4599C24.6799 4.81426 24.8599 4.63426 24.8599 4.41426C24.8599 4.30926 24.8199 4.20426 24.7449 4.12926L23.8849 3.24927C23.7299 3.09427 23.4749 3.09427 23.3199 3.24927C23.2449 3.32426 23.2049 3.42426 23.2049 3.53427V3.66926C23.2049 3.98926 23.0799 4.29427 22.8549 4.51927C22.6528 4.72142 22.333 4.73543 22.0891 4.5863C21.6642 4.32655 21.1949 4.14848 20.7039 4.06212C20.544 4.034 20.4099 3.9166 20.4099 3.75426C20.4099 3.58926 20.4499 3.42926 20.5199 3.28428L20.7849 2.7593C20.8449 2.6393 20.7949 2.4893 20.6749 2.4293C20.6399 2.4143 20.6049 2.4043 20.5649 2.4043H19.4599C19.3249 2.4043 19.2149 2.51429 19.2149 2.6493C19.2149 2.6893 19.2249 2.7243 19.2399 2.75929L19.5049 3.28427C19.5749 3.42927 19.6149 3.58927 19.6149 3.75426C19.6149 3.91469 19.4791 4.0343 19.3211 4.06208C18.8301 4.14842 18.3607 4.32651 17.9358 4.5863C17.6918 4.73543 17.3721 4.72142 17.1699 4.51927C16.9449 4.29427 16.8199 3.98926 16.8199 3.66926V3.53426C16.8199 3.31426 16.6399 3.13426 16.4199 3.13426C16.3149 3.13426 16.2099 3.17426 16.1349 3.24926L15.2549 4.12926C15.1049 4.27925 15.1049 4.52425 15.2549 4.67426L15.2649 4.68426C15.3399 4.75926 15.4449 4.80426 15.5499 4.80426H15.6849C16.0049 4.80426 16.3099 4.92926 16.5349 5.15426C16.7371 5.35641 16.7511 5.6762 16.6019 5.92011C16.3422 6.34495 16.1641 6.8143 16.0778 7.30524C16.0496 7.46512 15.9322 7.59925 15.7699 7.59925C15.6049 7.59925 15.4449 7.55925 15.2999 7.48925L14.7749 7.22425C14.6549 7.16425 14.5049 7.21425 14.4449 7.33425C14.4299 7.36925 14.4199 7.40425 14.4199 7.44425V8.54925C14.4199 8.68424 14.5299 8.79425 14.6649 8.79425C14.7049 8.79425 14.7399 8.78425 14.7749 8.76925L15.2999 8.50425C15.4449 8.42925 15.6049 8.39425 15.7699 8.39425C15.9303 8.39425 16.0499 8.53002 16.0777 8.68802C16.1641 9.17904 16.3421 9.64848 16.6019 10.0734C16.7511 10.3173 16.7371 10.6371 16.5349 10.8392C16.3099 11.0642 16.0049 11.1892 15.6849 11.1892H15.5499C15.3299 11.1892 15.1499 11.3692 15.1499 11.5892C15.1499 11.6942 15.1899 11.7992 15.2649 11.8742L16.1349 12.7442C16.2899 12.8992 16.5449 12.8992 16.6999 12.7442C16.7749 12.6692 16.8149 12.5692 16.8149 12.4592V12.3242C16.8149 12.0042 16.9399 11.6992 17.1649 11.4742C17.367 11.2721 17.6868 11.2581 17.9307 11.4072C18.3545 11.6663 18.8226 11.8441 19.3122 11.9307C19.4685 11.9583 19.5999 12.0855 19.5999 12.2442Z" />
    </symbol>
    <symbol id="government" viewBox="0 0 27 27"><!-- fill -->
        <path d="M1.23058 25.418H0.874777C0.576125 25.418 0.334016 25.6601 0.334005 25.9587C0.333993 26.2574 0.576109 26.4995 0.874777 26.4995H12.4375H25.7932C26.0919 26.4995 26.334 26.2574 26.334 25.9587C26.334 25.6601 26.0919 25.418 25.7932 25.418H1.23058Z" />
        <path d="M13.7823 2.57835H16.4719L15.4565 1.55722C15.4153 1.49145 15.4153 1.40178 15.4565 1.33601L16.4719 0.5H13.334C13.3788 0.598913 13.7809 1.42742 13.7823 1.53918V2.57835Z" />
        <path d="M24.5407 24.9216C24.5407 24.623 24.2986 24.3809 24 24.3809H2.66773C2.36907 24.3809 2.12695 24.623 2.12695 24.9216C2.12695 25.2203 2.36907 25.4624 2.66773 25.4624H12.8856H24C24.2986 25.4624 24.5407 25.2203 24.5407 24.9216Z" />
        <path d="M22.7475 23.8787C22.7475 23.58 22.5054 23.3379 22.2067 23.3379H13.3337H4.46069C4.16203 23.3379 3.91992 23.58 3.91992 23.8787C3.91992 24.1773 4.16203 24.4194 4.46069 24.4194H22.2067C22.5054 24.4194 22.7475 24.1773 22.7475 23.8787Z" />
        <path d="M19.1602 12.9473H20.9373L20.9533 23.339H19.1602V12.9473Z" />
        <path d="M15.5742 12.9473H17.3673V23.3382H15.5742V12.9473Z" />
        <path d="M13.7813 4.65671V1.33996C13.7813 1.16295 13.7813 0.5 13.333 0.5C12.8848 0.5 12.8848 1.16295 12.8848 1.33996V4.65671H13.7813Z" />
        <path d="M5.71289 12.9473H7.50599V23.339H5.71289V12.9473Z" />
        <path d="M9.29883 12.9473H11.0919V23.339H9.29883V12.9473Z" />
        <path d="M7.14329 12.9481H15.4746H19.3953H21.8457H22.7235C23.3214 12.9481 23.806 12.4635 23.806 11.8657C23.806 11.2678 23.3214 10.7832 22.7235 10.7832H4.30513C3.70729 10.7832 3.22266 11.2678 3.22266 11.8657C3.22266 12.4635 3.70729 12.9481 4.30512 12.9481H7.14329Z" />
        <path d="M13.186 3.66602C8.71504 3.66602 4.92958 7.01889 4.81836 10.8936H21.8528C21.7416 7.02619 17.6569 3.66602 13.186 3.66602Z" />
    </symbol>
    <symbol id="heart" viewBox="0 0 29 29"><!-- fill -->
        <path d="M3 11.1596C3 16.833 7.68933 19.8563 11.122 22.5623C12.3333 23.5172 13.5 24.4163 14.6667 24.4163C15.8333 24.4163 17 23.5172 18.2113 22.5623C21.644 19.8563 26.3333 16.833 26.3333 11.1596C26.3333 5.48616 19.9165 1.46268 14.6667 6.91704C9.41685 1.46268 3 5.48616 3 11.1596Z" />
    </symbol>
    <symbol id="radio" viewBox="0 0 40 41" fill="none"><!-- stroke -->
        <path d="M19.9993 23.8327C21.8403 23.8327 23.3327 22.3403 23.3327 20.4993C23.3327 18.6584 21.8403 17.166 19.9993 17.166C18.1584 17.166 16.666 18.6584 16.666 20.4993C16.666 22.3403 18.1584 23.8327 19.9993 23.8327Z" stroke-width="2" stroke-linecap="round" stroke-linejoin="round"/>
        <path d="M29.6532 17.9145C29.994 19.1837 30.0814 20.5076 29.9102 21.8106C29.739 23.1135 29.3127 24.37 28.6556 25.508C27.9986 26.6461 27.1236 27.6436 26.0808 28.4433C25.038 29.243 23.8478 29.8293 22.5782 30.1687M10.3467 23.0876C10.0059 21.8185 9.91854 20.4945 10.0897 19.1916C10.2609 17.8886 10.6872 16.6322 11.3443 15.4941C12.0013 14.356 12.8763 13.3586 13.9191 12.5589C14.9619 11.7591 16.1521 11.1728 17.4217 10.8334M36.0963 16.1881C37.2395 20.4571 36.6403 25.0053 34.4306 28.8326C32.2209 32.6599 28.5816 35.4529 24.3129 36.5974M3.90361 24.8141C2.76043 20.5451 3.35957 15.9968 5.56927 12.1695C7.77897 8.34219 11.4183 5.5492 15.6869 4.40473" stroke-width="2" stroke-linecap="round" stroke-linejoin="round"/>
    </symbol>
    <symbol id="star" viewBox="0 0 40 41" fill="none"><!-- stroke -->
        <path d="M20.0007 3.83398L25.1507 14.2673L36.6673 15.9507L28.334 24.0673L30.3007 35.534L20.0007 30.1173L9.70065 35.534L11.6673 24.0673L3.33398 15.9507L14.8507 14.2673L20.0007 3.83398Z" stroke-width="2" stroke-linecap="round" stroke-linejoin="round"/>
    </symbol>
    <symbol id="trending-up" viewBox="0 0 40 41" fill="none"><!-- stroke -->
        <path d="M38.3327 10.5L22.4993 26.3333L14.166 18L1.66602 30.5" stroke-width="2" stroke-linecap="round" stroke-linejoin="round"/>
        <path d="M28.334 10.5H38.334V20.5" stroke-width="2" stroke-linecap="round" stroke-linejoin="round"/>
    </symbol>
    <symbol id="arrow-right" viewBox="0 0 24 24" fill="none"><!-- stroke -->
        <path d="M5 12H19" stroke-width="1.5" stroke-linecap="round" stroke-linejoin="round"/>
        <path d="M12 5L19 12L12 19" stroke-width="1.5" stroke-linecap="round" stroke-linejoin="round"/>
    </symbol>
    <symbol id="cancel" viewBox="0 0 24 24" fill="none"><!-- stroke -->
        <path d="M16 8L8 16M8 8L16 16" stroke-width="1.5" stroke-linecap="round" stroke-linejoin="round"/>
    </symbol>
    <symbol id="briefcase" viewBox="0 0 18 19" fill="none"><!-- stroke -->
        <path d="M15 5.75H3C2.17157 5.75 1.5 6.42157 1.5 7.25V14.75C1.5 15.5784 2.17157 16.25 3 16.25H15C15.8284 16.25 16.5 15.5784 16.5 14.75V7.25C16.5 6.42157 15.8284 5.75 15 5.75Z" stroke-linecap="round" stroke-linejoin="round"/>
        <path d="M12 16.25V4.25C12 3.85218 11.842 3.47064 11.5607 3.18934C11.2794 2.90804 10.8978 2.75 10.5 2.75H7.5C7.10218 2.75 6.72064 2.90804 6.43934 3.18934C6.15804 3.47064 6 3.85218 6 4.25V16.25" stroke-linecap="round" stroke-linejoin="round"/>
    </symbol>
    <symbol id="verified" viewBox="0 0 24 24" fill="none"><!-- stroke -->
        <circle cx="12" cy="12" r="8" fill="#20DF8F"/>
        <path d="M9 12L11 14L15 10" stroke="#1A1A1A" stroke-width="1.5" stroke-linecap="round" stroke-linejoin="round"/>
    </symbol>
    <symbol id="icon-navi" viewBox="0 0 22 3" fill="none"><!-- stroke -->
        <path d="M1 1.5H21" stroke-width="1.5" stroke-linecap="round"/>
    </symbol>
    <symbol id="arrow-down" viewBox="0 0 8 6" fill="none"><!-- stroke -->
        <path d="M1 1.5L4 4.5L7 1.5" stroke-width="1.5" stroke-linecap="round" stroke-linejoin="round"/>
    </symbol>
    <symbol id="security" viewBox="0 0 28 28"><!-- fill -->
        <path fill-rule="evenodd" clip-rule="evenodd" d="M3.5 12.1534C3.5 8.4229 3.5 6.55764 3.94043 5.93013C4.38087 5.30261 6.13471 4.70227 9.6424 3.50158L10.3107 3.27282C12.1391 2.64693 13.0534 2.33398 14 2.33398C14.9466 2.33398 15.8609 2.64693 17.6893 3.27282L18.3576 3.50158C21.8653 4.70227 23.6191 5.30261 24.0596 5.93013C24.5 6.55764 24.5 8.4229 24.5 12.1534V13.9906C24.5 20.5683 19.5545 23.7604 16.4517 25.1158C15.61 25.4835 15.1891 25.6673 14 25.6673C12.8109 25.6673 12.39 25.4835 11.5483 25.1158C8.44546 23.7604 3.5 20.5683 3.5 13.9906V12.1534ZM14 8.45898C14.4832 8.45898 14.875 8.85074 14.875 9.33398V14.0007C14.875 14.4839 14.4832 14.8757 14 14.8757C13.5168 14.8757 13.125 14.4839 13.125 14.0007V9.33398C13.125 8.85074 13.5168 8.45898 14 8.45898ZM14 18.6673C14.6443 18.6673 15.1667 18.145 15.1667 17.5007C15.1667 16.8563 14.6443 16.334 14 16.334C13.3557 16.334 12.8333 16.8563 12.8333 17.5007C12.8333 18.145 13.3557 18.6673 14 18.6673Z" />
    </symbol>
    <symbol id="clock" viewBox="0 0 41 41" fill="none"><!-- stroke -->
        <path d="M20.4987 37.1673C29.7034 37.1673 37.1654 29.7054 37.1654 20.5007C37.1654 11.2959 29.7034 3.83398 20.4987 3.83398C11.294 3.83398 3.83203 11.2959 3.83203 20.5007C3.83203 29.7054 11.294 37.1673 20.4987 37.1673Z" stroke="#DF2020" stroke-width="2" stroke-linecap="round" stroke-linejoin="round"/>
        <path d="M20.5 10.5V20.5L27.1667 23.8333" stroke="#DF2020" stroke-width="2" stroke-linecap="round" stroke-linejoin="round"/>
    </symbol>
    <symbol id="chevron-down" viewBox="0 0 24 24" fill="none"><!-- stroke -->
        <path d="M6 9L12 15L18 9" stroke-width="1.5" stroke-linecap="round" stroke-linejoin="round"/>
    </symbol>
    <symbol id="chevron-left" viewBox="0 0 24 24" fill="none"><!-- stroke -->
        <path d="M15 6L9 12L15 18" stroke-width="1.5" stroke-linecap="round" stroke-linejoin="round"/>
    </symbol>
    <symbol id="chevron-right" viewBox="0 0 24 24" fill="none"><!-- stroke -->
        <path d="M9 18L15 12L9 6" stroke-width="1.5" stroke-linecap="round" stroke-linejoin="round"/>
    </symbol>
    <symbol id="info" viewBox="0 0 24 24" fill="none"><!-- stroke -->
        <path d="M12 22C17.5228 22 22 17.5228 22 12C22 6.47715 17.5228 2 12 2C6.47715 2 2 6.47715 2 12C2 17.5228 6.47715 22 12 22Z" stroke-width="1.5" stroke-linecap="round" stroke-linejoin="round"/>
        <path d="M12 16V12" stroke-width="1.5" stroke-linecap="round" stroke-linejoin="round"/>
        <path d="M12 8H12.01" stroke-width="1.5" stroke-linecap="round" stroke-linejoin="round"/>
    </symbol>
    <symbol id="faq" viewBox="0 0 24 24" fill="none"><!-- stroke -->
        <path d="M21 11.5C21.0034 12.8199 20.6951 14.1219 20.1 15.3C19.3944 16.7118 18.3098 17.8992 16.9674 18.7293C15.6251 19.5594 14.0782 19.9994 12.5 20C11.1801 20.0035 9.87812 19.6951 8.7 19.1L3 21L4.9 15.3C4.30493 14.1219 3.99656 12.8199 4 11.5C4.00061 9.92179 4.44061 8.37488 5.27072 7.03258C6.10083 5.69028 7.28825 4.6056 8.7 3.90003C9.87812 3.30496 11.1801 2.99659 12.5 3.00003H13C15.0843 3.11502 17.053 3.99479 18.5291 5.47089C20.0052 6.94699 20.885 8.91568 21 11V11.5Z" stroke-width="1.5" stroke-linecap="round" stroke-linejoin="round"/>
    </symbol>
    <symbol id="lock" viewBox="0 0 24 24" fill="none"><!-- stroke -->
        <path d="M19 11H5C3.89543 11 3 11.8954 3 13V20C3 21.1046 3.89543 22 5 22H19C20.1046 22 21 21.1046 21 20V13C21 11.8954 20.1046 11 19 11Z" stroke-width="1.5" stroke-linecap="round" stroke-linejoin="round"/>
        <path d="M7 11V7C7 5.67392 7.52678 4.40215 8.46447 3.46447C9.40215 2.52678 10.6739 2 12 2C13.3261 2 14.5979 2.52678 15.5355 3.46447C16.4732 4.40215 17 5.67392 17 7V11" stroke-width="1.5" stroke-linecap="round" stroke-linejoin="round"/>
    </symbol>
    <symbol id="log-out" viewBox="0 0 24 24" fill="none"><!-- stroke -->
        <path d="M9 21H5C4.46957 21 3.96086 20.7893 3.58579 20.4142C3.21071 20.0391 3 19.5304 3 19V5C3 4.46957 3.21071 3.96086 3.58579 3.58579C3.96086 3.21071 4.46957 3 5 3H9" stroke-width="1.5" stroke-linecap="round" stroke-linejoin="round"/>
        <path d="M16 17L21 12L16 7" stroke-width="1.5" stroke-linecap="round" stroke-linejoin="round"/>
        <path d="M21 12H9" stroke-width="1.5" stroke-linecap="round" stroke-linejoin="round"/>
    </symbol>
    <symbol id="google" viewBox="0 0 25 24" fill="none"><!-- stroke -->
        <g clip-path="url(#clip0_893_11191)">
            <path fill-rule="evenodd" clip-rule="evenodd" d="M24.02 12.2729C24.02 11.422 23.9436 10.6038 23.8018 9.81836H12.5V14.4602H18.9582C18.68 15.9602 17.8345 17.2311 16.5636 18.082V21.0929H20.4418C22.7109 19.0038 24.02 15.9274 24.02 12.2729Z" fill="#4285F4"/>
            <path fill-rule="evenodd" clip-rule="evenodd" d="M12.501 23.9993C15.741 23.9993 18.4573 22.9248 20.4428 21.092L16.5646 18.0811C15.4901 18.8011 14.1155 19.2266 12.501 19.2266C9.37553 19.2266 6.73007 17.1157 5.78643 14.2793H1.77734V17.3884C3.75189 21.3102 7.81007 23.9993 12.501 23.9993Z" fill="#34A853"/>
            <path fill-rule="evenodd" clip-rule="evenodd" d="M5.78545 14.2804C5.54545 13.5604 5.40909 12.7913 5.40909 12.0004C5.40909 11.2095 5.54545 10.4404 5.78545 9.72042V6.61133H1.77636C0.963636 8.23133 0.5 10.0641 0.5 12.0004C0.5 13.9368 0.963636 15.7695 1.77636 17.3895L5.78545 14.2804Z" fill="#FBBC05"/>
            <path fill-rule="evenodd" clip-rule="evenodd" d="M12.501 4.77273C14.2628 4.77273 15.8446 5.37818 17.0883 6.56727L20.5301 3.12545C18.4519 1.18909 15.7355 0 12.501 0C7.81007 0 3.75189 2.68909 1.77734 6.61091L5.78643 9.72C6.73007 6.88364 9.37553 4.77273 12.501 4.77273Z" fill="#EA4335"/>
        </g>
        <defs>
            <clipPath id="clip0_893_11191">
                <rect x="0.5" width="24" height="24" rx="6" fill="white"/>
            </clipPath>
        </defs>
    </symbol>
    <symbol id="facebook" viewBox="0 0 25 24" fill="none"><!-- stroke -->
        <rect x="0.5" width="24" height="24" rx="12" fill="#1877F2"/>
        <path d="M17.1711 15.4688L17.7031 12H14.375V9.75C14.375 8.80078 14.8391 7.875 16.3297 7.875H17.8438V4.92188C17.8438 4.92188 16.4703 4.6875 15.1578 4.6875C12.4156 4.6875 10.625 6.34922 10.625 9.35625V12H7.57812V15.4688H10.625V23.8547C11.2367 23.9508 11.8625 24 12.5 24C13.1375 24 13.7633 23.9508 14.375 23.8547V15.4688H17.1711Z" fill="white"/>
    </symbol>
    <symbol id="debt-collections" viewBox="0 0 40 37" fill="none"><!-- fill -->
        <path d="M19.5663 0.5V3.84891L24.7662 2.17464L19.5663 0.5Z" fill="#1A1A1A"/>
        <path d="M36.033 32.314V28.965H31.6997V16.4069H35.1664L19.5664 5.52323L3.96644 16.4069H7.43318V28.965H3.96644V32.314H0.5V36.5H39.5V32.314H36.033ZM28.233 28.965H24.7663V16.4069H28.233V28.965ZM21.2995 16.4069V28.965H17.8328L17.8331 16.4069H21.2995ZM10.8995 16.4069H14.3663V28.965H10.8995V16.4069Z" fill="#1A1A1A"/>
    </symbol>
    <symbol id="sorter" viewBox="0 0 10 14" fill="none"><!-- stroke -->
        <path d="M1 5L5 1L9 5" stroke-width="1.5" stroke-linecap="round" stroke-linejoin="round"/>
        <path d="M9 9L5 13L1 9" stroke-width="1.5" stroke-linecap="round" stroke-linejoin="round"/>
    </symbol>
    <symbol id="phone" viewBox="0 0 24 24" fill="none"><!-- stroke -->
        <path d="M21.9994 16.9201V19.9201C22.0006 20.1986 21.9435 20.4743 21.832 20.7294C21.7204 20.9846 21.5567 21.2137 21.3515 21.402C21.1463 21.5902 20.904 21.7336 20.6402 21.8228C20.3764 21.912 20.0968 21.9452 19.8194 21.9201C16.7423 21.5857 13.7864 20.5342 11.1894 18.8501C8.77327 17.3148 6.72478 15.2663 5.18945 12.8501C3.49942 10.2413 2.44769 7.27109 2.11944 4.1801C2.09446 3.90356 2.12732 3.62486 2.21595 3.36172C2.30457 3.09859 2.44702 2.85679 2.63421 2.65172C2.82141 2.44665 3.04925 2.28281 3.30324 2.17062C3.55722 2.05843 3.83179 2.00036 4.10945 2.0001H7.10945C7.59475 1.99532 8.06524 2.16718 8.43321 2.48363C8.80118 2.80008 9.04152 3.23954 9.10944 3.7201C9.23607 4.68016 9.47089 5.62282 9.80945 6.5301C9.94399 6.88802 9.97311 7.27701 9.89335 7.65098C9.8136 8.02494 9.62831 8.36821 9.35944 8.6401L8.08945 9.9101C9.513 12.4136 11.5859 14.4865 14.0894 15.9101L15.3594 14.6401C15.6313 14.3712 15.9746 14.1859 16.3486 14.1062C16.7225 14.0264 17.1115 14.0556 17.4694 14.1901C18.3767 14.5286 19.3194 14.7635 20.2794 14.8901C20.7652 14.9586 21.2088 15.2033 21.526 15.5776C21.8431 15.9519 22.0116 16.4297 21.9994 16.9201Z" stroke-width="1.5" stroke-linecap="round" stroke-linejoin="round"/>
    </symbol>
    <symbol id="mail" viewBox="0 0 24 24" fill="none"><!-- stroke -->
        <path d="M22 6C22 4.9 21.1 4 20 4H4C2.9 4 2 4.9 2 6M22 6V18C22 19.1 21.1 20 20 20H4C2.9 20 2 19.1 2 18V6M22 6L12 13L2 6" stroke-width="1.5" stroke-linecap="round" stroke-linejoin="round"/>
    </symbol>
    <symbol id="site" viewBox="0 0 24 24" fill="none"><!-- stroke -->
        <path d="M8 3H9C7.05003 8.84157 7.05003 15.1584 9 21H8M15 3C16.95 8.84157 16.95 15.1584 15 21M3 16V15C8.84157 16.95 15.1584 16.95 21 15V16M3 9C8.84157 7.05003 15.1584 7.05003 21 9M12 22C17.523 22 22 17.523 22 12C22 6.477 17.523 2 12 2C6.477 2 2 6.477 2 12C2 17.523 6.477 22 12 22Z" stroke-width="1.5" stroke-linecap="round" stroke-linejoin="round"/>
    </symbol>
    <symbol id="useful" viewBox="0 0 24 24" fill="none"><!-- stroke -->
        <path d="M7 11L11 2C11.7956 2 12.5587 2.31607 13.1213 2.87868C13.6839 3.44129 14 4.20435 14 5V9H19.66C19.9499 8.99672 20.2371 9.0565 20.5016 9.17522C20.7661 9.29393 21.0016 9.46873 21.1919 9.68751C21.3821 9.90629 21.5225 10.1638 21.6033 10.4423C21.6842 10.7207 21.7035 11.0134 21.66 11.3L20.28 20.3C20.2077 20.7769 19.9654 21.2116 19.5979 21.524C19.2304 21.8364 18.7623 22.0055 18.28 22H7M7 11V22M7 11H4C3.46957 11 2.96086 11.2107 2.58579 11.5858C2.21071 11.9609 2 12.4696 2 13V20C2 20.5304 2.21071 21.0391 2.58579 21.4142C2.96086 21.7893 3.46957 22 4 22H7" stroke-width="1.5" stroke-linecap="round" stroke-linejoin="round"/>
    </symbol>
    <symbol id="reply" viewBox="0 0 24 24" fill="none"><!-- stroke -->
        <path d="M3.58008 5.16H17.4201C19.0801 5.16 20.4201 6.5 20.4201 8.16V11.48M3.58008 5.16L6.74008 2M3.58008 5.16L6.74008 8.32M20.4201 18.84H6.58008C4.92008 18.84 3.58008 17.5 3.58008 15.84V12.52M20.4201 18.84L17.2601 22M20.4201 18.84L17.2601 15.68" stroke-width="1.5" stroke-miterlimit="10" stroke-linecap="round" stroke-linejoin="round"/>
    </symbol>
    <symbol id="share" viewBox="0 0 24 24" fill="none"><!-- stroke -->
        <path d="M8.89839 10.6155L15.1015 7.5001M8.89839 13.3847L15.1015 16.5001M9.23079 12C9.23079 13.7206 7.83598 15.1154 6.1154 15.1154C4.39481 15.1154 3 13.7206 3 12C3 10.2794 4.39481 8.88458 6.1154 8.88458C7.83598 8.88458 9.23079 10.2794 9.23079 12ZM21 17.8848C21 19.6053 19.6051 21.0002 17.8846 21.0002C16.164 21.0002 14.7692 19.6053 14.7692 17.8848C14.7692 16.1642 16.164 14.7694 17.8846 14.7694C19.6051 14.7694 21 16.1642 21 17.8848ZM21 6.1154C21 7.83598 19.6051 9.23079 17.8846 9.23079C16.164 9.23079 14.7692 7.83598 14.7692 6.1154C14.7692 4.39481 16.164 3 17.8846 3C19.6051 3 21 4.39481 21 6.1154Z" stroke-width="1.5" stroke-linecap="round" stroke-linejoin="round"/>
    </symbol>
    <symbol id="location" viewBox="0 0 24 24" fill="none"><!-- stroke -->
        <path d="M21 10C21 17 12 23 12 23C12 23 3 17 3 10C3 7.61305 3.94821 5.32387 5.63604 3.63604C7.32387 1.94821 9.61305 1 12 1C14.3869 1 16.6761 1.94821 18.364 3.63604C20.0518 5.32387 21 7.61305 21 10Z" stroke-width="1.5" stroke-linecap="round" stroke-linejoin="round"/>
        <path d="M12 13C13.6569 13 15 11.6569 15 10C15 8.34315 13.6569 7 12 7C10.3431 7 9 8.34315 9 10C9 11.6569 10.3431 13 12 13Z" stroke-width="1.5" stroke-linecap="round" stroke-linejoin="round"/>
    </symbol>
    <symbol id="icon-facebook" viewBox="0 0 44 44" fill="none"><!-- stroke -->
        <rect width="44" height="44" rx="22" fill="#1877F2"/>
        <path d="M30.5637 28.3594L31.5391 22H25.4375V17.875C25.4375 16.1348 26.2883 14.4375 29.0211 14.4375H31.7969V9.02344C31.7969 9.02344 29.2789 8.59375 26.8727 8.59375C21.8453 8.59375 18.5625 11.6402 18.5625 17.1531V22H12.9766V28.3594H18.5625V43.7336C19.684 43.9098 20.8313 44 22 44C23.1687 44 24.316 43.9098 25.4375 43.7336V28.3594H30.5637Z" fill="white"/>
    </symbol>
    <symbol id="icon-twitter" viewBox="0 0 44 44" fill="none"><!-- stroke -->
        <rect width="44" height="44" rx="22" fill="#1D9BF0"/>
        <path d="M17.9742 33.6057C27.7312 33.6057 33.0662 25.5207 33.0662 18.5137C33.0662 18.2827 33.0662 18.0517 33.0552 17.8317C34.0892 17.0837 34.9912 16.1487 35.7062 15.0817C34.7602 15.4997 33.7372 15.7857 32.6592 15.9177C33.7592 15.2577 34.5952 14.2237 34.9912 12.9807C33.9682 13.5857 32.8352 14.0257 31.6252 14.2677C30.6572 13.2337 29.2822 12.5957 27.7532 12.5957C24.8272 12.5957 22.4512 14.9717 22.4512 17.8977C22.4512 18.3157 22.4952 18.7227 22.5942 19.1077C18.1832 18.8877 14.2782 16.7757 11.6602 13.5637C11.2092 14.3447 10.9452 15.2577 10.9452 16.2257C10.9452 18.0627 11.8802 19.6907 13.3102 20.6367C12.4412 20.6147 11.6272 20.3727 10.9122 19.9767C10.9122 19.9987 10.9122 20.0207 10.9122 20.0427C10.9122 22.6167 12.7382 24.7507 15.1692 25.2457C14.7292 25.3667 14.2562 25.4327 13.7722 25.4327C13.4312 25.4327 13.1012 25.3997 12.7712 25.3337C13.4422 27.4457 15.4002 28.9747 17.7212 29.0187C15.9062 30.4377 13.6182 31.2847 11.1322 31.2847C10.7032 31.2847 10.2852 31.2627 9.86719 31.2077C12.1882 32.7257 14.9822 33.6057 17.9742 33.6057Z" fill="white"/>
    </symbol>
    <symbol id="icon-youtube" viewBox="0 0 44 44" fill="none"><!-- stroke -->
        <rect width="44" height="44" rx="22" fill="#FF0000"/>
        <path d="M34.8111 15.7026C34.5091 14.581 33.6248 13.6967 32.5033 13.3948C30.4542 12.834 22.2582 12.834 22.2582 12.834C22.2582 12.834 14.0621 12.834 12.0131 13.3732C10.9131 13.6752 10.0072 14.581 9.70523 15.7026C9.16602 17.7516 9.16602 22.0007 9.16602 22.0007C9.16602 22.0007 9.16602 26.2712 9.70523 28.2987C10.0072 29.4203 10.8915 30.3046 12.0131 30.6065C14.0837 31.1673 22.2582 31.1673 22.2582 31.1673C22.2582 31.1673 30.4542 31.1673 32.5033 30.6281C33.6248 30.3261 34.5091 29.4418 34.8111 28.3203C35.3503 26.2712 35.3503 22.0222 35.3503 22.0222C35.3503 22.0222 35.3719 17.7516 34.8111 15.7026Z" fill="white"/>
        <path d="M19.6484 25.9252L26.4641 21.9997L19.6484 18.0742V25.9252Z" fill="#FF0000"/>
    </symbol>
    <symbol id="icon-linkedin" viewBox="0 0 44 44" fill="none"><!-- stroke -->
        <rect width="44" height="44" rx="22" fill="#0A66C2"/>
        <g clip-path="url(#clip0_935_5479)">
            <path d="M9.16602 12.5893C9.16602 11.7635 9.45506 11.0822 10.0331 10.5454C10.6112 10.0086 11.3627 9.74023 12.2876 9.74023C13.1961 9.74023 13.931 10.0045 14.4926 10.533C15.0707 11.0781 15.3597 11.7883 15.3597 12.6637C15.3597 13.4564 15.0789 14.1171 14.5174 14.6456C13.9393 15.1907 13.1795 15.4632 12.2381 15.4632H12.2133C11.3049 15.4632 10.5699 15.1907 10.0084 14.6456C9.44679 14.1006 9.16602 13.4152 9.16602 12.5893ZM9.48809 34.2673V17.7177H14.9881V34.2673H9.48809ZM18.0354 34.2673H23.5354V25.0263C23.5354 24.4482 23.6015 24.0022 23.7336 23.6884C23.9648 23.1269 24.3158 22.652 24.7865 22.2639C25.2572 21.8757 25.8477 21.6817 26.5579 21.6817C28.4078 21.6817 29.3327 22.9287 29.3327 25.4227V34.2673H34.8327V24.7785C34.8327 22.3341 34.2546 20.4801 33.0984 19.2166C31.9423 17.9531 30.4145 17.3213 28.5151 17.3213C26.3845 17.3213 24.7246 18.238 23.5354 20.0713V20.1209H23.5106L23.5354 20.0713V17.7177H18.0354C18.0684 18.2462 18.0849 19.8896 18.0849 22.6479C18.0849 25.4061 18.0684 29.2793 18.0354 34.2673Z" fill="white"/>
        </g>
        <defs>
            <clipPath id="clip0_935_5479">
                <rect x="9.16602" y="9.16602" width="25.6667" height="25.6667" fill="white"/>
            </clipPath>
        </defs>
    </symbol>
    <symbol id="dots" viewBox="0 0 24 24" fill="none"><!-- stroke -->
        <path id="Vector" d="M12 13C12.5523 13 13 12.5523 13 12C13 11.4477 12.5523 11 12 11C11.4477 11 11 11.4477 11 12C11 12.5523 11.4477 13 12 13Z" stroke-width="1.5" stroke-linecap="round" stroke-linejoin="round"/>
        <path id="Vector_2" d="M19 13C19.5523 13 20 12.5523 20 12C20 11.4477 19.5523 11 19 11C18.4477 11 18 11.4477 18 12C18 12.5523 18.4477 13 19 13Z" stroke-width="1.5" stroke-linecap="round" stroke-linejoin="round"/>
        <path id="Vector_3" d="M5 13C5.55228 13 6 12.5523 6 12C6 11.4477 5.55228 11 5 11C4.44772 11 4 11.4477 4 12C4 12.5523 4.44772 13 5 13Z" stroke-width="1.5" stroke-linecap="round" stroke-linejoin="round"/>
    </symbol>
    <symbol id="settings" viewBox="0 0 24 24" fill="none"><!-- stroke -->
        <g clip-path="url(#clip0_945_8674)">
            <path d="M12 15C13.6569 15 15 13.6569 15 12C15 10.3431 13.6569 9 12 9C10.3431 9 9 10.3431 9 12C9 13.6569 10.3431 15 12 15Z" stroke="white" stroke-width="1.5" stroke-linecap="round" stroke-linejoin="round"/>
            <path d="M19.4 15C19.2669 15.3016 19.2272 15.6362 19.286 15.9606C19.3448 16.285 19.4995 16.5843 19.73 16.82L19.79 16.88C19.976 17.0657 20.1235 17.2863 20.2241 17.5291C20.3248 17.7719 20.3766 18.0322 20.3766 18.295C20.3766 18.5578 20.3248 18.8181 20.2241 19.0609C20.1235 19.3037 19.976 19.5243 19.79 19.71C19.6043 19.896 19.3837 20.0435 19.1409 20.1441C18.8981 20.2448 18.6378 20.2966 18.375 20.2966C18.1122 20.2966 17.8519 20.2448 17.6091 20.1441C17.3663 20.0435 17.1457 19.896 16.96 19.71L16.9 19.65C16.6643 19.4195 16.365 19.2648 16.0406 19.206C15.7162 19.1472 15.3816 19.1869 15.08 19.32C14.7842 19.4468 14.532 19.6572 14.3543 19.9255C14.1766 20.1938 14.0813 20.5082 14.08 20.83V21C14.08 21.5304 13.8693 22.0391 13.4942 22.4142C13.1191 22.7893 12.6104 23 12.08 23C11.5496 23 11.0409 22.7893 10.6658 22.4142C10.2907 22.0391 10.08 21.5304 10.08 21V20.91C10.0723 20.579 9.96512 20.258 9.77251 19.9887C9.5799 19.7194 9.31074 19.5143 9 19.4C8.69838 19.2669 8.36381 19.2272 8.03941 19.286C7.71502 19.3448 7.41568 19.4995 7.18 19.73L7.12 19.79C6.93425 19.976 6.71368 20.1235 6.47088 20.2241C6.22808 20.3248 5.96783 20.3766 5.705 20.3766C5.44217 20.3766 5.18192 20.3248 4.93912 20.2241C4.69632 20.1235 4.47575 19.976 4.29 19.79C4.10405 19.6043 3.95653 19.3837 3.85588 19.1409C3.75523 18.8981 3.70343 18.6378 3.70343 18.375C3.70343 18.1122 3.75523 17.8519 3.85588 17.6091C3.95653 17.3663 4.10405 17.1457 4.29 16.96L4.35 16.9C4.58054 16.6643 4.73519 16.365 4.794 16.0406C4.85282 15.7162 4.81312 15.3816 4.68 15.08C4.55324 14.7842 4.34276 14.532 4.07447 14.3543C3.80618 14.1766 3.49179 14.0813 3.17 14.08H3C2.46957 14.08 1.96086 13.8693 1.58579 13.4942C1.21071 13.1191 1 12.6104 1 12.08C1 11.5496 1.21071 11.0409 1.58579 10.6658C1.96086 10.2907 2.46957 10.08 3 10.08H3.09C3.42099 10.0723 3.742 9.96512 4.0113 9.77251C4.28059 9.5799 4.48572 9.31074 4.6 9C4.73312 8.69838 4.77282 8.36381 4.714 8.03941C4.65519 7.71502 4.50054 7.41568 4.27 7.18L4.21 7.12C4.02405 6.93425 3.87653 6.71368 3.77588 6.47088C3.67523 6.22808 3.62343 5.96783 3.62343 5.705C3.62343 5.44217 3.67523 5.18192 3.77588 4.93912C3.87653 4.69632 4.02405 4.47575 4.21 4.29C4.39575 4.10405 4.61632 3.95653 4.85912 3.85588C5.10192 3.75523 5.36217 3.70343 5.625 3.70343C5.88783 3.70343 6.14808 3.75523 6.39088 3.85588C6.63368 3.95653 6.85425 4.10405 7.04 4.29L7.1 4.35C7.33568 4.58054 7.63502 4.73519 7.95941 4.794C8.28381 4.85282 8.61838 4.81312 8.92 4.68H9C9.29577 4.55324 9.54802 4.34276 9.72569 4.07447C9.90337 3.80618 9.99872 3.49179 10 3.17V3C10 2.46957 10.2107 1.96086 10.5858 1.58579C10.9609 1.21071 11.4696 1 12 1C12.5304 1 13.0391 1.21071 13.4142 1.58579C13.7893 1.96086 14 2.46957 14 3V3.09C14.0013 3.41179 14.0966 3.72618 14.2743 3.99447C14.452 4.26276 14.7042 4.47324 15 4.6C15.3016 4.73312 15.6362 4.77282 15.9606 4.714C16.285 4.65519 16.5843 4.50054 16.82 4.27L16.88 4.21C17.0657 4.02405 17.2863 3.87653 17.5291 3.77588C17.7719 3.67523 18.0322 3.62343 18.295 3.62343C18.5578 3.62343 18.8181 3.67523 19.0609 3.77588C19.3037 3.87653 19.5243 4.02405 19.71 4.21C19.896 4.39575 20.0435 4.61632 20.1441 4.85912C20.2448 5.10192 20.2966 5.36217 20.2966 5.625C20.2966 5.88783 20.2448 6.14808 20.1441 6.39088C20.0435 6.63368 19.896 6.85425 19.71 7.04L19.65 7.1C19.4195 7.33568 19.2648 7.63502 19.206 7.95941C19.1472 8.28381 19.1869 8.61838 19.32 8.92V9C19.4468 9.29577 19.6572 9.54802 19.9255 9.72569C20.1938 9.90337 20.5082 9.99872 20.83 10H21C21.5304 10 22.0391 10.2107 22.4142 10.5858C22.7893 10.9609 23 11.4696 23 12C23 12.5304 22.7893 13.0391 22.4142 13.4142C22.0391 13.7893 21.5304 14 21 14H20.91C20.5882 14.0013 20.2738 14.0966 20.0055 14.2743C19.7372 14.452 19.5268 14.7042 19.4 15Z" stroke-width="1.5" stroke-linecap="round" stroke-linejoin="round"/>
        </g>
        <defs>
            <clipPath id="clip0_945_8674">
            <rect width="24" height="24" fill="white"/>
            </clipPath>
        </defs>
    </symbol>
    <symbol id="download" viewBox="0 0 24 24" fill="none"><!-- stroke -->
        <path d="M20 15V18.3333C20 18.7754 19.8127 19.1993 19.4793 19.5118C19.1459 19.8244 18.6937 20 18.2222 20H5.77778C5.30628 20 4.8541 19.8244 4.5207 19.5118C4.1873 19.1993 4 18.7754 4 18.3333V15" stroke="#1A1A1A" stroke-width="1.5" stroke-linecap="round" stroke-linejoin="round"/>
        <path d="M8 10L12 15L16 10" stroke="#1A1A1A" stroke-width="1.5" stroke-linecap="round" stroke-linejoin="round"/>
        <path d="M12 15V4" stroke="#1A1A1A" stroke-width="1.5" stroke-linecap="round" stroke-linejoin="round"/>
    </symbol>
    <symbol id="messages" viewBox="0 0 24 24" fill="none"><!-- stroke -->
        <path d="M20 14.6667C20 15.1382 19.8127 15.5903 19.4793 15.9237C19.1459 16.2571 18.6937 16.4444 18.2222 16.4444H7.55556L4 20V5.77778C4 5.30628 4.1873 4.8541 4.5207 4.5207C4.8541 4.1873 5.30628 4 5.77778 4H18.2222C18.6937 4 19.1459 4.1873 19.4793 4.5207C19.8127 4.8541 20 5.30628 20 5.77778V14.6667Z" stroke-width="1.5" stroke-linecap="round" stroke-linejoin="round"/>
    </symbol>
    <symbol id="send" viewBox="0 0 25 24" fill="none"><!-- stroke -->
        <path d="M22.5 2L11.5 13" stroke-width="1.5" stroke-linecap="round" stroke-linejoin="round"/>
        <path d="M22.5 2L15.5 22L11.5 13L2.5 9L22.5 2Z" stroke-width="1.5" stroke-linecap="round" stroke-linejoin="round"/>
    </symbol>
    <symbol id="warning" viewBox="0 0 22 22" fill="none"><!-- stroke -->
        <g clip-path="url(#clip0_945_7437)">
            <path d="M0.917969 19.2507H21.0846L11.0013 1.83398L0.917969 19.2507ZM11.918 16.5007H10.0846V14.6673H11.918V16.5007ZM11.918 12.834H10.0846V9.16732H11.918V12.834Z" fill="#DF2020"/>
        </g>
        <defs>
            <clipPath id="clip0_945_7437">
                <rect width="22" height="22" fill="white"/>
            </clipPath>
        </defs>
    </symbol>
    <symbol id="user-hands-up" viewBox="0 0 42 42"><!-- fill -->
        <path d="M21 17.5C24.866 17.5 28 14.366 28 10.5C28 6.63401 24.866 3.5 21 3.5C17.134 3.5 14 6.63401 14 10.5C14 14.366 17.134 17.5 21 17.5Z" />
        <path d="M4.77362 10.1816C4.59781 9.47832 3.88521 9.05076 3.18198 9.22657C2.47875 9.40238 2.05119 10.115 2.227 10.8182L2.89544 13.492C4.12877 18.4253 7.86806 22.3117 12.6878 23.7626L12.6878 31.5909C12.6878 33.1632 12.6877 34.4744 12.8277 35.5152C12.9754 36.6139 13.3003 37.6058 14.0974 38.4028C14.8944 39.1999 15.8863 39.5248 16.985 39.6725C18.0258 39.8125 19.337 39.8124 20.9093 39.8124H21.0913C22.6636 39.8124 23.9748 39.8125 25.0156 39.6725C26.1143 39.5248 27.1062 39.1999 27.9033 38.4028C28.7003 37.6058 29.0253 36.6139 29.173 35.5152C29.3129 34.4744 29.3129 33.1632 29.3128 31.5909L29.3128 24.2532C31.0298 24.765 32.3413 26.2567 32.5602 28.1173L33.6968 37.7782C33.7815 38.4981 34.4337 39.0131 35.1537 38.9284C35.8736 38.8437 36.3885 38.1914 36.3038 37.4715L35.1672 27.8106C34.7397 24.1763 31.6596 21.4374 28.0003 21.4374H14.1482C9.87219 20.4336 6.50924 17.124 5.44206 12.8553L4.77362 10.1816Z" />
    </symbol>
    <symbol id="case" viewBox="0 0 42 42"><!-- fill -->
        <path fill-rule="evenodd" clip-rule="evenodd" d="M17.2861 7.43739C17.8272 5.9063 19.2875 4.8125 20.9998 4.8125C22.7122 4.8125 24.1725 5.9063 24.7136 7.43739C24.9552 8.12083 25.705 8.47904 26.3885 8.23748C27.0719 7.99592 27.4301 7.24605 27.1886 6.56261C26.2883 4.01553 23.8592 2.1875 20.9998 2.1875C18.1404 2.1875 15.7114 4.01553 14.8111 6.56261C14.5695 7.24605 14.9277 7.99592 15.6112 8.23748C16.2946 8.47904 17.0445 8.12083 17.2861 7.43739ZM4.80761 14.1592C4.71428 14.0985 4.6161 14.0513 4.51534 14.0169C4.78335 13.4611 5.12209 12.9784 5.55025 12.5503C7.60051 10.5 10.9003 10.5 17.5 10.5H24.5C31.0997 10.5 34.3995 10.5 36.4497 12.5503C36.8779 12.9785 37.2167 13.4612 37.4847 14.0171C37.3842 14.0514 37.2862 14.0986 37.193 14.1592C33.5172 16.5484 31.2079 18.0428 29.289 19.0014C29.1728 18.3954 28.6399 17.9375 28 17.9375C27.2751 17.9375 26.6875 18.5251 26.6875 19.25V20.0516C22.9785 21.1708 19.0215 21.1707 15.3125 20.0514V19.25C15.3125 18.5251 14.7249 17.9375 14 17.9375C13.3602 17.9375 12.8273 18.3953 12.7111 19.0012C10.7923 18.0425 8.48301 16.5482 4.80761 14.1592ZM3.5 24.5C3.5 21.0867 3.5 18.5561 3.78364 16.6244C7.76783 19.2142 10.3215 20.8658 12.6875 21.883V22.75C12.6875 23.4749 13.2751 24.0625 14 24.0625C14.7153 24.0625 15.2969 23.4903 15.3122 22.7787C19.0402 23.7616 22.9598 23.7617 26.6878 22.7789C26.7032 23.4904 27.2848 24.0625 28 24.0625C28.7249 24.0625 29.3125 23.4749 29.3125 22.75V21.8832C31.6786 20.8661 34.2322 19.2145 38.2164 16.6248C38.5 18.5564 38.5 21.0869 38.5 24.5C38.5 31.0997 38.5 34.3995 36.4497 36.4497C34.3995 38.5 31.0997 38.5 24.5 38.5H17.5C10.9003 38.5 7.60051 38.5 5.55025 36.4497C3.5 34.3995 3.5 31.0997 3.5 24.5Z" />
    </symbol>
    <symbol id="pen" viewBox="0 0 38 38"><!-- stroke -->
        <path d="M18.0514 28.7546L18.0515 28.7545L29.7616 17.0444C28.1678 16.3811 26.2802 15.2915 24.4949 13.5063C22.7094 11.7207 21.6197 9.83277 20.9564 8.23886L9.24611 19.9492L9.24602 19.9493C8.33226 20.863 7.87533 21.32 7.48239 21.8238C7.01885 22.4181 6.62143 23.0611 6.29718 23.7415C6.0223 24.3182 5.81796 24.9313 5.40927 26.1573L3.25418 32.6226C3.05306 33.2259 3.21009 33.8911 3.6598 34.3408C4.10951 34.7906 4.7747 34.9476 5.37805 34.7465L11.8433 32.5914C13.0694 32.1827 13.6824 31.9783 14.2592 31.7035C14.9396 31.3792 15.5826 30.9818 16.1769 30.5183C16.6807 30.1253 17.1376 29.6684 18.0514 28.7546Z" />
        <path d="M33.011 13.795C35.4425 11.3635 35.4425 7.4212 33.011 4.98966C30.5795 2.55813 26.6372 2.55813 24.2056 4.98966L22.8012 6.39414C22.8204 6.45222 22.8403 6.5111 22.861 6.57074C23.3758 8.05455 24.3471 9.99969 26.1743 11.8269C28.0015 13.6541 29.9466 14.6254 31.4304 15.1402C31.4898 15.1608 31.5484 15.1806 31.6062 15.1998L33.011 13.795Z" />
    </symbol>
    <symbol id="security" viewBox="0 0 40 40"><!-- stroke -->
        <path fill-rule="evenodd" clip-rule="evenodd" d="M5.62919 8.47133C5 9.36778 5 12.0324 5 17.3617V19.9862C5 29.383 12.0649 33.9431 16.4976 35.8794C17.7 36.4047 18.3012 36.6673 20 36.6673C21.6988 36.6673 22.3 36.4047 23.5024 35.8794C27.9351 33.9431 35 29.383 35 19.9862V17.3617C35 12.0324 35 9.36778 34.3708 8.47133C33.7416 7.57488 31.2361 6.71725 26.2251 5.00197L25.2705 4.67518C22.6584 3.78105 21.3523 3.33398 20 3.33398C18.6477 3.33398 17.3416 3.78105 14.7295 4.67518L13.7749 5.00197C8.76387 6.71725 6.25839 7.57488 5.62919 8.47133ZM25.0991 17.4998C25.5589 16.9849 25.5141 16.1947 24.9992 15.7349C24.4842 15.2751 23.694 15.3198 23.2342 15.8348L18.2143 21.4572L16.7658 19.8348C16.306 19.3198 15.5158 19.2751 15.0008 19.7349C14.4859 20.1947 14.4411 20.9849 14.9009 21.4998L17.2819 24.1665C17.519 24.4321 17.8582 24.584 18.2143 24.584C18.5704 24.584 18.9096 24.4321 19.1467 24.1665L25.0991 17.4998Z" />
    </symbol>
    <symbol id="close" viewBox="0 0 24 24" fill="none"><!-- stroke -->
        <path d="M16 8L8 16M8 8L16 16" stroke-width="1.5" stroke-linecap="round" stroke-linejoin="round"/>
    </symbol>
    <symbol id="upload" viewBox="0 0 24 24" fill="none"><!-- stroke -->
        <path d="M11 12.4503C11.3236 12.894 11.7365 13.2612 12.2106 13.5269C12.6847 13.7926 13.209 13.9505 13.7479 13.9901C14.2868 14.0297 14.8277 13.95 15.3339 13.7563C15.8401 13.5626 16.2998 13.2596 16.6817 12.8677L18.9424 10.549C19.6287 9.82019 20.0084 8.84404 19.9999 7.83081C19.9913 6.81758 19.595 5.84834 18.8965 5.13185C18.1979 4.41536 17.2529 4.00895 16.265 4.00015C15.2771 3.99134 14.3254 4.38085 13.6148 5.08478L12.3187 6.4064" stroke-width="1.5" stroke-linecap="round" stroke-linejoin="round"/>
        <path d="M13 11.5497C12.6764 11.106 12.2635 10.7388 11.7894 10.4731C11.3153 10.2074 10.791 10.0495 10.2521 10.0099C9.7132 9.97029 9.17231 10.05 8.66611 10.2437C8.15991 10.4374 7.70024 10.7404 7.31828 11.1323L5.05764 13.451C4.37132 14.1798 3.99156 15.156 4.00014 16.1692C4.00873 17.1824 4.40497 18.1517 5.10354 18.8681C5.80211 19.5846 6.7471 19.991 7.73498 19.9999C8.72287 20.0087 9.6746 19.6192 10.3852 18.9152L11.6738 17.5936" stroke-width="1.5" stroke-linecap="round" stroke-linejoin="round"/>
    </symbol>
    <symbol id="delete" viewBox="0 0 20 20" fill="none"><!-- stroke -->
        <path d="M2.5 5H4.16667H17.5" stroke-width="1.5" stroke-linecap="round" stroke-linejoin="round"/>
        <path d="M15.8346 5.00033V16.667C15.8346 17.109 15.659 17.5329 15.3465 17.8455C15.0339 18.1581 14.61 18.3337 14.168 18.3337H5.83464C5.39261 18.3337 4.96868 18.1581 4.65612 17.8455C4.34356 17.5329 4.16797 17.109 4.16797 16.667V5.00033M6.66797 5.00033V3.33366C6.66797 2.89163 6.84356 2.46771 7.15612 2.15515C7.46868 1.84259 7.89261 1.66699 8.33464 1.66699H11.668C12.11 1.66699 12.5339 1.84259 12.8465 2.15515C13.159 2.46771 13.3346 2.89163 13.3346 3.33366V5.00033" stroke-width="1.5" stroke-linecap="round" stroke-linejoin="round"/>
        <path d="M8.33203 9.16699V14.167" stroke-width="1.5" stroke-linecap="round" stroke-linejoin="round"/>
        <path d="M11.668 9.16699V14.167" stroke-width="1.5" stroke-linecap="round" stroke-linejoin="round"/>
    </symbol>
    <symbol id="checked" viewBox="0 0 22 22" fill="none"><!-- color -->
        <g clip-path="url(#clip0_976_13797)">
            <path d="M11.0007 1.83398C5.94065 1.83398 1.83398 5.94065 1.83398 11.0007C1.83398 16.0607 5.94065 20.1673 11.0007 20.1673C16.0607 20.1673 20.1673 16.0607 20.1673 11.0007C20.1673 5.94065 16.0607 1.83398 11.0007 1.83398ZM9.16732 15.584L4.58398 11.0007L5.87648 9.70815L9.16732 12.9898L16.1248 6.03232L17.4173 7.33398L9.16732 15.584Z" fill="#24DF91"/>
        </g>
        <defs>
            <clipPath id="clip0_976_13797">
                <rect width="22" height="22" fill="white"/>
            </clipPath>
        </defs>
    </symbol>
    <symbol id="plus" viewBox="0 0 24 24" fill="none"><!-- stroke -->
        <path d="M12 5V19" stroke-width="1.5" stroke-linecap="round" stroke-linejoin="round"/>
        <path d="M5 12H19" stroke-width="1.5" stroke-linecap="round" stroke-linejoin="round"/>
    </symbol>
    <symbol id="" viewBox="" fill="none"><!-- stroke -->
    </symbol>
    <symbol id="" viewBox="" fill="none"><!-- stroke -->
    </symbol>
</svg>